<svg xmlns="http://www.w3.org/2000/svg" viewBox="0 0 750 500"><g id="freepik--background-complete--inject-74"><rect x="91.29" y="386.1" width="113.6" height="87.62" style="fill:#ebebeb"></rect><path d="M176.43,473.1c-.12,0-.22-19.53-.22-43.61s.1-43.62.22-43.62.23,19.52.23,43.62S176.56,473.1,176.43,473.1Z" style="fill:#e0e0e0"></path><rect x="186.55" y="453.78" width="8.71" height="9.85" style="fill:#fafafa"></rect><rect x="125.95" y="386.33" width="12.9" height="18.7" style="fill:#e0e0e0"></rect><rect x="125.95" y="454.77" width="12.9" height="18.7" style="fill:#e0e0e0"></rect><rect x="533.1" y="29.18" width="39.7" height="10.5" style="fill:#f5f5f5"></rect><path d="M556,50.75a1.7,1.7,0,0,1,0-.19V50c0-.5,0-1.18,0-2.07,0-1.81,0-4.42-.07-7.7l.12.12-39.7.08.2-.2h0V50.75l-.2-.2,28.29.09,8.35.06,2.26,0,.59,0h-.54l-2.21,0-8.31.06L516.31,51h-.2V40.26h0c.4-.41.11-.12.2-.21l39.7.08h.12v.13L556.07,48q0,1.32,0,2c0,.22,0,.39,0,.52A1,1,0,0,1,556,50.75Z" style="fill:#e0e0e0"></path><rect x="604.42" y="409.41" width="39.7" height="10.5" style="fill:#f5f5f5"></rect><path d="M627.33,431a1.7,1.7,0,0,1,0-.19c0-.14,0-.32,0-.54q0-.74,0-2.07c0-1.81,0-4.42-.07-7.7l.12.12-39.7.08.2-.2h0V431l-.2-.2,28.29.09,8.36.06,2.25,0,.59,0h-.54l-2.21,0-8.31.06-28.43.09h-.2V420.49h0c.4-.41.11-.12.2-.21l39.7.08h.13v.13c0,3.31-.06,5.95-.07,7.78,0,.87,0,1.55,0,2v.52C627.34,430.93,627.34,431,627.33,431Z" style="fill:#e0e0e0"></path><circle cx="93.22" cy="85.28" r="39.31" transform="translate(-2.81 167.39) rotate(-82.98)" style="fill:#f5f5f5"></circle><circle cx="93.44" cy="85.22" r="35.78" transform="translate(-28.67 52.33) rotate(-27.29)" style="fill:#fff"></circle><path d="M109.84,85.86a7.18,7.18,0,0,1-1.27.09l-3.48.07c-3,0-7.06.06-11.7.07h-.23V83.54c0-5.18,0-9.87.07-13.27,0-1.64,0-3,.07-4a9.8,9.8,0,0,1,.09-1.48,9.8,9.8,0,0,1,.09,1.48c0,1,0,2.38.07,4,0,3.4.07,8.09.07,13.27v2.32l-.23-.23c4.64,0,8.75,0,11.7.08l3.48.07A6.75,6.75,0,0,1,109.84,85.86Z" style="fill:#e0e0e0"></path><path d="M93.5,54.86a9.85,9.85,0,0,1,.23,3,10,10,0,0,1-.23,3,10,10,0,0,1-.23-3A9.85,9.85,0,0,1,93.5,54.86Z" style="fill:#e0e0e0"></path><path d="M109.8,59.68a9.43,9.43,0,0,1-1.93,2.26,9.43,9.43,0,0,1-2.26,1.93,9.79,9.79,0,0,1,1.93-2.25A9.85,9.85,0,0,1,109.8,59.68Z" style="fill:#e0e0e0"></path><path d="M119.34,70.1a13,13,0,0,1-2.47,1.64,11.72,11.72,0,0,1-2.6,1.43,8,8,0,0,1,2.36-1.82A7.91,7.91,0,0,1,119.34,70.1Z" style="fill:#e0e0e0"></path><path d="M124.92,85.55a18.22,18.22,0,0,1-4.1.23,18.16,18.16,0,0,1-4.09-.23,18.16,18.16,0,0,1,4.09-.23A18.22,18.22,0,0,1,124.92,85.55Z" style="fill:#e0e0e0"></path><path d="M68.09,85a15.94,15.94,0,0,1-3.87.24A15.94,15.94,0,0,1,60.35,85a16.92,16.92,0,0,1,3.87-.23A16.92,16.92,0,0,1,68.09,85Z" style="fill:#e0e0e0"></path><path d="M72.11,96.51a17.2,17.2,0,0,1-2.93,2.65,17.6,17.6,0,0,1-3.21,2.3,16.68,16.68,0,0,1,2.92-2.66A16.59,16.59,0,0,1,72.11,96.51Z" style="fill:#e0e0e0"></path><path d="M82,105.41a25.91,25.91,0,0,1-2,3.45,26.12,26.12,0,0,1-2.11,3.37,13,13,0,0,1,1.72-3.61A13.2,13.2,0,0,1,82,105.41Z" style="fill:#e0e0e0"></path><path d="M93.5,116.88a18.22,18.22,0,0,1-.23-4.1,18.16,18.16,0,0,1,.23-4.09,18.16,18.16,0,0,1,.23,4.09A18.22,18.22,0,0,1,93.5,116.88Z" style="fill:#e0e0e0"></path><path d="M111.17,111.42a17.55,17.55,0,0,1-6.14-5.35,40.35,40.35,0,0,1,3.06,2.69A40.2,40.2,0,0,1,111.17,111.42Z" style="fill:#e0e0e0"></path><path d="M119.46,102.49a14.44,14.44,0,0,1-2.72-2.38,14.44,14.44,0,0,1-2.38-2.72,14.42,14.42,0,0,1,2.71,2.39A14.42,14.42,0,0,1,119.46,102.49Z" style="fill:#e0e0e0"></path><path d="M71.73,74a10.87,10.87,0,0,1-2.39-2.06,10.93,10.93,0,0,1-2.07-2.4,11.1,11.1,0,0,1,2.39,2.07A10.76,10.76,0,0,1,71.73,74Z" style="fill:#e0e0e0"></path><path d="M82,63.2a10.26,10.26,0,0,1-2.35-2,10.69,10.69,0,0,1-2-2.35,10.72,10.72,0,0,1,2.36,2A10.31,10.31,0,0,1,82,63.2Z" style="fill:#e0e0e0"></path><path d="M61.78,85.24A35.58,35.58,0,0,1,95.24,49.73c-.7,0-1.4-.06-2.12-.06a35.57,35.57,0,0,0,0,71.14c.72,0,1.42,0,2.12-.07A35.58,35.58,0,0,1,61.78,85.24Z" style="fill:#ebebeb"></path><path d="M57.74,82.88s0,.19,0,.58v1.7c0,.37,0,.79,0,1.25s.08,1,.12,1.51.11,1.13.16,1.75.23,1.28.34,2a34.19,34.19,0,0,0,3.33,9.74,35.36,35.36,0,0,0,8.38,10.68l1.46,1.25c.52.39,1.07.75,1.61,1.14s1.07.79,1.67,1.11l1.78,1,.91.51,1,.42,2,.86c.66.27,1.36.46,2,.7a19.15,19.15,0,0,0,2.12.63,34.07,34.07,0,0,0,4.46.81c.77.08,1.53.21,2.31.24l2.36,0c.4,0,.8,0,1.19,0l1.2-.11c.8-.07,1.61-.11,2.42-.23a37.5,37.5,0,0,0,4.82-1.07l1.21-.36c.2-.06.41-.11.6-.18l.59-.24,2.37-1c.78-.35,1.53-.78,2.3-1.17.38-.21.78-.38,1.14-.62l1.1-.72a38.65,38.65,0,0,0,4.25-3.16l1.94-1.87.48-.47.45-.51.88-1,.89-1,.79-1.12.79-1.13.4-.57c.12-.2.23-.4.34-.6.46-.81.92-1.61,1.37-2.43l1.14-2.56A38.26,38.26,0,0,0,129,87.56a37.9,37.9,0,0,0-1.1-11.33c-.26-.9-.52-1.8-.79-2.69s-.69-1.73-1-2.59l-.26-.64-.32-.61-.64-1.23-.63-1.21-.75-1.15L122.68,65l-.37-.57-.43-.53-1.67-2.1a40,40,0,0,0-3.8-3.69l-1-.85c-.33-.29-.7-.51-1-.77-.71-.49-1.4-1-2.13-1.47L110,53.73l-.55-.31-.58-.26-1.15-.51a38.63,38.63,0,0,0-4.64-1.7c-.79-.21-1.58-.36-2.37-.54l-1.17-.26c-.39-.08-.79-.1-1.18-.16L96,49.72c-.77-.07-1.55,0-2.32-.07a33.94,33.94,0,0,0-4.53.23,17.67,17.67,0,0,0-2.18.35c-.71.14-1.43.24-2.13.42l-2,.6-1,.29-1,.39-1.91.76c-.63.24-1.2.6-1.8.89s-1.17.6-1.74.92l-1.61,1A35.66,35.66,0,0,0,64.07,65a34.12,34.12,0,0,0-4.57,9.22,18.7,18.7,0,0,0-.59,1.91l-.39,1.72c-.11.54-.24,1-.32,1.48s-.11.87-.16,1.24c-.09.74-.16,1.3-.21,1.69s-.09.58-.09.58,0-.2,0-.58.1-1,.17-1.7c0-.37.09-.79.14-1.25s.2-.94.31-1.48.23-1.11.37-1.73a16.64,16.64,0,0,1,.58-1.93,33.63,33.63,0,0,1,4.53-9.3,35.49,35.49,0,0,1,9.74-9.6l1.62-1.06c.56-.33,1.16-.62,1.75-.93a19.05,19.05,0,0,1,1.81-.9l1.92-.78,1-.39,1-.3,2.06-.61c.7-.18,1.43-.28,2.15-.43a17.86,17.86,0,0,1,2.21-.36,34.36,34.36,0,0,1,4.57-.24c.77,0,1.56,0,2.34.06l2.37.28c.39.05.8.07,1.19.15l1.19.26c.79.18,1.59.33,2.38.55a37.87,37.87,0,0,1,4.7,1.71l1.16.51.59.26.55.32,2.25,1.27c.73.46,1.43,1,2.15,1.47.35.26.73.49,1.06.78l1,.86a39.67,39.67,0,0,1,3.85,3.72l1.69,2.13.43.54.38.57.75,1.15.75,1.16.65,1.23.64,1.24.33.62.26.64,1.06,2.62c.26.9.53,1.81.8,2.72a38.71,38.71,0,0,1,1.11,11.45,38.5,38.5,0,0,1-2.6,11.21l-1.15,2.59-1.39,2.45-.35.61-.4.57-.8,1.14-.8,1.14-.9,1-.9,1-.44.52-.5.48-2,1.88a39.6,39.6,0,0,1-4.31,3.19l-1.11.72c-.36.24-.77.42-1.15.63-.78.39-1.54.82-2.33,1.18l-2.39,1-.59.24-.62.18-1.21.36a38.8,38.8,0,0,1-4.88,1.08c-.82.11-1.64.15-2.44.23l-1.21.1c-.4,0-.81,0-1.21,0l-2.38,0c-.78,0-1.56-.17-2.33-.25a33.09,33.09,0,0,1-4.5-.83,19.53,19.53,0,0,1-2.14-.64c-.69-.24-1.4-.44-2.07-.71l-2-.88-1-.43-.91-.51-1.8-1c-.6-.32-1.12-.76-1.68-1.13s-1.09-.76-1.61-1.15l-1.47-1.26a35.75,35.75,0,0,1-8.4-10.8,33.75,33.75,0,0,1-3.28-9.81,17.42,17.42,0,0,1-.32-2c0-.63-.1-1.22-.14-1.76s-.1-1.05-.11-1.52,0-.88,0-1.25c0-.74,0-1.31,0-1.71S57.74,82.88,57.74,82.88Z" style="fill:#e0e0e0"></path><path d="M725.27,103.88a1.49,1.49,0,0,1,0-.19v-.54q0-.74,0-2.07c0-1.81,0-4.42-.07-7.7l.12.12-39.7.08.2-.2h0v10.48l-.2-.2,28.29.09,8.35.06,2.26,0,.59,0h0l-.57,0-2.21,0L714,104l-28.43.09h-.2V93.4h0l.2-.21,39.7.08h.12v.13l-.06,7.78q0,1.31,0,2l0,.51A1,1,0,0,1,725.27,103.88Z" style="fill:#e0e0e0"></path><path d="M730.65,93.38s0-.08,0-.2,0-.34,0-.56c0-.52,0-1.22,0-2.11,0-1.84-.05-4.44-.08-7.64l.14.15-23.85.06.2-.2h0v5.39c0,1.76,0,3.47,0,5.1l-.19-.2,17.06.1,5,0,1.34,0,.48,0a3.23,3.23,0,0,1-.43,0l-1.3,0-4.93,0-17.19.09h-.19v-.19c0-1.63,0-3.34,0-5.1V82.89h0c-.05,0,.38-.39.2-.21l23.85.06h.15v.14c0,3.24-.06,5.87-.08,7.73,0,.88,0,1.57,0,2.08A5.87,5.87,0,0,1,730.65,93.38Z" style="fill:#e0e0e0"></path><path d="M701,312s0-.06,0-.19,0-.31,0-.54c0-.49,0-1.18,0-2.06,0-1.82,0-4.42-.07-7.71l.12.12-39.69.08.2-.2h0v2.67c0,.89,0,1.77,0,2.65V312l-.2-.19,28.3.09,8.35.05,2.25,0h.8s-.05,0-.18,0h-.57l-2.21,0-8.31.05-28.43.09h-.19V312c0-1.68,0-3.41,0-5.16v-5.32h0l.21-.2,39.69.08h.13v.12c0,3.32-.05,5.95-.07,7.78q0,1.31,0,2c0,.21,0,.38,0,.52S701,312,701,312Z" style="fill:#e0e0e0"></path><path d="M706.37,301.5a.8.8,0,0,1,0-.2c0-.15,0-.33,0-.55,0-.52,0-1.22,0-2.11,0-1.84,0-4.44-.08-7.64l.15.14-23.85.06c-.19.18.24-.25.2-.2h0v2.72c0,.9,0,1.79,0,2.67v5.09l-.2-.19,17.07.09,5,.05,1.34,0,.48,0a2.23,2.23,0,0,1-.44,0l-1.3,0-4.92.05-17.2.09h-.19v-.2c0-1.63,0-3.33,0-5.09V291h0l.21-.2,23.85.05h.14V291c0,3.23-.06,5.87-.08,7.73q0,1.31,0,2.07A5.87,5.87,0,0,1,706.37,301.5Z" style="fill:#e0e0e0"></path><rect x="582.93" y="57.24" width="108.46" height="171.41" style="fill:#e0e0e0"></rect><rect x="585.85" y="60.46" width="102.25" height="165.37" style="fill:#f5f5f5"></rect><rect x="636.98" y="70.09" width="40.77" height="63.27" style="fill:#fff"></rect><path d="M659.53,75.68A1.52,1.52,0,1,1,658,74.16,1.52,1.52,0,0,1,659.53,75.68Z" style="fill:#e0e0e0"></path><rect x="595.89" y="150.96" width="40.77" height="63.27" style="fill:#fff"></rect><path d="M618.44,156.56a1.52,1.52,0,1,1-1.52-1.53A1.52,1.52,0,0,1,618.44,156.56Z" style="fill:#e0e0e0"></path><rect x="595.34" y="70.09" width="34.82" height="49.4" style="fill:#fff"></rect><path d="M614,74.58a1.27,1.27,0,1,1-1.26-1.27A1.26,1.26,0,0,1,614,74.58Z" style="fill:#e0e0e0"></path><rect x="642.9" y="153.87" width="37.48" height="20.76" transform="translate(-14.24 75.2) rotate(-6.44)" style="fill:#fff"></rect><path d="M662.2,157.85a1.29,1.29,0,1,1-1.29-1.29A1.28,1.28,0,0,1,662.2,157.85Z" style="fill:#e0e0e0"></path><path d="M631.22,165.39c0,.17-6.4.31-14.3.31s-14.3-.14-14.3-.31,6.4-.3,14.3-.3S631.22,165.23,631.22,165.39Z" style="fill:#e0e0e0"></path><path d="M631.22,169.92c0,.17-6.4.3-14.3.3s-14.3-.13-14.3-.3,6.4-.3,14.3-.3S631.22,169.75,631.22,169.92Z" style="fill:#e0e0e0"></path><path d="M631.22,174.45c0,.16-6.4.3-14.3.3s-14.3-.14-14.3-.3,6.4-.31,14.3-.31S631.22,174.28,631.22,174.45Z" style="fill:#e0e0e0"></path><path d="M631.22,179c0,.17-6.4.31-14.3.31s-14.3-.14-14.3-.31,6.4-.3,14.3-.3S631.22,178.8,631.22,179Z" style="fill:#e0e0e0"></path><path d="M631.22,183.5c0,.17-6.4.3-14.3.3s-14.3-.13-14.3-.3,6.4-.3,14.3-.3S631.22,183.33,631.22,183.5Z" style="fill:#e0e0e0"></path><path d="M631.22,188c0,.16-6.4.3-14.3.3s-14.3-.14-14.3-.3,6.4-.31,14.3-.31S631.22,187.86,631.22,188Z" style="fill:#e0e0e0"></path><path d="M631.22,192.55c0,.17-6.4.31-14.3.31s-14.3-.14-14.3-.31,6.4-.3,14.3-.3S631.22,192.38,631.22,192.55Z" style="fill:#e0e0e0"></path><path d="M675.6,160.54c0,.17-6.3,1.2-14.11,2.3s-14.18,1.87-14.21,1.7,6.3-1.19,14.12-2.3S675.58,160.38,675.6,160.54Z" style="fill:#e0e0e0"></path><path d="M676.17,163.38c0,.16-6.3,1.19-14.12,2.29s-14.17,1.87-14.2,1.7,6.3-1.19,14.12-2.3S676.15,163.21,676.17,163.38Z" style="fill:#e0e0e0"></path><path d="M676.69,166c0,.17-6.3,1.2-14.12,2.3s-14.18,1.86-14.2,1.7,6.3-1.2,14.12-2.3S676.66,165.82,676.69,166Z" style="fill:#e0e0e0"></path><path d="M674.17,83.32c0,.17-7.24.31-16.16.31s-16.15-.14-16.15-.31S649.09,83,658,83,674.17,83.16,674.17,83.32Z" style="fill:#e0e0e0"></path><path d="M674.17,86c0,.16-7.24.3-16.16.3s-16.15-.14-16.15-.3,7.23-.31,16.15-.31S674.17,85.85,674.17,86Z" style="fill:#e0e0e0"></path><path d="M674.17,88.71c0,.16-7.24.3-16.16.3s-16.15-.14-16.15-.3,7.23-.31,16.15-.31S674.17,88.54,674.17,88.71Z" style="fill:#e0e0e0"></path><path d="M674.17,91.4c0,.17-7.24.3-16.16.3s-16.15-.13-16.15-.3,7.23-.31,16.15-.31S674.17,91.23,674.17,91.4Z" style="fill:#e0e0e0"></path><path d="M674.17,94.09c0,.17-7.24.3-16.16.3s-16.15-.13-16.15-.3,7.23-.3,16.15-.3S674.17,93.92,674.17,94.09Z" style="fill:#e0e0e0"></path><path d="M674.17,96.78c0,.17-7.24.3-16.16.3s-16.15-.13-16.15-.3,7.23-.3,16.15-.3S674.17,96.61,674.17,96.78Z" style="fill:#e0e0e0"></path><path d="M674.17,99.47c0,.17-7.24.31-16.16.31s-16.15-.14-16.15-.31,7.23-.3,16.15-.3S674.17,99.3,674.17,99.47Z" style="fill:#e0e0e0"></path><path d="M674.17,107.46c0,.17-7.24.3-16.16.3s-16.15-.13-16.15-.3,7.23-.3,16.15-.3S674.17,107.29,674.17,107.46Z" style="fill:#e0e0e0"></path><path d="M674.39,110.3c0,.17-7.23.31-16.15.31s-16.15-.14-16.15-.31,7.23-.3,16.15-.3S674.39,110.13,674.39,110.3Z" style="fill:#e0e0e0"></path><path d="M674.62,113.14c0,.17-7.23.31-16.15.31s-16.16-.14-16.16-.31,7.23-.3,16.16-.3S674.62,113,674.62,113.14Z" style="fill:#e0e0e0"></path><path d="M674.85,116c0,.17-7.24.3-16.16.3s-16.15-.13-16.15-.3,7.23-.31,16.15-.31S674.85,115.82,674.85,116Z" style="fill:#e0e0e0"></path><path d="M675.07,118.83c0,.17-7.23.3-16.15.3s-16.15-.13-16.15-.3,7.23-.3,16.15-.3S675.07,118.66,675.07,118.83Z" style="fill:#e0e0e0"></path><path d="M675.3,121.67c0,.17-7.23.31-16.15.31s-16.16-.14-16.16-.31,7.24-.3,16.16-.3S675.3,121.51,675.3,121.67Z" style="fill:#e0e0e0"></path><rect x="76.83" y="179.77" width="39.7" height="10.5" style="fill:#f5f5f5"></rect><path d="M99.75,201.33s0-.06,0-.19v-.54c0-.49,0-1.18,0-2.06,0-1.82,0-4.42-.07-7.71l.13.12-39.7.08.2-.2h0v5.32c0,1.75,0,3.47,0,5.16l-.19-.19,28.29.09,8.35.05,2.26,0h.8l-.19,0H99l-2.22,0-8.3.05-28.43.09h-.2v-5.36c0-.88,0-1.76,0-2.65v-2.67h0l.21-.2,39.7.08h.12v.12l-.07,7.78q0,1.3,0,2c0,.21,0,.38,0,.52A.79.79,0,0,1,99.75,201.33Z" style="fill:#e0e0e0"></path><path d="M228.14,45.34s0-.07,0-.19,0-.32,0-.54q0-.75,0-2.07c0-1.81,0-4.42-.07-7.71l.12.13L188.45,35c.09-.09-.21.2.2-.21h0v5.32c0,1.75,0,3.48,0,5.17l-.2-.2,28.3.09,8.35.05,2.25,0h.6a.8.8,0,0,1,.2,0h-.75l-2.21,0-8.31,0-28.43.09h-.19v-.19c0-1.69,0-3.42,0-5.17V34.85h0l.21-.2,39.69.08h.13v.12c0,3.32-.05,6-.07,7.78q0,1.3,0,2c0,.21,0,.38,0,.52S228.15,45.34,228.14,45.34Z" style="fill:#e0e0e0"></path><path d="M233.53,34.83a.8.8,0,0,1,0-.2v-.55c0-.52,0-1.22,0-2.11,0-1.84-.05-4.44-.08-7.64l.15.15-23.85.05c-.19.18.24-.24.2-.2h0v2.72c0,.9,0,1.79,0,2.67v5.09l-.2-.19,17.07.09,5,.06,1.34,0,.48,0a2.23,2.23,0,0,1-.44,0l-1.3,0-4.92,0-17.2.1h-.19v-.2c0-1.63,0-3.33,0-5.09V24.35h0l.21-.2,23.85.06h.14v.14c0,3.24-.06,5.87-.08,7.73q0,1.3,0,2.07A5.87,5.87,0,0,1,233.53,34.83Z" style="fill:#e0e0e0"></path><path d="M104.16,288.78a.76.76,0,0,1,0-.19c0-.14,0-.32,0-.54q0-.74,0-2.07l-.07-7.7.13.12-39.7.08c.09-.09-.21.2.2-.2h0v5.33c0,1.76,0,3.48,0,5.17l-.19-.2,28.29.09,8.35.06,2.26,0,.59,0h0l-.56,0-2.22,0-8.3.06L64.46,289h-.2v-5.37c0-.87,0-1.76,0-2.65v-2.68h0l.21-.21,39.7.08h.12v.13c0,3.31,0,6-.07,7.78q0,1.31,0,2c0,.21,0,.38,0,.51S104.16,288.78,104.16,288.78Z" style="fill:#e0e0e0"></path><path d="M109.54,278.28a1,1,0,0,1,0-.2v-.56c0-.52,0-1.22,0-2.11,0-1.84,0-4.44-.08-7.64l.15.15L85.69,268l.2-.2h0v5.39c0,1.76,0,3.46,0,5.1l-.19-.2,17.06.1,5,.05,1.34,0,.48,0-.43,0-1.3,0-4.93.06-17.19.09h-.2v-5.29c0-.87,0-1.77,0-2.67v-2.72h0l.21-.21,23.85.06h.15v.14c0,3.24-.06,5.87-.08,7.73,0,.88,0,1.57,0,2.08A5.87,5.87,0,0,1,109.54,278.28Z" style="fill:#e0e0e0"></path></g><g id="freepik--Floor--inject-74"><path d="M722.58,475.43c0,.14-155.63.26-347.56.26s-347.6-.12-347.6-.26,155.6-.26,347.6-.26S722.58,475.28,722.58,475.43Z" style="fill:#263238"></path></g><g id="freepik--Plant--inject-74"><path d="M123.63,303.3c-9,4.65-15.85,12.65-20.8,21.46s-8.13,18.47-11.28,28.06L88.78,402.3c10.44-17.75,18.81-38.62,21.08-59.09l-7-.62c4.66-.71,8.57-4.08,11-8.08s3.77-8.62,5-13.16l-8.47,1.26A31.46,31.46,0,0,0,123.63,303.3Z" style="fill:#455a64"></path><g style="opacity:0.30000000000000004"><path d="M123.63,303.3c-9,4.65-15.85,12.65-20.8,21.46s-8.13,18.47-11.28,28.06L88.78,402.3c10.44-17.75,18.81-38.62,21.08-59.09l-7-.62c4.66-.71,8.57-4.08,11-8.08s3.77-8.62,5-13.16l-8.47,1.26A31.46,31.46,0,0,0,123.63,303.3Z"></path></g><path d="M87.24,413.9s-22.65-27.11-22.39-53H74s-9.94-6.54-9.15-10.2,1-17.52,1-17.52l8.37,2.1s-6.27-3.14-7.06-8.11,1.83-28,1.83-28,10.2,10.72,13.33,21.7,11.38,23.79,9,57.25S87.24,413.9,87.24,413.9Z" style="fill:#455a64"></path><path d="M98.72,416.46s24.54-16.35,30-37.22l-7.35-2s9.42-3.08,9.59-6.19,3-14.31,3-14.31l-7.19-.15s5.73-1.15,7.45-5,4.65-22.89,4.65-22.89-10.54,6.38-15.47,14.52S109,359.89,103.66,387.33,98.72,416.46,98.72,416.46Z" style="fill:#455a64"></path><path d="M75.22,322.85s0,.09.09.28l.2.83.72,3.22c.32,1.39.69,3.1,1.09,5.1s.88,4.26,1.34,6.78c1,5,2,11,3,17.72s2.05,14.06,3,21.82,1.57,15.18,2.1,21.93.87,12.84,1.07,18c.12,2.56.18,4.87.24,6.91s.1,3.78.11,5.21,0,2.51,0,3.3v.85a1.71,1.71,0,0,1,0,.3,1.16,1.16,0,0,1,0-.3c0-.22,0-.5,0-.85,0-.79-.07-1.89-.12-3.29s-.11-3.18-.2-5.21-.17-4.35-.32-6.9c-.24-5.11-.65-11.19-1.18-17.93S85,386.42,84.15,378.66s-1.91-15.12-2.91-21.81-2-12.7-2.94-17.73c-.44-2.52-.89-4.79-1.27-6.79s-.71-3.71-1-5.11-.48-2.46-.64-3.24l-.15-.84A1.06,1.06,0,0,1,75.22,322.85Z" style="fill:#263238"></path><path d="M84.1,430.5S63.37,407,56.93,392.76l4.86-2.07c-3.52.58-7.13-.93-9.86-3.23a37.37,37.37,0,0,1-6.7-8.3l6.4-1.09a23.79,23.79,0,0,1-14-10.83c7.56,1.24,14.39,5.39,20,10.58a99.81,99.81,0,0,1,12.13,14.05,47.83,47.83,0,0,1,4.71,7.75C78,406.82,84.11,421.86,84.1,430.5Z" style="fill:#455a64"></path><path d="M129,342.42a.86.86,0,0,1-.09.24l-.32.68c-.3.64-.72,1.51-1.25,2.62-1.11,2.26-2.68,5.54-4.58,9.62C119,363.73,114,375.11,109,387.91s-8.89,24.61-11.55,33.2c-1.34,4.3-2.39,7.78-3.09,10.2-.35,1.18-.63,2.1-.83,2.78l-.23.72a1.13,1.13,0,0,1-.1.24,1,1,0,0,1,0-.26l.18-.73c.17-.68.42-1.62.73-2.8.65-2.44,1.64-5.94,2.93-10.26,2.58-8.62,6.48-20.45,11.43-33.27s10-24.19,13.93-32.31c2-4.06,3.57-7.32,4.73-9.55.57-1.09,1-1.95,1.34-2.57l.36-.67C129,342.49,129,342.41,129,342.42Z" style="fill:#263238"></path><path d="M85.85,440.58a13.77,13.77,0,0,1-.32-1.68c-.16-1.08-.43-2.65-.82-4.57a96,96,0,0,0-4.2-14.7A95.55,95.55,0,0,0,74,405.82c-1-1.7-1.81-3.05-2.41-4a13,13,0,0,1-.87-1.47,11.06,11.06,0,0,1,1,1.36c.65.89,1.53,2.22,2.55,3.9A83.52,83.52,0,0,1,81,419.45a83.84,83.84,0,0,1,4.08,14.81c.34,1.94.56,3.52.66,4.61A9.07,9.07,0,0,1,85.85,440.58Z" style="fill:#263238"></path><rect x="67.84" y="435.05" width="45.37" height="9.25" style="fill:#407BFF"></rect><polygon points="72.16 444.3 77.07 475.43 104.48 475.43 109.06 444.3 72.16 444.3" style="fill:#407BFF"></polygon><path d="M110.42,444.3c0,.14-8.58.26-19.16.26s-19.17-.12-19.17-.26,8.58-.26,19.17-.26S110.42,444.16,110.42,444.3Z" style="fill:#263238"></path></g><g id="freepik--Shelves--inject-74"><rect x="440.71" y="222.28" width="81.67" height="62.99" transform="translate(963.09 507.54) rotate(180)" style="fill:#407BFF"></rect><rect x="447.64" y="270.93" width="6.26" height="7.08" transform="translate(901.53 548.94) rotate(180)" style="fill:#fafafa"></rect><rect x="488.19" y="222.44" width="9.28" height="13.44" style="fill:#ebebeb"></rect><rect x="488.19" y="271.64" width="9.28" height="13.44" style="fill:#ebebeb"></rect><path d="M461.1,285.7c-.15,0-.27-13.85-.27-30.94s.12-30.94.27-30.94.26,13.85.26,30.94S461.24,285.7,461.1,285.7Z" style="fill:#263238"></path><rect x="375.72" y="49.95" width="4.01" height="214.6" style="fill:#263238"></rect><rect x="214.79" y="49.95" width="4.01" height="220.93" style="fill:#263238"></rect><rect x="531.29" y="49.95" width="4.01" height="229.27" style="fill:#263238"></rect><rect x="371.87" y="-106.07" width="4.01" height="316.05" transform="translate(321.92 425.83) rotate(-90)" style="fill:#263238"></rect><rect x="373.71" y="-30.17" width="4.01" height="316.05" transform="translate(247.86 503.57) rotate(-90)" style="fill:#263238"></rect><rect x="371.87" y="45.73" width="4.01" height="316.05" transform="translate(170.12 577.63) rotate(-90)" style="fill:#263238"></rect><rect x="219.39" y="86.07" width="5.13" height="39.78" style="fill:#407BFF"></rect><rect x="226.76" y="86.07" width="5.13" height="39.78" transform="translate(-11.6 29.97) rotate(-7.29)" style="fill:#407BFF"></rect><rect x="252.33" y="104.03" width="3.86" height="39.78" transform="translate(130.33 378.18) rotate(-90)" style="fill:#407BFF"></rect><rect x="256.34" y="96.22" width="3.86" height="39.78" transform="translate(142.16 374.39) rotate(-90)" style="fill:#407BFF"></rect><rect x="260.2" y="92.27" width="3.86" height="39.78" transform="translate(149.97 374.29) rotate(-90)" style="fill:#e0e0e0"></rect><rect x="260.2" y="92.3" width="3.86" height="55.53" transform="translate(142.06 382.2) rotate(-90)" style="fill:#455a64"></rect><rect x="293.05" y="138.76" width="81.67" height="62.99" transform="translate(667.78 340.51) rotate(180)" style="fill:#455a64"></rect><rect x="299.98" y="187.41" width="6.26" height="7.08" transform="translate(606.22 381.91) rotate(180)" style="fill:#fafafa"></rect><rect x="340.53" y="138.92" width="9.28" height="13.44" style="fill:#ebebeb"></rect><rect x="340.53" y="188.12" width="9.28" height="13.44" style="fill:#ebebeb"></rect><path d="M313.44,202.18c-.15,0-.26-13.85-.26-30.94s.11-30.94.26-30.94.26,13.85.26,30.94S313.58,202.18,313.44,202.18Z" style="fill:#263238"></path><rect x="383.68" y="62.69" width="81.67" height="62.99" transform="translate(849.04 188.37) rotate(180)" style="fill:#455a64"></rect><rect x="390.61" y="111.34" width="6.26" height="7.08" transform="translate(787.48 229.77) rotate(180)" style="fill:#fafafa"></rect><rect x="431.16" y="62.85" width="9.28" height="13.44" style="fill:#ebebeb"></rect><rect x="431.16" y="112.05" width="9.28" height="13.44" style="fill:#ebebeb"></rect><path d="M404.07,126.11c-.14,0-.26-13.85-.26-30.93s.12-30.95.26-30.95.26,13.85.26,31S404.21,126.11,404.07,126.11Z" style="fill:#263238"></path><rect x="468.84" y="62.69" width="58.96" height="62.99" transform="translate(996.64 188.37) rotate(180)" style="fill:#407BFF"></rect><rect x="475.85" y="115.45" width="6.26" height="7.08" transform="translate(957.97 237.98) rotate(180)" style="fill:#fafafa"></rect><rect x="501.63" y="62.85" width="9.28" height="13.44" style="fill:#ebebeb"></rect><rect x="501.63" y="112.05" width="9.28" height="13.44" style="fill:#ebebeb"></rect><path d="M488.9,125.9c-.14,0-.26-13.86-.26-30.94S488.76,64,488.9,64s.26,13.85.26,30.94S489,125.9,488.9,125.9Z" style="fill:#263238"></path><rect x="386.24" y="165.08" width="47.62" height="36.73" transform="translate(820.1 366.88) rotate(180)" style="fill:#407BFF"></rect><rect x="390.27" y="193.45" width="3.65" height="4.13" transform="translate(784.2 391.02) rotate(180)" style="fill:#fafafa"></rect><rect x="413.92" y="165.17" width="5.41" height="7.84" style="fill:#ebebeb"></rect><rect x="413.92" y="193.86" width="5.41" height="7.84" style="fill:#ebebeb"></rect><path d="M398.12,202.06c-.14,0-.26-8.08-.26-18S398,166,398.12,166s.26,8.08.26,18.05S398.27,202.06,398.12,202.06Z" style="fill:#263238"></path><rect x="479.34" y="165.08" width="47.62" height="36.73" transform="translate(1006.3 366.88) rotate(180)" style="fill:#407BFF"></rect><rect x="483.38" y="193.45" width="3.65" height="4.13" transform="translate(970.41 391.02) rotate(180)" style="fill:#fafafa"></rect><rect x="507.02" y="165.17" width="5.41" height="7.84" style="fill:#ebebeb"></rect><rect x="507.02" y="193.86" width="5.41" height="7.84" style="fill:#ebebeb"></rect><path d="M491.23,202.06c-.15,0-.26-8.08-.26-18s.11-18.05.26-18.05.26,8.08.26,18.05S491.37,202.06,491.23,202.06Z" style="fill:#263238"></path><rect x="289.9" y="102.71" width="85.82" height="22.77" style="fill:#407BFF"></rect><path d="M312.74,125.85c-.14,0-.26-5.14-.26-11.48s.12-11.48.26-11.48.26,5.14.26,11.48S312.88,125.85,312.74,125.85Z" style="fill:#263238"></path><rect x="340.11" y="102.71" width="8.39" height="11.2" style="fill:#ebebeb"></rect><rect x="219.71" y="183.58" width="69.1" height="18.33" style="fill:#455a64"></rect><path d="M238.1,202.37a83.41,83.41,0,0,1-.26-9.24,83.52,83.52,0,0,1,.26-9.25,83.52,83.52,0,0,1,.26,9.25A83.41,83.41,0,0,1,238.1,202.37Z" style="fill:#263238"></path><rect x="260.14" y="183.73" width="6.75" height="9.02" style="fill:#ebebeb"></rect><rect x="226.9" y="167.45" width="60.94" height="16.17" style="fill:#407BFF"></rect><path d="M243.12,183.88a62.72,62.72,0,0,1-.26-8.15,62.72,62.72,0,0,1,.26-8.15,64.92,64.92,0,0,1,.26,8.15A64.92,64.92,0,0,1,243.12,183.88Z" style="fill:#263238"></path><rect x="262.55" y="167.45" width="5.95" height="7.95" style="fill:#ebebeb"></rect><rect x="388.86" y="148.95" width="60.94" height="16.17" style="fill:#455a64"></rect><path d="M405.08,165.38a64.92,64.92,0,0,1-.26-8.15,64.92,64.92,0,0,1,.26-8.15,62.72,62.72,0,0,1,.26,8.15A62.72,62.72,0,0,1,405.08,165.38Z" style="fill:#263238"></path><rect x="424.52" y="148.95" width="5.95" height="7.95" style="fill:#ebebeb"></rect><rect x="248.98" y="83.57" width="21.82" height="31.33" transform="translate(359.11 -160.65) rotate(90)" style="fill:#407BFF"></rect><path d="M259.88,110.08c-.14,0-.26-4.86-.26-10.85s.12-10.85.26-10.85.26,4.86.26,10.85S260,110.08,259.88,110.08Z" style="fill:#263238"></path><path d="M264.79,88.32c.11,0,0,7,0,7h7.84v-7Z" style="fill:#ebebeb"></path><rect x="445.47" y="175.12" width="21.82" height="31.33" transform="translate(647.16 -265.59) rotate(90)" style="fill:#407BFF"></rect><path d="M456.38,201.64c-.15,0-.26-4.86-.26-10.85s.11-10.86.26-10.86.26,4.86.26,10.86S456.52,201.64,456.38,201.64Z" style="fill:#263238"></path><path d="M461.28,179.88c.11,0,0,7,0,7h7.84v-7Z" style="fill:#ebebeb"></path><rect x="318.92" y="65.44" width="47.85" height="36.91" transform="translate(685.68 167.8) rotate(180)" style="fill:#455a64"></rect><rect x="322.97" y="93.95" width="3.67" height="4.15" transform="translate(649.62 192.05) rotate(180)" style="fill:#fafafa"></rect><rect x="346.73" y="65.54" width="5.44" height="7.87" style="fill:#ebebeb"></rect><rect x="346.73" y="94.37" width="5.44" height="7.87" style="fill:#ebebeb"></rect><path d="M330.86,102.6c-.14,0-.26-8.11-.26-18.12s.12-18.13.26-18.13.26,8.11.26,18.13S331,102.6,330.86,102.6Z" style="fill:#263238"></path></g><g id="freepik--speech-bubble--inject-74"><path d="M317.85,116.45c0,5-1.12,8.33-3.76,12.82-.44.75,2.19,8,2.19,8l-7.78-2.71c-3.53,2.63-7.15,3.16-11.9,3.16a21.25,21.25,0,1,1,21.25-21.25Z" style="fill:#fff"></path><path d="M296.6,95.21a1.28,1.28,0,0,0-.37,0l-1.09,0c-.24,0-.5,0-.8,0l-1,.13-1.12.16-1.25.31A20.11,20.11,0,0,0,285,98.52a21.3,21.3,0,0,0-9.83,16.08,20.39,20.39,0,0,0-.06,2.93c0,.5,0,1,.09,1.5s.15,1,.23,1.52a21.59,21.59,0,0,0,2,6,23.07,23.07,0,0,0,3.9,5.37,22.52,22.52,0,0,0,5.61,4,20.54,20.54,0,0,0,6.85,2.1,13.83,13.83,0,0,0,1.82.16,16.32,16.32,0,0,0,1.85,0,21.29,21.29,0,0,0,3.7-.47,21.54,21.54,0,0,0,7.36-3.09l-.23,0,7.5,3,.44.18-.12-.46q-1.14-4.14-2.21-8l0,.2a21.54,21.54,0,0,0,4-9.16,20.16,20.16,0,0,0,.29-4.69,15,15,0,0,0-.22-2.25c-.05-.37-.11-.74-.17-1.1s-.17-.71-.26-1.06a21.49,21.49,0,0,0-8.36-12.2,20.56,20.56,0,0,0-5-2.62l-1.12-.4L302,95.82l-1-.24c-.31-.06-.61-.1-.9-.14-.56-.07-1.06-.17-1.5-.19l-1.1,0h-.9l.23,0,.67.05,1.09.07c.44,0,.93.15,1.49.23a21.32,21.32,0,0,1,17.05,15.81c.08.35.18.69.25,1s.11.71.16,1.07a14.66,14.66,0,0,1,.2,2.22,19,19,0,0,1-.31,4.6,21,21,0,0,1-3.94,8.95l-.07.09,0,.11c.71,2.59,1.44,5.27,2.19,8l.32-.28-7.5-3-.11-.05-.11.07a21.21,21.21,0,0,1-7.2,3,22,22,0,0,1-3.61.46,18,18,0,0,1-1.8,0,11.9,11.9,0,0,1-1.79-.15,19.82,19.82,0,0,1-6.69-2.05,21.82,21.82,0,0,1-5.5-3.93,22.57,22.57,0,0,1-3.83-5.24,21.12,21.12,0,0,1-2-5.84c-.08-.5-.15-1-.23-1.48s-.06-1-.1-1.47a22.94,22.94,0,0,1,0-2.88,21.22,21.22,0,0,1,9.57-15.9,20.73,20.73,0,0,1,6-2.69l1.24-.32,1.1-.19,1-.15c.3,0,.56,0,.8-.06l1.08-.08Z" style="fill:#263238"></path><polygon points="285.43 117.64 288.35 114.71 293.99 119.73 305.06 109.07 307.78 112 293.57 125.37 285.43 117.64" style="fill:#407BFF"></polygon><path d="M293.57,125.4v0l-8.16-7.74v0l2.94-2.94,5.64,5L305.06,109l0,0,2.73,2.94h0Z" style="fill:#263238"></path></g><g id="freepik--character-2--inject-74"><polygon points="415.55 202.44 428.37 212.46 419.5 218.87 410.61 210.65 415.55 202.44" style="fill:#ffbf9d"></polygon><path d="M374.7,207.72s6,6.75,8.45,9.77a5.63,5.63,0,0,0,4.56,2.13,3.23,3.23,0,0,0,2.05-.73,2.26,2.26,0,0,0,.55-1,5.09,5.09,0,0,0-1.18-5L382,205.31Z" style="fill:#263238"></path><path d="M373.66,123.25c4.82.11,9,7.27,8.24,11.3-.35,2-1.23,4.21.35,5.66s4.87,1.31,6.37,2.79a6.14,6.14,0,0,1,1.7,4.38c-.2,2.47.2,5.76,2.17,6.64l-9.78,3.5c-1-1-1.42-2.63-2.43-3.65,1.16,1.07,2.28,4.89-2.95,5.32l-3.26-2.87c-8.9,2.3-18.25,5.15-25.36,1.28" style="fill:#263238"></path><path d="M328.34,144.7c.65-1.85,1.7-3.56,2.14-5.47,1-4.1-1-8.78,1.1-12.45,1.47-2.62,4.52-3.85,7.41-4.69s5.63-1.32,7.81-3.38c1.59-1.52,2.52-3.63,4.11-5.15,2.27-2.16,5.57-2.85,8.7-3a18.78,18.78,0,0,1,9.4,1.7,10.32,10.32,0,0,1,5.67,7.36c.22,1.56,0,3.18.47,4.68s1.77,3,2.54,4.49a8.25,8.25,0,0,1-2.25,9.86l-22.56,28.09c-4.67,1.67-9.75-4.25-13.27-7.74S326.72,149.38,328.34,144.7Z" style="fill:#263238"></path><path d="M374.93,135c-.8-6.49-5.58-14.22-12-13.15l-20,6.31a3.37,3.37,0,0,0-2.85,3.87l4.39,48.41c-.05,0,.22.52.17.54s5.39,13.51,18.54,8.54c2.61-1,3.79-.07,4.15-3.08h0c.57-.23,0,0,0-.36,0-3.68-.32-11.25-.32-11.25h0c-.19-4-.28-5.57-.28-5.53s8.23-1.87,9.32-12.82C376.6,151.06,375.81,142.23,374.93,135Z" style="fill:#ffbf9d"></path><path d="M357.94,145.64a1.41,1.41,0,0,1-1.26,1.49,1.34,1.34,0,0,1-1.51-1.17,1.39,1.39,0,0,1,1.26-1.49A1.34,1.34,0,0,1,357.94,145.64Z" style="fill:#263238"></path><path d="M371.82,144.93a1.39,1.39,0,0,1-1.26,1.48,1.32,1.32,0,0,1-1.5-1.17,1.39,1.39,0,0,1,1.25-1.48A1.33,1.33,0,0,1,371.82,144.93Z" style="fill:#263238"></path><path d="M373.65,140c-.16.25-1.44-.59-3.06-.38s-2.68,1.29-2.89,1.09,0-.53.49-1a3.71,3.71,0,0,1,4.75-.56C373.5,139.48,373.72,139.88,373.65,140Z" style="fill:#263238"></path><path d="M358.81,141.36c-.2.23-1.46-.72-3.2-.67s-3,1-3.19.78.1-.51.65-1a4.16,4.16,0,0,1,2.54-.91,4.2,4.2,0,0,1,2.55.82C358.71,140.85,358.9,141.26,358.81,141.36Z" style="fill:#263238"></path><path d="M364.66,151.67a10.23,10.23,0,0,1,2.41-.58c.38-.06.74-.16.79-.42a1.93,1.93,0,0,0-.33-1.12c-.41-.9-.84-1.85-1.3-2.84-1.81-4.06-3.15-7.4-3-7.47s1.76,3.15,3.58,7.21c.43,1,.85,2,1.25,2.86a2.24,2.24,0,0,1,.29,1.49,1,1,0,0,1-.6.6,2.91,2.91,0,0,1-.64.13A9.27,9.27,0,0,1,364.66,151.67Z" style="fill:#263238"></path><path d="M366.74,169.33a27.66,27.66,0,0,1-14.76-3s4.12,7.73,14.92,6.08Z" style="fill:#ff9a6c"></path><path d="M364.24,155.32a2.69,2.69,0,0,0-2.48-.86,2.47,2.47,0,0,0-1.64,1,1.57,1.57,0,0,0,0,1.79,1.81,1.81,0,0,0,2,.38,5.57,5.57,0,0,0,1.84-1.25,1.5,1.5,0,0,0,.4-.47.5.5,0,0,0,0-.55" style="fill:#407BFF"></path><path d="M360.32,153c.24,0,.34,1.6,1.8,2.67s3.18.79,3.2,1-.36.34-1.09.41a4.12,4.12,0,0,1-2.67-.76,3.57,3.57,0,0,1-1.41-2.24C360.05,153.38,360.21,153,360.32,153Z" style="fill:#263238"></path><path d="M358.75,136.26c-.12.42-1.63.31-3.37.63s-3.14.88-3.39.52c-.12-.16.11-.56.66-1a6,6,0,0,1,5.15-.88C358.46,135.76,358.81,136.07,358.75,136.26Z" style="fill:#263238"></path><path d="M373.18,134.59c-.28.35-1.48.07-2.9.14s-2.6.38-2.9,0c-.13-.16,0-.52.54-.87a4.47,4.47,0,0,1,2.33-.69,4.39,4.39,0,0,1,2.35.54C373.12,134.07,373.31,134.41,373.18,134.59Z" style="fill:#263238"></path><path d="M321.93,142.62c1-1.89-1-4,.62-5.75,1.43-1.59,5.21-1.65,6.56-3.28a3.42,3.42,0,0,0,1.13-2.79c0-1.49.72-7.75,9.85-9l1.27,5.69a18.85,18.85,0,0,1,1.75-.71,100,100,0,0,1,23.07-5.44c.95,1.63,0,3.81-1.49,5s-3.4,1.58-5.18,2.21-3.61,1.61-4.36,3.34-.2,4-.91,5.91c-1.23,3.23-5.78,4.19-7,7.42-.91,2.45.47,5.09.78,7.68a9.52,9.52,0,0,1-3,8c-1.72,1.58-4.65,4.44-4.85,3.86l-24.46-15.29C314.35,146,320.52,145.22,321.93,142.62Z" style="fill:#263238"></path><path d="M327.2,156.26s0-.06-.06-.17a3.11,3.11,0,0,1-.16-.49,4.29,4.29,0,0,1-.09-2,4.88,4.88,0,0,1,1.48-2.71,4.1,4.1,0,0,1,1.69-.94c.67-.19,1.42-.25,2.17-.51a2.81,2.81,0,0,0,1.76-1.68,6.49,6.49,0,0,0,.31-2.65,14,14,0,0,1,0-2.82,3.53,3.53,0,0,1,.45-1.36,3.47,3.47,0,0,1,1-1.05,9.54,9.54,0,0,1,2.93-1,9.61,9.61,0,0,0,3.11-1.15,3.78,3.78,0,0,0,1.18-1.27,5.16,5.16,0,0,0,.58-1.65c.22-1.15.22-2.34.44-3.5a6.72,6.72,0,0,1,4.21-5,11.74,11.74,0,0,1,3.22-.54,7.7,7.7,0,0,0,1.59-.3,3.39,3.39,0,0,0,1.38-.81,7,7,0,0,0,1.35-2.71,6.77,6.77,0,0,1,1.41-2.4,7.1,7.1,0,0,1,4.39-2.25,6.53,6.53,0,0,1,4,.86,7.33,7.33,0,0,1,2.29,2.13,7.06,7.06,0,0,1,.89,1.78c.08.22.1.39.14.5s.05.18.05.18a5.36,5.36,0,0,0-.15-.69,6.71,6.71,0,0,0-.86-1.82,7.36,7.36,0,0,0-2.3-2.18,6.53,6.53,0,0,0-4.08-.91,7.22,7.22,0,0,0-4.5,2.28,6.9,6.9,0,0,0-1.46,2.46,6.74,6.74,0,0,1-1.32,2.63,4.49,4.49,0,0,1-2.84,1,12.24,12.24,0,0,0-3.28.55,7,7,0,0,0-4.35,5.16c-.22,1.19-.22,2.37-.44,3.5a5.34,5.34,0,0,1-.54,1.59,3.64,3.64,0,0,1-1.12,1.19c-1.86,1.21-4.23,1.06-6,2.22a3.4,3.4,0,0,0-1.09,1.11,3.75,3.75,0,0,0-.49,1.43,15.07,15.07,0,0,0,.05,2.86,6.28,6.28,0,0,1-.29,2.58,2.65,2.65,0,0,1-.66,1,2.59,2.59,0,0,1-1,.59c-.73.26-1.48.33-2.16.53a4.15,4.15,0,0,0-1.73,1,4.93,4.93,0,0,0-1.48,2.78,4.31,4.31,0,0,0,.12,2,3.62,3.62,0,0,0,.19.49Z" style="fill:#455a64"></path><path d="M312.23,212.5c-.15,1.26-10.24,32.54-8,42.59,1,4.28,13.41,14.31,13.41,14.31l4,2.69c.9-4.17,2.61-7.24,2.44-10.64,0,0-.76-.25-2-5.14a21.72,21.72,0,0,0-3.79-8l5.77-30.45Z" style="fill:#ffbf9d"></path><path d="M331.38,181.53l12.22-4.69h0a12.91,12.91,0,0,0,11.55,7.25,13.82,13.82,0,0,0,12.16-7.53l.81.28L382.78,179l3.68,22.34-4,49.61,3.09,5.85,1.11,6.22-56.87-2.42-.66-3.58a5.65,5.65,0,0,1,.67-3.84L331,251l-5.78-67.13Z" style="fill:#e0e0e0"></path><path d="M326.38,184.19l-1.13-.41s-7.74,3.82-11.79,17.3S307,223.39,307,223.39l19.08,4.18,4.64-23.83Z" style="fill:#e0e0e0"></path><path d="M326.26,194.13a4.55,4.55,0,0,1,.14,1c.05.75.12,1.69.21,2.8.18,2.46.41,5.67.67,9.23s.57,6.77.77,9.22c.09,1.11.16,2,.22,2.8a4.49,4.49,0,0,1,0,1,4.58,4.58,0,0,1-.2-1c-.09-.66-.22-1.61-.36-2.79-.28-2.35-.61-5.61-.89-9.22s-.46-6.87-.55-9.24c0-1.19-.07-2.15-.07-2.81A4.62,4.62,0,0,1,326.26,194.13Z" style="fill:#263238"></path><path d="M318.35,248.56a10.89,10.89,0,0,1-1.47-.21,8.45,8.45,0,0,0-6.54,2c-.69.59-1,1-1.1,1a3.11,3.11,0,0,1,.89-1.21,7.64,7.64,0,0,1,6.8-2.06A3.42,3.42,0,0,1,318.35,248.56Z" style="fill:#ff9a6c"></path><path d="M394.91,465.25c-.3-.52-2.87-11.65-2.87-11.65l17.37-4.7,2.13,16Z" style="fill:#ffbf9d"></path><path d="M411.45,461.77V463s18.83,8.86,19,13l-37.56-.58.71-14.27C399.13,464.19,405,464.62,411.45,461.77Z" style="fill:#407BFF"></path><g style="opacity:0.6000000000000001"><path d="M397.33,465.77a1.79,1.79,0,0,0-1.09,2A1.48,1.48,0,0,0,398,469a1.88,1.88,0,0,0,1.14-2.11c-.24-.81-1.23-1.46-1.9-1.07" style="fill:#fff"></path></g><g style="opacity:0.6000000000000001"><path d="M392.88,475.42l.17-3.43L429,473.8s1.66.86,1.45,2.2Z" style="fill:#fff"></path></g><path d="M411.57,463.16c0,.21-.93.29-1.84.95s-1.4,1.53-1.57,1.45.12-1.29,1.24-2.07S411.61,463,411.57,463.16Z" style="fill:#263238"></path><path d="M415.48,465.08c0,.21-.76.55-1.39,1.43s-.83,1.81-1,1.8-.28-1.2.52-2.27S415.48,464.89,415.48,465.08Z" style="fill:#263238"></path><path d="M417.65,470.5c-.17.05-.41-1,.08-2.14s1.35-1.59,1.42-1.41-.46.78-.85,1.72S417.83,470.49,417.65,470.5Z" style="fill:#263238"></path><path d="M360.13,465.25c.29-.52-.39-16.57-.39-16.57L342.37,444l1.13,20.93Z" style="fill:#ffbf9d"></path><path d="M343.59,461.77V463s-18.84,8.86-19,13l37.56-.58-.71-14.27C355.91,464.19,350.07,464.62,343.59,461.77Z" style="fill:#407BFF"></path><g style="opacity:0.6000000000000001"><path d="M357.71,465.77a1.8,1.8,0,0,1,1.09,2,1.48,1.48,0,0,1-1.71,1.24,1.89,1.89,0,0,1-1.15-2.11c.24-.81,1.24-1.46,1.91-1.07" style="fill:#fff"></path></g><g style="opacity:0.6000000000000001"><path d="M362.16,475.42,362,472l-35.94,1.81s-1.66.86-1.45,2.2Z" style="fill:#fff"></path></g><path d="M343.47,463.16c0,.21.92.29,1.84.95s1.4,1.53,1.57,1.45-.13-1.29-1.24-2.07S343.42,463,343.47,463.16Z" style="fill:#263238"></path><path d="M339.55,465.08c0,.21.76.55,1.4,1.43s.83,1.81,1,1.8.28-1.2-.53-2.27S339.55,464.89,339.55,465.08Z" style="fill:#263238"></path><path d="M337.39,470.5c.17.05.41-1-.08-2.14s-1.35-1.59-1.43-1.41.47.78.86,1.72S337.21,470.49,337.39,470.5Z" style="fill:#263238"></path><path d="M385.5,261.88c.81.59,10.3,49.73,17.29,103.46,5.75,44.19,8.72,88.86,8.72,88.86l-18.66,3.51s-16.41-55-24.88-94.48c-7.82-36.4-11.48-61.85-11.48-61.85l.52-26.5Z" style="fill:#263238"></path><path d="M330.74,261.51a69.76,69.76,0,0,0-13.89,43.95c.55,15.72,25.69,148.93,25.69,148.93l18.4-.13-2-145.7,2.64-34.29Z" style="fill:#263238"></path><path d="M396.69,456.59a6.16,6.16,0,0,1-1.05-2.56,6.55,6.55,0,0,1-.26-2.8,15.73,15.73,0,0,1,.67,2.67A16.12,16.12,0,0,1,396.69,456.59Z" style="fill:#455a64"></path><path d="M403.05,455.36s-.08-.06-.14-.21v0c-.06-.44-.11-1.42-.28-2.54a25.94,25.94,0,0,1-.46-2.79,5.84,5.84,0,0,1,.88,2.7,9.28,9.28,0,0,1,0,2.63v0C403.09,455.26,403.08,455.35,403.05,455.36Z" style="fill:#455a64"></path><path d="M409.14,454.36c-.12,0,0-1.44-.26-3.16s-.65-3.05-.53-3.1a6.46,6.46,0,0,1,1,3A6.73,6.73,0,0,1,409.14,454.36Z" style="fill:#455a64"></path><path d="M357.63,454.57c-.12-.05.28-1.28.39-2.86s-.06-2.86.06-2.9a5.45,5.45,0,0,1,.37,2.94A5.26,5.26,0,0,1,357.63,454.57Z" style="fill:#455a64"></path><path d="M351.43,454.5a18.93,18.93,0,0,1-.25-5.69,18.93,18.93,0,0,1,.25,5.69Z" style="fill:#455a64"></path><path d="M346.57,454.32a6.7,6.7,0,0,1-.88-2.73,7.2,7.2,0,0,1-.11-2.91,16.3,16.3,0,0,1,.53,2.81A17.11,17.11,0,0,1,346.57,454.32Z" style="fill:#455a64"></path><path d="M381.94,179s4,.25,13.95,7.44c8.51,6.17,19.66,16,19.66,16l-8.31,13.83h0l-25.3-18.14Z" style="fill:#e0e0e0"></path><path d="M395,199.47s20.87,4.44,26.25,6.91,10.56,6.37,10.85,10,.79,9.93-8.66,9.5-12.27-4.91-18-8.24l-10.81-6.25Z" style="fill:#ffbf9d"></path><path d="M379.47,197.75c-.34.27-6.17,6.7-7.36,7.81a3.1,3.1,0,0,0-1.14,2.78,6.58,6.58,0,0,0,.51,2l.17.43a1.89,1.89,0,0,0,.82,2.93,3.94,3.94,0,0,0,2.46-.13,2.24,2.24,0,0,0,1.59,1.63,1.39,1.39,0,0,0,0,1.32c.35.83.76,1,1.87,1.18s6.86-2.15,6.86-2.15a20.81,20.81,0,0,0,5-.69,12.26,12.26,0,0,0,4.71-3.27l3.26-4.84-3-7.27s-13.53-2.8-14-2.52A16,16,0,0,1,379.47,197.75Z" style="fill:#ffbf9d"></path><path d="M380.16,203.24a37.27,37.27,0,0,1-4.16,3.91c-1.18,1-2.28,1.95-3.07,2.6a10.27,10.27,0,0,1-1.29,1.07,4.78,4.78,0,0,1,1.09-1.29c.74-.73,1.8-1.67,3-2.71A38.16,38.16,0,0,1,380.16,203.24Z" style="fill:#ff9a6c"></path><path d="M382.55,207a23.81,23.81,0,0,1-3.67,3.54,34.34,34.34,0,0,1-4,3.19,26.46,26.46,0,0,1,3.7-3.51A40.22,40.22,0,0,1,382.55,207Z" style="fill:#ff9a6c"></path><path d="M384.83,210.4a5.58,5.58,0,0,1-.95,1.12,14,14,0,0,1-2.71,2.36,9,9,0,0,1-3.33,1.36,3.28,3.28,0,0,1-1.49,0,11,11,0,0,1,1.43-.3,11,11,0,0,0,3.16-1.43,20,20,0,0,0,2.72-2.21C384.34,210.69,384.79,210.35,384.83,210.4Z" style="fill:#ff9a6c"></path><path d="M397.87,207.72c0,.05-.2.3-.47.77a15.91,15.91,0,0,1-1.2,1.84,6.8,6.8,0,0,1-2.3,2.12c-.08-.09.92-1,2-2.38.53-.67.94-1.3,1.29-1.76S397.84,207.68,397.87,207.72Z" style="fill:#ff9a6c"></path><path d="M382.63,203.43c0,.06-.29.1-.73,0a2.59,2.59,0,0,1-1.39-1.09,2.55,2.55,0,0,1-.38-1.72c.07-.46.23-.7.28-.68a4.56,4.56,0,0,0,.46,2.17A4.5,4.5,0,0,0,382.63,203.43Z" style="fill:#ff9a6c"></path><path d="M384.87,207.34s-.22,0-.49-.14a1.89,1.89,0,0,1-.77-1,2,2,0,0,1-.06-1.23c.1-.3.23-.45.28-.43s-.11.75.18,1.51S384.93,207.24,384.87,207.34Z" style="fill:#ff9a6c"></path><path d="M386.44,211.09s-.21-.06-.39-.32a2.28,2.28,0,0,1-.34-1.16,2.11,2.11,0,0,1,.33-1.17c.17-.26.34-.37.38-.33s-.29.67-.27,1.49S386.54,211,386.44,211.09Z" style="fill:#ff9a6c"></path><path d="M358.25,261.85c-.14,0-.32-17.51-.39-39.11s0-39.1.12-39.11.32,17.51.4,39.11S358.4,261.85,358.25,261.85Z" style="fill:#263238"></path><polygon points="368.2 172.51 358.25 182.26 343.44 172.51 339.34 178.41 358.25 190.37 371.64 177.3 368.2 172.51" style="fill:#e0e0e0"></polygon><path d="M358.25,183.09a19.51,19.51,0,0,1-2.82-1l.21-.07c-.84,1.73-2.06,4.2-3.48,7l-.14.29-.25-.21-2.14-1.78c-2.89-2.41-5.49-4.61-7.35-6.22-.93-.81-1.67-1.46-2.18-1.93a4.24,4.24,0,0,1-.76-.76,4.19,4.19,0,0,1,.89.61c.55.41,1.33,1,2.29,1.8,1.92,1.54,4.55,3.69,7.44,6.1l2.14,1.79-.39.08c1.44-2.79,2.72-5.23,3.64-6.92l.07-.14.13.06A18.18,18.18,0,0,1,358.25,183.09Z" style="fill:#263238"></path><path d="M357.29,189.21l-1-.62c-3,1.2-5.43,4.8-5.76,8s.53,6.44,1.38,9.57A19.91,19.91,0,0,0,357.29,189.21Z" style="fill:#407BFF"></path><path d="M357.79,189.21l1-.62c3,1.2,5.43,4.8,5.75,8s-.53,6.44-1.38,9.57A19.91,19.91,0,0,1,357.79,189.21Z" style="fill:#407BFF"></path><polygon points="353.02 187.19 355.73 187.6 357.35 186.04 354.92 183.44 353.02 187.19" style="fill:#407BFF"></polygon><path d="M355.74,187.63h0l-2.74-.42v0l1.91-3.79,0,0,2.45,2.63h0Zm-2.68-.46,2.67.4,1.59-1.53-2.39-2.56Z" style="fill:#263238"></path><path d="M358.54,182.87a18.1,18.1,0,0,1,2.33-2l.16-.14.11.2c.9,1.66,2.11,4,3.45,6.58l-.45,0q.21-.28.42-.6c1.77-2.56,3.4-4.85,4.59-6.5a21.15,21.15,0,0,1,2-2.6,20.38,20.38,0,0,1-1.72,2.81c-1.12,1.7-2.7,4-4.47,6.59l-.42.6-.25.36-.19-.39c-1.33-2.61-2.49-5-3.31-6.66l.27.06A19.4,19.4,0,0,1,358.54,182.87Z" style="fill:#263238"></path><polygon points="363.77 186.97 359.99 187.87 358.67 186.39 361.88 183.21 363.77 186.97" style="fill:#407BFF"></polygon><path d="M360,187.9h0l-1.33-1.51h0l3.22-3.2,0,0,1.91,3.79Zm-1.27-1.51,1.29,1.45,3.74-.89-1.87-3.7Z" style="fill:#263238"></path><path d="M358.35,185.67l-.57-.07a2.5,2.5,0,1,0,.57.07Z" style="fill:#407BFF"></path><path d="M358.35,185.67s.24,0,.61.14a2.57,2.57,0,0,1,1.23,1.23,2.53,2.53,0,0,1-.17,2.57,2.77,2.77,0,0,1-2.92,1.17,2.83,2.83,0,0,1-1.88-1.66,2.51,2.51,0,0,1,.1-2.2,2.67,2.67,0,0,1,2.47-1.42h0c.36.08.55.14.55.17a1.43,1.43,0,0,1-.58,0h0a2.55,2.55,0,0,0-2.08,1.42,2.09,2.09,0,0,0,0,1.8,2.4,2.4,0,0,0,1.55,1.36,2.33,2.33,0,0,0,2.39-.94,2.15,2.15,0,0,0,.23-2.15,2.58,2.58,0,0,0-1-1.2C358.55,185.78,358.34,185.71,358.35,185.67Z" style="fill:#263238"></path><path d="M379.42,198l-.86-2.23s1.65-4.51-2.82-5.29c-2-.35-4.28.67-6.15,1.89a19.13,19.13,0,0,0-5.52,5.6l-3.3,5,1.61,3.14,10.18-.74Z" style="fill:#263238"></path><polygon points="362.83 205.31 361.6 203.24 371.64 202.44 372.1 204.58 362.83 205.31" style="fill:#455a64"></polygon><path d="M378.51,194.5a16.51,16.51,0,0,1-3,4A28.67,28.67,0,0,1,372.1,202a20.05,20.05,0,0,1,3.06-3.89A43.37,43.37,0,0,1,378.51,194.5Z" style="fill:#455a64"></path><rect x="319.35" y="256.54" width="73.16" height="20.46" style="fill:#455a64"></rect><path d="M338.68,277a102.13,102.13,0,0,1-.26-10.23,102.13,102.13,0,0,1,.26-10.23,98.66,98.66,0,0,1,.26,10.23A98.66,98.66,0,0,1,338.68,277Z" style="fill:#263238"></path><rect x="361.21" y="256.54" width="9.35" height="6.51" style="fill:#fff"></rect><rect x="361.21" y="270.53" width="9.36" height="6.51" style="fill:#fff"></rect><path d="M316.52,260.3s-.91-2.58,2.13-3.45c2-.56,8.1-1.74,7.15,1.14a2.8,2.8,0,0,1-2.42,1.81,5.39,5.39,0,0,0-2.64,1.31,2.07,2.07,0,0,0-.83,1.64c.13.89,0,2.93,2.68,3.86s3.94,1.95,4.79,3.66c.74,1.5-.2,2.15-.2,2.15s1.64,1.25,1.37,2.43a1.94,1.94,0,0,0,.29,1.33h0a1.29,1.29,0,0,1-.95,1.84l-.13,0s-8.1-.29-9.92-2.36a8.42,8.42,0,0,1-2.09-3.95s-1.49-2.5.19-4c-.62-2.87,0-4.33,1.15-5.18Z" style="fill:#ffbf9d"></path><path d="M316.52,260.3a5.5,5.5,0,0,1,.18.58c.12.43.27,1,.46,1.71l0,.05-.05,0a3.23,3.23,0,0,0-1.21,2,7.66,7.66,0,0,0,.16,3.12v.08l-.06.06a2.21,2.21,0,0,0-.73,1.71,4.45,4.45,0,0,0,.59,2.07l0,0v0a8.1,8.1,0,0,0,1.33,2.91,5.8,5.8,0,0,0,1.13,1.28,6.53,6.53,0,0,0,1.6.75,32.12,32.12,0,0,0,7.8,1.18h0a1.14,1.14,0,0,0,1-.87.91.91,0,0,0-.08-.67,3.07,3.07,0,0,1-.33-.86,3.13,3.13,0,0,1,0-.89,1.58,1.58,0,0,0-.22-.73,4.28,4.28,0,0,0-1.09-1.24l-.22-.18.23-.17a.87.87,0,0,0,.2-.22,1.75,1.75,0,0,0-.11-1.72,6,6,0,0,0-1.13-1.56,9,9,0,0,0-3.28-1.85A5.26,5.26,0,0,1,321,266a3.37,3.37,0,0,1-1.06-1.6,8.17,8.17,0,0,1-.27-1.82,2.32,2.32,0,0,1,.92-1.6h0a6,6,0,0,1,1.85-1.12,4.38,4.38,0,0,1,1-.24,3.08,3.08,0,0,0,.89-.28,2.4,2.4,0,0,0,1.21-1.26,1.52,1.52,0,0,0,.13-.8.94.94,0,0,0-.43-.6,3.51,3.51,0,0,0-1.56-.37,10.14,10.14,0,0,0-1.57,0,21.72,21.72,0,0,0-2.75.44,5,5,0,0,0-2.05.8,2.33,2.33,0,0,0-.86,1.35,3.41,3.41,0,0,0,0,1.37.79.79,0,0,1-.12-.34,2.73,2.73,0,0,1,0-1.06,2.51,2.51,0,0,1,.86-1.46,5.33,5.33,0,0,1,2.12-.89,21.34,21.34,0,0,1,2.77-.49,10.55,10.55,0,0,1,1.61-.07,3.66,3.66,0,0,1,1.72.4,1.2,1.2,0,0,1,.58.81,1.75,1.75,0,0,1-.13,1,2.73,2.73,0,0,1-1.37,1.45,3.19,3.19,0,0,1-1,.32,4.34,4.34,0,0,0-1,.23,5.72,5.72,0,0,0-1.72,1.06h0a1.92,1.92,0,0,0-.76,1.3,8.24,8.24,0,0,0,.26,1.69,3.06,3.06,0,0,0,.94,1.41,4.91,4.91,0,0,0,1.59.83,9.62,9.62,0,0,1,3.44,1.94,6.67,6.67,0,0,1,1.21,1.67,2.16,2.16,0,0,1,.08,2.15,1.14,1.14,0,0,1-.31.35v-.35a4.73,4.73,0,0,1,1.21,1.38,2,2,0,0,1,.26.92,3,3,0,0,0,0,.82,2.49,2.49,0,0,0,.28.74,1.36,1.36,0,0,1,.12,1,1.6,1.6,0,0,1-1.36,1.19h-.05c-1.41-.07-2.77-.2-4.1-.39a21,21,0,0,1-3.8-.84,7.09,7.09,0,0,1-1.71-.82,6.38,6.38,0,0,1-1.2-1.37,8.32,8.32,0,0,1-1.36-3.07l0,.06a4.9,4.9,0,0,1-.61-2.25,2.51,2.51,0,0,1,.86-1.91l0,.13a7.7,7.7,0,0,1-.1-3.22,3.34,3.34,0,0,1,1.33-2l0,.08-.39-1.72A2.63,2.63,0,0,1,316.52,260.3Z" style="fill:#ff9a6c"></path><path d="M327.18,272.42a5.52,5.52,0,0,1-1.67-.22c-1-.2-2.41-.6-3.92-1.05a7,7,0,0,1-3.6-1.93c-.78-.73-1-1.39-.95-1.41a8.76,8.76,0,0,0,2.62,2.19,10,10,0,0,0,2,.74l3.87,1.16A7.7,7.7,0,0,1,327.18,272.42Z" style="fill:#ff9a6c"></path><path d="M328.34,275.76a5.15,5.15,0,0,1-2.1.29,18.22,18.22,0,0,1-5-.94l-1.39-.43a5.42,5.42,0,0,1-1.29-.54,6.12,6.12,0,0,1-1.6-1.7,4.11,4.11,0,0,1-.91-1.91,19.8,19.8,0,0,0,1.16,1.73,6.18,6.18,0,0,0,1.56,1.54,16.25,16.25,0,0,0,2.59.89,21.89,21.89,0,0,0,4.91,1.05C327.53,275.83,328.33,275.69,328.34,275.76Z" style="fill:#ff9a6c"></path><path d="M323.35,259.78a8.72,8.72,0,0,1-2.52,1.15,8.87,8.87,0,0,1-1.9.55c-.52.07-.85,0-.84-.07s.31-.09.77-.23,1.1-.39,1.82-.66A9.1,9.1,0,0,1,323.35,259.78Z" style="fill:#ff9a6c"></path><rect x="336.38" y="201.4" width="7.7" height="5.3" style="fill:#407BFF"></rect><path d="M340.23,205l-.08-.07c-3.72-3.35-3.72-3.44-3.72-3.51h.13l.11-.06c.11.17,2.16,2,3.56,3.31l3.76-3.34.17.18Z" style="fill:#e0e0e0"></path><polygon points="336.48 206.78 336.29 206.62 338.79 203.66 338.98 203.82 336.48 206.78" style="fill:#e0e0e0"></polygon><rect x="342.72" y="203.16" width="0.25" height="3.97" transform="translate(-53.15 258.23) rotate(-38.53)" style="fill:#e0e0e0"></rect><path d="M345.8,208.28a63.82,63.82,0,0,1-11.51,0,63.82,63.82,0,0,1,11.51,0Z" style="fill:#407BFF"></path></g><g id="freepik--Counter--inject-74"><rect x="200.14" y="282.29" width="352.24" height="193.13" style="fill:#e0e0e0"></rect><path d="M552.87,475.93H199.64V281.79H552.87Zm-352.23-1H551.87V282.79H200.64Z" style="fill:#263238"></path><rect x="200.14" y="311.13" width="352.24" height="39.25" style="fill:#407BFF"></rect><rect x="271.25" y="322.86" width="26.22" height="18.05" style="fill:#fff"></rect><path d="M284.36,335.16l-.34-.3c-12.67-11.42-12.67-11.72-12.67-12h.5l.43-.24c.42.6,7.49,7.06,12.08,11.2l12.78-11.33.66.74Z" style="fill:#407BFF"></path><rect x="268.93" y="335.38" width="13.19" height="1" transform="matrix(0.65, -0.76, 0.76, 0.65, -158.85, 328.73)" style="fill:#407BFF"></rect><rect x="292.76" y="328.86" width="1" height="13.52" transform="translate(-145.22 255.75) rotate(-38.53)" style="fill:#407BFF"></rect><path d="M325.34,326.13a5.31,5.31,0,0,1,2.23,7.56,5,5,0,0,1-2.23,1.86,8.33,8.33,0,0,1-3.41.64h-3v4.08h-3.43V325.48h6.41A8.33,8.33,0,0,1,325.34,326.13Zm-1.26,6.61a2.65,2.65,0,0,0,0-3.81,3.61,3.61,0,0,0-2.34-.66H319v5.13h2.79A3.61,3.61,0,0,0,324.08,332.74Z" style="fill:#fff"></path><path d="M334,339.53a7.38,7.38,0,0,1-2.89-2.73,7.86,7.86,0,0,1,0-7.85,7.38,7.38,0,0,1,2.89-2.73,9.11,9.11,0,0,1,8.3,0,7.53,7.53,0,0,1,0,13.31,9.11,9.11,0,0,1-8.3,0Zm6.52-2.52a4.32,4.32,0,0,0,1.66-1.68,5.25,5.25,0,0,0,0-4.91,4.26,4.26,0,0,0-1.66-1.68,5,5,0,0,0-4.73,0,4.32,4.32,0,0,0-1.66,1.68,5.32,5.32,0,0,0,0,4.91,4.39,4.39,0,0,0,1.66,1.68,5,5,0,0,0,4.73,0Z" style="fill:#fff"></path><path d="M350.3,340.05a8,8,0,0,1-2.63-1.24l1.16-2.58a7.7,7.7,0,0,0,2.26,1.12,8.31,8.31,0,0,0,2.62.43,4.32,4.32,0,0,0,2.16-.43,1.33,1.33,0,0,0,.7-1.16,1.08,1.08,0,0,0-.42-.87,2.91,2.91,0,0,0-1-.56,17.64,17.64,0,0,0-1.75-.47,24.74,24.74,0,0,1-2.77-.8,4.54,4.54,0,0,1-1.84-1.29,3.46,3.46,0,0,1-.78-2.37,4.12,4.12,0,0,1,.7-2.33,4.74,4.74,0,0,1,2.1-1.66,8.6,8.6,0,0,1,3.44-.62,11.67,11.67,0,0,1,2.77.34,8.28,8.28,0,0,1,2.36,1l-1.05,2.6a8.32,8.32,0,0,0-4.1-1.16,3.86,3.86,0,0,0-2.13.47,1.42,1.42,0,0,0-.68,1.22,1.18,1.18,0,0,0,.79,1.13,12.16,12.16,0,0,0,2.42.73,23.9,23.9,0,0,1,2.77.81,4.6,4.6,0,0,1,1.85,1.26,3.43,3.43,0,0,1,.77,2.35,4,4,0,0,1-.71,2.31,4.75,4.75,0,0,1-2.12,1.66,8.68,8.68,0,0,1-3.45.62A12,12,0,0,1,350.3,340.05Z" style="fill:#fff"></path><path d="M365.17,328.27h-4.74v-2.79h12.9v2.79h-4.74v12h-3.42Z" style="fill:#fff"></path><path d="M384.25,339.46a7.23,7.23,0,0,1-2.82-2.72,7.77,7.77,0,0,1,0-7.73,7.23,7.23,0,0,1,2.82-2.72,8.33,8.33,0,0,1,4-1,8.24,8.24,0,0,1,4,1,7.18,7.18,0,0,1,2.81,2.71,7.87,7.87,0,0,1,0,7.75,7.18,7.18,0,0,1-2.81,2.71,8.24,8.24,0,0,1-4,1A8.33,8.33,0,0,1,384.25,339.46Zm7-1.64a5.43,5.43,0,0,0,2-2,6,6,0,0,0,0-5.81,5.43,5.43,0,0,0-2-2,5.88,5.88,0,0,0-2.93-.74,6,6,0,0,0-3,.74,5.34,5.34,0,0,0-2.07,2,6,6,0,0,0,0,5.81,5.34,5.34,0,0,0,2.07,2,6,6,0,0,0,3,.74A5.88,5.88,0,0,0,391.22,337.82Z" style="fill:#fff"></path><path d="M401.48,327.32v5.15h7.41v1.82h-7.41v6h-2.12V325.48H409.8v1.84Z" style="fill:#fff"></path><path d="M414.9,327.32v5.15h7.42v1.82H414.9v6h-2.12V325.48h10.44v1.84Z" style="fill:#fff"></path><path d="M426.2,325.48h2.12v14.79H426.2Z" style="fill:#fff"></path><path d="M435.36,339.46a7.2,7.2,0,0,1-2.79-2.71,7.87,7.87,0,0,1,0-7.75,7.18,7.18,0,0,1,2.81-2.71,8.8,8.8,0,0,1,7.18-.4,6.45,6.45,0,0,1,2.45,1.72l-1.37,1.33a5.5,5.5,0,0,0-4.16-1.75,6,6,0,0,0-3,.74,5.33,5.33,0,0,0-2.09,2,6,6,0,0,0,0,5.81,5.33,5.33,0,0,0,2.09,2,6,6,0,0,0,3,.74,5.51,5.51,0,0,0,4.16-1.78l1.37,1.34a6.54,6.54,0,0,1-2.46,1.73,8.38,8.38,0,0,1-3.18.59A8.27,8.27,0,0,1,435.36,339.46Z" style="fill:#fff"></path><path d="M458.77,338.43v1.84H448V325.48h10.45v1.84h-8.33v4.54h7.42v1.8h-7.42v4.77Z" style="fill:#fff"></path><rect x="200.14" y="360.67" width="352.24" height="7.18" style="fill:#407BFF"></rect><rect x="194.44" y="273.29" width="364.73" height="18.02" style="fill:#e0e0e0"></rect><path d="M559.16,291.3c0-.52,0-5.78-.07-18l.07.07-364.7.19h0l.26-.26v18l-.26-.26,258.49.11,106.23.15-1.84,0-5.46,0-21,0-77.7.07-258.68.11h-.26V273h.28l364.7.18h.08v.08C559.19,285.52,559.17,290.78,559.16,291.3Z" style="fill:#263238"></path><rect x="417.36" y="260.28" width="128.29" height="12.71" style="fill:#455a64"></rect><rect x="454.17" y="253.87" width="72.59" height="6.38" style="fill:#455a64"></rect><g style="opacity:0.2"><rect x="454.17" y="253.87" width="72.59" height="6.38"></rect></g><rect x="462.41" y="201.21" width="62.71" height="48.37" transform="translate(987.52 450.78) rotate(180)" style="fill:#455a64"></rect><rect x="467.73" y="238.56" width="4.81" height="5.43" transform="translate(940.26 482.56) rotate(180)" style="fill:#fafafa"></rect><rect x="498.86" y="201.33" width="7.12" height="10.32" style="fill:#ebebeb"></rect><rect x="498.86" y="239.11" width="7.12" height="10.32" style="fill:#ebebeb"></rect><path d="M478.06,249.57c-.14,0-.26-10.87-.26-24.28s.12-24.28.26-24.28.26,10.87.26,24.28S478.2,249.57,478.06,249.57Z" style="fill:#263238"></path><rect x="447.72" y="249.59" width="85.5" height="4.25" style="fill:#e0e0e0"></rect><path d="M447.72,253.83s0-.07,0-.24,0-.44,0-.77c0-.73,0-1.79-.05-3.23v-.08h.08c10.77-.1,45-.18,85.49-.18h0l.26.26h0v4.49h-.27L472.5,254l-18.19-.08-4.91,0-1.26,0a1.75,1.75,0,0,1-.42,0h.45l1.3,0,5,0,18.25-.08,60.52-.11-.26.26V249.6h0l.27.26h0c-40.49,0-74.72-.08-85.49-.19l.07-.07c0,1.42,0,2.47,0,3.19,0,.33,0,.59,0,.79S447.72,253.83,447.72,253.83Z" style="fill:#263238"></path><path d="M544.94,260.25c0,.14-28.4.26-63.44.26s-63.44-.12-63.44-.26,28.4-.26,63.44-.26S544.94,260.1,544.94,260.25Z" style="fill:#263238"></path><path d="M461.4,273a39.46,39.46,0,0,1-.26-6.35,39.38,39.38,0,0,1,.26-6.34,38,38,0,0,1,.26,6.34A38.12,38.12,0,0,1,461.4,273Z" style="fill:#263238"></path><rect x="420.73" y="263.96" width="35.99" height="6.23" style="fill:#fff"></rect><path d="M456.75,270.21h-36v-6.28h36Zm-36,0H456.7V264H420.76Z" style="fill:#263238"></path><path d="M437.88,268.64v-.43h-.44v-.44H437v-1.32h.43V266h.44v-.43h1.32V266h.44v.44h.43v1.32h-.43v.44h-.44v.43Zm.44-.43h.88v-1.76h-.44V266h-.88v1.76h.44Z" style="fill:#263238"></path><path d="M440.51,268.64v-.87H441v-.44h.44v-.44h.87v-.44h.44V266h-1.31v.44h-.88V266H441v-.43h2.19V266h.44v.88h-.44v.44h-.44v.44h-.87v.44h1.75v.43Z" style="fill:#263238"></path><path d="M447.52,268.64v-3.06h.88v1.75h.88v-.44h.44v-.44h.87v.44h-.44v.44h-.43v.44h.43v.44h.44v.43h-.87v-.43h-.44v-.44h-.88v.87Z" style="fill:#263238"></path><path d="M451.47,269.08v-.44h1.75v-.43h-1.75v-.44H451v-.88h.44v-.44h2.63v2.19h-.44v.44Zm.44-1.31h1.31v-.88h-1.31Z" style="fill:#263238"></path></g><g id="freepik--character-3--inject-74"><path d="M639,134.31l2.07,40.62A12.66,12.66,0,0,1,630,188.14h0a12.66,12.66,0,0,1-14.16-11.86c-.22-3.86-.37-7-.37-7s-9.94-.32-11.25-10.06c-.75-5.62-1.34-18.52-1.7-28.41a12.87,12.87,0,0,1,11.31-13.25l5.89-.72A18.19,18.19,0,0,1,639,134.31Z" style="fill:#ffbf9d"></path><path d="M615.43,169.25a23.76,23.76,0,0,0,12.24-5.3s-2.28,7.48-12.11,7.79Z" style="fill:#ff9a6c"></path><path d="M605.44,139.87c.2.16,1.16-.75,2.66-.93s2.68.44,2.82.23-.14-.39-.66-.68a3.91,3.91,0,0,0-2.29-.42,3.68,3.68,0,0,0-2.09,1C605.46,139.45,605.35,139.8,605.44,139.87Z" style="fill:#263238"></path><path d="M619.36,142.34a1.4,1.4,0,0,0,1.51,1.24,1.33,1.33,0,0,0,1.28-1.43,1.4,1.4,0,0,0-1.51-1.24A1.33,1.33,0,0,0,619.36,142.34Z" style="fill:#263238"></path><path d="M606.41,143.91a1.41,1.41,0,0,0,1.52,1.24,1.34,1.34,0,0,0,1.28-1.43,1.4,1.4,0,0,0-1.51-1.24A1.34,1.34,0,0,0,606.41,143.91Z" style="fill:#263238"></path><path d="M619.94,138.3c.19.16,1.15-.74,2.65-.92s2.69.43,2.83.23-.15-.4-.67-.69a3.82,3.82,0,0,0-2.29-.41,3.65,3.65,0,0,0-2.08,1C620,137.89,619.84,138.23,619.94,138.3Z" style="fill:#263238"></path><path d="M616,150.61a9.86,9.86,0,0,0-2.49-.14c-.38,0-.76,0-.85-.28a1.92,1.92,0,0,1,.11-1.17c.25-1,.51-2,.78-3.05,1.07-4.34,1.79-7.89,1.61-7.93s-1.18,3.44-2.24,7.78c-.26,1.07-.5,2.09-.73,3.07a2.25,2.25,0,0,0,0,1.52,1,1,0,0,0,.7.49,3,3,0,0,0,.66,0A10,10,0,0,0,616,150.61Z" style="fill:#263238"></path><path d="M620.57,151.11c-.25,0-.05,1.64-1.31,3s-3,1.36-3,1.59.42.27,1.15.2a4.08,4.08,0,0,0,2.51-1.23,3.6,3.6,0,0,0,1-2.48C620.91,151.47,620.68,151.08,620.57,151.11Z" style="fill:#263238"></path><path d="M619.37,132.86c.2.39,1.67,0,3.45,0s3.27.3,3.45-.09c.09-.19-.21-.54-.83-.86a6,6,0,0,0-5.26.06C619.57,132.31,619.28,132.67,619.37,132.86Z" style="fill:#263238"></path><path d="M604.66,135.37c.3.31,1.29-.17,2.53-.34s2.32-.05,2.52-.43c.09-.19-.12-.51-.62-.78a3.58,3.58,0,0,0-2.13-.3,3.54,3.54,0,0,0-1.94.93C604.62,134.85,604.52,135.22,604.66,135.37Z" style="fill:#263238"></path><path d="M636.6,142c.16-.09,6.46-2.79,7.06,3.9s-6.24,5.91-6.27,5.72S636.6,142,636.6,142Z" style="fill:#ffbf9d"></path><path d="M639.21,148.92s.12.07.33.15a1.18,1.18,0,0,0,.87-.06,2.9,2.9,0,0,0,1.1-2.71,3.89,3.89,0,0,0-.48-1.64,1.34,1.34,0,0,0-.95-.82.6.6,0,0,0-.66.38c-.07.2,0,.33,0,.34s-.16-.1-.13-.38a.76.76,0,0,1,.23-.44.89.89,0,0,1,.63-.23,1.66,1.66,0,0,1,1.31.93,4,4,0,0,1,.57,1.83,3,3,0,0,1-1.44,3,1.26,1.26,0,0,1-1.09-.08C639.23,149.08,639.18,148.94,639.21,148.92Z" style="fill:#ff9a6c"></path><path d="M640.28,141.35a3.5,3.5,0,0,0-3,2c-.32,1-.29,2.1-.6,3.1s-1.19,2-2.24,1.87a2.07,2.07,0,0,1-1.57-1.35,5.54,5.54,0,0,1-.28-2.15c0-3.16.29-6.33,0-9.48a16.16,16.16,0,0,0-3.07-8.82,8.85,8.85,0,0,0-8.34-3.43c-2.05.42-3.82,1.73-5.84,2.27a8.22,8.22,0,0,1-7-1.43,14.82,14.82,0,0,0-1.38-.76,4,4,0,0,1,.45-2.14c3.63-4.28,10.86-6.23,16.41-5.53a19.61,19.61,0,0,1,14,8.66c2.94,4.77,3.11,11.89,2.45,17.16" style="fill:#263238"></path><path d="M612.71,120.1c3.71-.3,10.9.24,14.08,2.17.38.22.81.62.62,1s-.54.36-.87.39a51,51,0,0,0-9.83,2.7,17.64,17.64,0,0,1-6.4,1.74,6.39,6.39,0,0,1-5.71-2.78l-.9.46A10.92,10.92,0,0,1,612.71,120.1Z" style="fill:#263238"></path><path d="M602.18,129.29a12.62,12.62,0,0,1,6.87-4.17c8.34-1.75,22.48-.84,31.51,12.79a33.6,33.6,0,0,0,.58-7.9c-.24-2-2.87-13.65-15.47-15.88C625.67,114.13,606.51,109.38,602.18,129.29Z" style="fill:#407BFF"></path><g style="opacity:0.2"><path d="M602.18,129.29a12,12,0,0,1,7.69-4.69c7.5-1.25,22.18.46,30.69,13.31a33.6,33.6,0,0,0,.58-7.9c-.24-2-2.87-13.65-15.47-15.88C625.67,114.13,606.51,109.38,602.18,129.29Z"></path></g><path d="M639.18,136c-4.39-5.68-10.36-9.22-16.68-12.18s-16.5-5.4-23.42-6.36a14.69,14.69,0,0,0-6.23.1,5.62,5.62,0,0,0-4.12,4.3c-.32,2.6,4.63,6,6.93,7.23a70.82,70.82,0,0,0,6.86,3s-.63-4.7,6.76-6.56C619.34,123,639.52,136.21,639.18,136Z" style="fill:#407BFF"></path><path d="M689.9,440.57l16,15.18s-15.8,18-13.76,21.76l38.51-22.23-23.84-26.79Z" style="fill:#455a64"></path><g style="opacity:0.6000000000000001"><path d="M716.52,446.8a1.81,1.81,0,0,1,2.17,1.09,1.74,1.74,0,0,1-1.06,2.15,1.91,1.91,0,0,1-2.29-1.16,1.81,1.81,0,0,1,1.35-2.12" style="fill:#fff"></path></g><g style="opacity:0.6000000000000001"><path d="M730.65,455.28l-2.43-2.73L692.31,475a3.08,3.08,0,0,0-.21,2.92Z" style="fill:#fff"></path></g><path d="M705.17,455.94c.12.18,1.1-.32,2.37-.29s2.25.49,2.37.31-.82-1.07-2.36-1.07S705,455.79,705.17,455.94Z" style="fill:#263238"></path><path d="M702.25,460.05c.07.21,1.06,0,2.18.4s1.81,1.1,2,1-.35-1.24-1.75-1.69S702.14,459.87,702.25,460.05Z" style="fill:#263238"></path><path d="M703,466.19c.19-.07-.13-1.15-1.24-1.86s-2.21-.57-2.2-.37.89.41,1.79,1S702.78,466.28,703,466.19Z" style="fill:#263238"></path><path d="M702.72,451.29c.18.12.86-.66,1.95-1.25s2.1-.76,2.09-1-1.19-.38-2.46.32S702.54,451.2,702.72,451.29Z" style="fill:#263238"></path><path d="M700.19,447.42c0,.08.84-.27,1.88-1.2a10,10,0,0,0,1.59-1.84,9.44,9.44,0,0,0,.72-1.26,2.48,2.48,0,0,0,.29-.8.93.93,0,0,0-.53-1,1.17,1.17,0,0,0-1.07.09,2.72,2.72,0,0,0-.64.54,7.42,7.42,0,0,0-.92,1.14,7.62,7.62,0,0,0-1,2.23,3.65,3.65,0,0,0-.15,2.23c.12,0,.18-.83.65-2.06a9.1,9.1,0,0,1,1.09-2,8.12,8.12,0,0,1,.87-1c.34-.35.67-.57.89-.46s.1.07.09.24a2.43,2.43,0,0,1-.22.59,10.34,10.34,0,0,1-.64,1.19,12.52,12.52,0,0,1-1.38,1.85C700.8,446.82,700.12,447.32,700.19,447.42Z" style="fill:#263238"></path><path d="M700.59,447.53c.09,0,0-.9-.64-2.13a7.06,7.06,0,0,0-1.56-1.9,6.77,6.77,0,0,0-1.2-.85,1.83,1.83,0,0,0-1.8-.19,1,1,0,0,0-.46,1,3,3,0,0,0,.25.81,4.78,4.78,0,0,0,.79,1.27,5,5,0,0,0,2,1.44,2.84,2.84,0,0,0,2.23.18,17.34,17.34,0,0,1-2-.67,5,5,0,0,1-1.71-1.39,4.69,4.69,0,0,1-.65-1.11c-.19-.44-.25-.86-.07-.91a1.29,1.29,0,0,1,1.05.2A8.87,8.87,0,0,1,698,444a8,8,0,0,1,1.54,1.65C700.24,446.76,700.48,447.57,700.59,447.53Z" style="fill:#263238"></path><path d="M569.44,441.88l-3.82,20.59s-22.79,7.45-22.94,11.7l43.38.52,3.2-32.81Z" style="fill:#455a64"></path><g style="opacity:0.6000000000000001"><path d="M582.47,461.83a1.81,1.81,0,0,1,1.31,2,1.75,1.75,0,0,1-2,1.31A1.89,1.89,0,0,1,580.4,463a1.81,1.81,0,0,1,2.24-1.14" style="fill:#fff"></path></g><g style="opacity:0.6000000000000001"><path d="M586.06,474.69l.68-3.15-42.62.55a3.08,3.08,0,0,0-1.67,2.4Z" style="fill:#fff"></path></g><path d="M564.9,462.26c0,.21,1.1.28,2.18.95s1.68,1.57,1.88,1.48-.16-1.33-1.49-2.12S564.85,462.06,564.9,462.26Z" style="fill:#263238"></path><path d="M560.29,464.31c0,.21.9.55,1.66,1.45s1,1.87,1.22,1.85.32-1.25-.65-2.34S560.28,464.1,560.29,464.31Z" style="fill:#263238"></path><path d="M557.78,470c.2,0,.47-1.06-.11-2.23s-1.62-1.62-1.71-1.44.56.8,1,1.78S557.57,469.94,557.78,470Z" style="fill:#263238"></path><path d="M566.7,457.46c.1.2,1.09-.13,2.32-.08s2.19.42,2.3.23-.83-.94-2.28-1S566.59,457.29,566.7,457.46Z" style="fill:#263238"></path><path d="M669.56,292.22c.72.49,2.36,25.2,0,30.61l6,44.52s16.09,25.56,19.33,29.28,24.26,40,24.26,40l-23.73,20.47s-41.23-53.88-47.86-63.44c-10.4-15-22.67-71.24-22.67-71.24l-1.6-27.91Z" style="fill:#263238"></path><path d="M637.16,327.84c-.72,1.32-32.82,50.67-32.82,50.67s-4.87,26.14-6,37.66-9,41.18-9,41.18l-25.84-2s7-76.33,11.31-91.2,16.33-43.63,16.33-43.63l10.14-26.89,29.2.54Z" style="fill:#263238"></path><path d="M618.89,301.68a4.79,4.79,0,0,0,.16.79c.14.56.32,1.32.55,2.27.51,2,1.23,4.83,2.12,8.3,1.81,7,4.31,16.69,7.22,27.34s5.76,20.24,7.92,27.15c1.08,3.45,2,6.24,2.62,8.15.32.93.57,1.67.75,2.21a7.25,7.25,0,0,0,.29.76,4.24,4.24,0,0,0-.2-.79l-.66-2.23-2.48-8.2c-2.08-6.93-4.86-16.53-7.78-27.18S623.94,320,622.05,313c-.95-3.45-1.72-6.27-2.27-8.26l-.64-2.24A6,6,0,0,0,618.89,301.68Z" style="fill:#455a64"></path><polygon points="487.17 402.62 420.58 344.39 442.66 320.63 507.29 379.61 487.17 402.62" style="fill:#455a64"></polygon><rect x="483.28" y="382.81" width="6.78" height="7.67" transform="translate(374.84 -224.77) rotate(41.17)" style="fill:#fafafa"></rect><polygon points="435.4 328.44 425.49 339.11 433.53 346.14 443.11 335.18 435.4 328.44" style="fill:#ebebeb"></polygon><path d="M470.24,388.44c-.11-.1,4.46-5.5,10.2-12.06s10.48-11.81,10.59-11.72-4.46,5.49-10.2,12.06S470.34,388.53,470.24,388.44Z" style="fill:#263238"></path><rect x="386.18" y="363.95" width="88.45" height="68.22" transform="translate(368.44 -184.92) rotate(41.17)" style="fill:#455a64"></rect><g style="opacity:0.30000000000000004"><rect x="386.18" y="363.95" width="88.45" height="68.22" transform="translate(368.44 -184.92) rotate(41.17)"></rect></g><rect x="437.35" y="433.04" width="6.78" height="7.67" transform="translate(396.56 -182.13) rotate(41.17)" style="fill:#fafafa"></rect><rect x="431.48" y="364.93" width="14.56" height="10.05" transform="translate(-128.56 456.7) rotate(-48.83)" style="fill:#ebebeb"></rect><rect x="396.4" y="405.04" width="14.56" height="10.05" transform="translate(-170.74 444) rotate(-48.83)" style="fill:#ebebeb"></rect><path d="M424.32,438.67c-.11-.09,9.68-11.47,21.86-25.4s22.15-25.15,22.26-25-9.68,11.46-21.87,25.4S424.42,438.76,424.32,438.67Z" style="fill:#263238"></path><rect x="479.82" y="280.75" width="74.01" height="57.08" transform="translate(331.37 -263.75) rotate(41.17)" style="fill:#455a64"></rect><rect x="522.64" y="338.56" width="5.67" height="6.41" transform="translate(354.89 -261.42) rotate(41.17)" style="fill:#fafafa"></rect><rect x="517.72" y="281.57" width="12.18" height="8.41" transform="translate(-36.12 491.96) rotate(-48.83)" style="fill:#ebebeb"></rect><rect x="488.37" y="315.13" width="12.18" height="8.41" transform="translate(-71.42 481.34) rotate(-48.83)" style="fill:#ebebeb"></rect><path d="M511.73,343.27c-.11-.1,8.07-9.63,18.26-21.28s18.55-21,18.66-20.94-8.07,9.62-18.27,21.28S511.84,343.36,511.73,343.27Z" style="fill:#263238"></path><polygon points="505.4 378 438.81 319.77 460.89 296.01 525.52 354.99 505.4 378" style="fill:#455a64"></polygon><g style="opacity:0.30000000000000004"><polygon points="505.4 378 438.81 319.77 460.89 296.01 525.52 354.99 505.4 378"></polygon></g><rect x="501.51" y="358.19" width="6.78" height="7.67" transform="translate(363.14 -242.86) rotate(41.17)" style="fill:#fafafa"></rect><rect x="460.55" y="330.19" width="14.56" height="10.05" transform="translate(-92.47 466.72) rotate(-48.83)" style="fill:#ebebeb"></rect><path d="M488.47,363.82c-.11-.1,4.35-5.45,10-12s10.25-11.71,10.36-11.62-4.35,5.45-10,12S488.58,363.91,488.47,363.82Z" style="fill:#263238"></path><circle cx="464.4" cy="458.28" r="18.03" style="fill:#455a64"></circle><g style="opacity:0.30000000000000004"><circle cx="464.4" cy="458.28" r="11.11"></circle></g><path d="M599.2,203.14c-.55.47-24.91,26.28-24.91,26.28L528.91,253.7l5.36,6.44c.66,3.11,47.5-11.34,55-18.5,5-4.83,20.67-18.8,20.67-18.8l-3.45-24.57Z" style="fill:#ffbf9d"></path><path d="M536.77,256.75l-7.86-3.05c-.4.63-9.29,5.42-14,6.54a70.93,70.93,0,0,0-10.27,3.49l.07.41a4.06,4.06,0,0,0,4.24,1.12c4.62-1,13-2.68,12.91-2.36s-5.45,4.14-5.78,6.42c-.29,2.05,1.2,1.37,2.65.52s15-5,16.53-8.61S536.77,256.75,536.77,256.75Z" style="fill:#ffbf9d"></path><path d="M623.56,177.49l-11.39,4.63c-2.79.81-6.59,7-9.89,10.89l-14.68,15.2,20.26,24.69Z" style="fill:#407BFF"></path><path d="M641.18,164.25l5.51,6.83s21.4,7.94,23.62,13.3c3.12,7.53-1,30.93-1,30.93l-5.66,50.4,7.74,27.9-70.94,1.21s4.3-73.12,5.3-80.86c.69-5.38,6.3-27.64,9-36l.57,2.88.32-1.31Z" style="fill:#407BFF"></path><path d="M607,199.69a2.32,2.32,0,0,0,0,.23c0,.19-.05.41-.09.69-.06.65-.16,1.53-.28,2.66-.23,2.3-.54,5.64-.89,9.77-.7,8.25-1.5,19.67-2.29,32.28s-1.53,24-2.15,32.29c-.31,4.1-.56,7.43-.74,9.78-.08,1.13-.14,2-.19,2.66,0,.29,0,.51,0,.7a.68.68,0,0,0,0,.23s0-.07.05-.23,0-.41.08-.69c.07-.64.16-1.53.28-2.65.24-2.3.54-5.64.89-9.77.7-8.25,1.5-19.67,2.29-32.29s1.54-24,2.15-32.29c.31-4.1.56-7.43.74-9.78.08-1.12.14-2,.19-2.66,0-.28,0-.51,0-.69A.87.87,0,0,0,607,199.69Z" style="fill:#263238"></path><path d="M615.81,179.45a9.68,9.68,0,0,1,.88,1.3c.55.84,1.31,2.1,2.38,3.54a12,12,0,0,0,.91,1.06c.34.37.65.79,1,1.15a1.77,1.77,0,0,0,1.26.66,2.77,2.77,0,0,0,1.47-.61c2-1.3,4.17-2.77,6.45-4.32,4.55-3.11,8.66-5.95,11.68-7.93,1.51-1,2.75-1.78,3.61-2.31a10,10,0,0,1,1.37-.77,9.4,9.4,0,0,1-1.26.94l-3.51,2.44-11.6,8.06c-2.28,1.55-4.47,3-6.49,4.3a3.18,3.18,0,0,1-1.72.66,2.24,2.24,0,0,1-1.57-.82c-.39-.4-.69-.82-1-1.19a10.41,10.41,0,0,1-.91-1.1c-1-1.5-1.75-2.78-2.25-3.66A8,8,0,0,1,615.81,179.45Z" style="fill:#263238"></path><path d="M618.71,201.3a6.12,6.12,0,0,1-1.36.14c-.88.05-2.14.11-3.68.16h-.23l0-.24c.21-2.07.5-4.67.83-7.49.4-3.45.8-6.57,1.11-8.82.15-1.13.29-2,.39-2.67a3.47,3.47,0,0,1,.22-1,3.77,3.77,0,0,1,0,1c0,.64-.12,1.56-.23,2.69-.21,2.26-.55,5.39-1,8.84-.33,2.82-.65,5.42-.92,7.48l-.21-.24c1.53,0,2.79,0,3.67,0A6.26,6.26,0,0,1,618.71,201.3Z" style="fill:#263238"></path><path d="M618.7,193.61a1.8,1.8,0,0,1,1.06,2.13,1.73,1.73,0,0,1-2.09,1.09,1.66,1.66,0,0,1-1-2.12,1.74,1.74,0,0,1,2-1.1" style="fill:#e0e0e0"></path><rect x="631.07" y="200.6" width="8.32" height="5.72" transform="translate(1270.46 406.93) rotate(180)" style="fill:#fff"></rect><path d="M635.23,204.46,631,200.69l.16-.18,4.08,3.61c1.51-1.36,3.73-3.39,3.86-3.57l.08,0h.15c0,.07,0,.17-4,3.78Z" style="fill:#407BFF"></path><polygon points="639.29 206.41 636.58 203.22 636.77 203.06 639.48 206.25 639.29 206.41" style="fill:#407BFF"></polygon><rect x="630.26" y="204.52" width="4.29" height="0.25" transform="translate(78.62 572.26) rotate(-51.51)" style="fill:#407BFF"></rect><path d="M629.2,208a74.53,74.53,0,0,1,12.44,0,74.53,74.53,0,0,1-12.44,0Z" style="fill:#fff"></path><g style="opacity:0.30000000000000004"><polygon points="657.06 248.01 653.92 232.13 650.22 231.98 648.6 210.1 652.35 227.76 656.39 226.86 660.21 247.38 657.06 248.01"></polygon></g><path d="M683.65,220.76l-31.3,7s-4.86-20.71-5.05-26.37,7-23.21,17.87-19.59c0,0,3.3-.67,6.31,3.75C672.69,187.32,683.65,220.76,683.65,220.76Z" style="fill:#407BFF"></path><path d="M648.05,198.78a17.88,17.88,0,0,1,.35-4.54,20.53,20.53,0,0,1,1.69-4.64,11.69,11.69,0,0,1,3.64-4.68,13,13,0,0,1,5.55-2.18,25.52,25.52,0,0,1,4.94-.24,19.39,19.39,0,0,1,3.31.41,11.32,11.32,0,0,0,1.2.31,1.06,1.06,0,0,0-.29-.16,6.32,6.32,0,0,0-.86-.33,16.41,16.41,0,0,0-3.34-.57,23.59,23.59,0,0,0-5,.14,13.15,13.15,0,0,0-5.75,2.23,11.76,11.76,0,0,0-3.77,4.88,19.29,19.29,0,0,0-1.62,4.76,12.72,12.72,0,0,0-.23,3.39,7.49,7.49,0,0,0,.13.91A1.11,1.11,0,0,0,648.05,198.78Z" style="fill:#263238"></path><path d="M615.38,272.18s-15.92,2.44-16.78,4.76-1.16,11.54.86,13.93,8.25,1.52,7.52-.49-3.77-1.32-3.77-1.32l-2-5.52,2.84-2.23s4.21,4,5.65,3.86,5.57,1.74,8.34-2,4.61-4.12,4.61-4.12Z" style="fill:#ffbf9d"></path><path d="M614.85,282.9c-.26.21-2.52,4.38-5,5.91s-5.89,3.24-6.84,1.73a9.59,9.59,0,0,1-1.22-3.3l9.78-4.85Z" style="fill:#ffbf9d"></path><path d="M439.93,458.82l-52.51-46a2.76,2.76,0,1,1,3.64-4.15l50.39,44.13c25.9-30.57,131.88-155.49,136.63-158.54a60.36,60.36,0,0,1,10.67-4.81,62.65,62.65,0,0,0,7.44-3.13,27.83,27.83,0,0,0,7.08-5.84,2.76,2.76,0,0,1,4.27,3.49,32.79,32.79,0,0,1-8.69,7.19,66.8,66.8,0,0,1-8.15,3.46,57,57,0,0,0-9.56,4.24c-5.06,4.19-84.79,97.68-137.29,159.65a2.7,2.7,0,0,1-1.9,1h-.2A2.72,2.72,0,0,1,439.93,458.82Zm141.14-159.9h0Z" style="fill:#e0e0e0"></path><path d="M439.93,458.82l-52.51-46a2.76,2.76,0,1,1,3.64-4.15l50.39,44.13c25.9-30.57,131.88-155.49,136.63-158.54a60.36,60.36,0,0,1,10.67-4.81,62.65,62.65,0,0,0,7.44-3.13,27.83,27.83,0,0,0,7.08-5.84,2.76,2.76,0,0,1,4.27,3.49,32.79,32.79,0,0,1-8.69,7.19,66.8,66.8,0,0,1-8.15,3.46,57,57,0,0,0-9.56,4.24c-5.06,4.19-84.79,97.68-137.29,159.65a2.7,2.7,0,0,1-1.9,1h-.2A2.72,2.72,0,0,1,439.93,458.82Zm141.14-159.9h0Z" style="fill:none"></path><path d="M581.07,298.92c-.06,0-.13.07-.18,0s0-.24.07-.26l.25.46h-.14c-.06,0-.11-.06-.11-.1s0-.1.11-.14.13-.07.12-.14a.14.14,0,0,0-.11-.1H581l.25.46c.07,0,.13-.2,0-.25S581.13,298.89,581.07,298.92Z" style="fill:#263238"></path><path d="M439.93,458.82a3.05,3.05,0,0,0,.89.51,2.77,2.77,0,0,0,2.81-.62l7.65-9.06,28.75-34,44.11-51.78L551,332.6l14.51-16.74c2.5-2.83,5-5.7,7.55-8.58,1.28-1.44,2.55-2.9,3.87-4.32l2-2.16c.67-.72,1.39-1.41,2.08-2.11h0A37.1,37.1,0,0,1,586.5,296c1.9-.77,3.82-1.47,5.74-2.21a61.78,61.78,0,0,0,5.69-2.41,28.43,28.43,0,0,0,5.18-3.41,29.66,29.66,0,0,0,4.42-4.4,2.51,2.51,0,0,0-2.59-3.79,2.6,2.6,0,0,0-1.28.67c-.33.35-.71.81-1.08,1.18a31.24,31.24,0,0,1-2.37,2.23,23.49,23.49,0,0,1-5.53,3.52c-4,1.78-8.2,3.09-12.22,4.89-1,.44-2,.92-3,1.46a12.5,12.5,0,0,0-1.4.86l-.59.51-.58.59c-1.56,1.58-3.06,3.24-4.56,4.89-6,6.66-12,13.5-18,20.41-21,24.22-41.12,47.77-60,69.95l-52.74,62-.14.17-.17-.15-44.9-39.37-4.92-4.32a4.76,4.76,0,0,0-1.24-.91,2.59,2.59,0,0,0-3.52,1.71,2.64,2.64,0,0,0,.79,2.63l2.28,2q2.24,2,4.41,3.87L410,432.47c9.53,8.39,17,15,22.12,19.45l5.8,5.13c1.31,1.16,2,1.77,2,1.77s-.7-.57-2-1.72L432.06,452l-22.2-19.36L394,418.81,389.59,415l-2.28-2a2.93,2.93,0,0,1,1.42-5.09,2.92,2.92,0,0,1,1.65.19,4.9,4.9,0,0,1,1.34,1l4.92,4.3,45,39.31-.31,0L494,390.62c18.92-22.19,39-45.75,60-70,6-6.92,12-13.76,18-20.42,1.51-1.65,3-3.31,4.58-4.9l.59-.6.66-.57a14.31,14.31,0,0,1,1.44-.89c1-.54,2-1,3-1.48,4.06-1.81,8.27-3.12,12.22-4.88a23,23,0,0,0,5.41-3.44,30.3,30.3,0,0,0,2.34-2.19c.38-.39.69-.77,1.09-1.2a3,3,0,0,1,4.65,3.76,28.9,28.9,0,0,1-4.53,4.52,29.43,29.43,0,0,1-5.27,3.47c-1.88.94-3.82,1.69-5.74,2.43s-3.85,1.44-5.73,2.2a34.81,34.81,0,0,0-5.42,2.63l0,0c-.68.69-1.38,1.35-2,2.06l-2,2.15c-1.32,1.43-2.58,2.89-3.87,4.32l-7.55,8.57q-7.41,8.55-14.52,16.73l-26.9,31.27-44.18,51.7L451.4,449.75c-3.37,3.94-5.93,7-7.72,9a2.77,2.77,0,0,1-2.87.6A2.22,2.22,0,0,1,439.93,458.82Z" style="fill:#263238"></path><path d="M676.14,222.43l2.66,23.42a13.25,13.25,0,0,1-8.14,13.75L619,280.73l-5.1-8.55,43.5-28.55-3.87-16.09" style="fill:#ffbf9d"></path><path d="M648.2,208.7a1.53,1.53,0,0,0,0,.38c.06.29.13.64.21,1.06.2,1,.48,2.31.83,4,.75,3.42,1.79,8.11,3,13.5l.05.23.23,0,6.22-1.39,17.72-4,5.36-1.27,1.45-.38a1.65,1.65,0,0,0,.5-.16,2.7,2.7,0,0,0-.52.07l-1.47.28-5.4,1.13-17.75,3.9-6.22,1.4.28.17c-1.26-5.38-2.36-10.06-3.15-13.47-.4-1.62-.73-2.94-1-3.92-.11-.41-.2-.76-.28-1A1.3,1.3,0,0,0,648.2,208.7Z" style="fill:#263238"></path></g><g id="freepik--character-1--inject-74"><rect x="191.04" y="211.02" width="80.79" height="62.31" transform="translate(462.86 484.35) rotate(180)" style="fill:#407BFF"></rect><rect x="197.89" y="259.15" width="6.19" height="7" transform="translate(401.97 525.3) rotate(180)" style="fill:#fafafa"></rect><rect x="238" y="211.18" width="9.18" height="13.3" style="fill:#ebebeb"></rect><rect x="238" y="259.85" width="9.18" height="13.3" style="fill:#ebebeb"></rect><path d="M211.2,273.76c-.14,0-.26-13.71-.26-30.61s.12-30.61.26-30.61.26,13.71.26,30.61S211.34,273.76,211.2,273.76Z" style="fill:#263238"></path><path d="M256.17,223.46a57.78,57.78,0,0,1,4.43-4.38c1-.65,5.15-3,5.15-3s7-.71,7.87-.09a7.6,7.6,0,0,1,1.42,1.27l1,0s2.33-.35,2.68,1.08a3.1,3.1,0,0,1-1.37,3.1,4,4,0,0,1-.72.4l.95-.25s2,1.49,1.61,2.73a6.38,6.38,0,0,1-1.72,2.33,2.29,2.29,0,0,1-.11,2.58l-1,1.35a2.81,2.81,0,0,1,.32,2.81c-.74,1.44-5.24,2.79-5.24,2.79s-7.55.66-9,.32a47.63,47.63,0,0,0-4.76-.63Z" style="fill:#ffbf9d"></path><path d="M275.37,217.26a7.44,7.44,0,0,1-1.65.52,18.74,18.74,0,0,1-4.17.69,24.86,24.86,0,0,0-4.2,0,6.17,6.17,0,0,0-1.59.52c-.05,0,.43-.55,1.52-.79a18.71,18.71,0,0,1,4.25-.08,26.41,26.41,0,0,0,4.11-.57A7.39,7.39,0,0,1,275.37,217.26Z" style="fill:#ff9a6c"></path><path d="M277.89,221.32c.05,0-.09.24-.39.37a4.05,4.05,0,0,1-1.21.29,3.35,3.35,0,0,1-1.72-.08c0-.15.75-.31,1.67-.4l1.16-.13C277.68,221.33,277.85,221.26,277.89,221.32Z" style="fill:#ff9a6c"></path><path d="M277.65,226.36c.06.12-.37.46-1,.7s-1.18.25-1.21.13.44-.36,1-.58S277.58,226.24,277.65,226.36Z" style="fill:#ff9a6c"></path><path d="M276.79,230.3c.1.08-.29.67-1.07.95s-1.45.1-1.43,0,.61-.17,1.27-.42S276.69,230.21,276.79,230.3Z" style="fill:#ff9a6c"></path><polygon points="256.77 222.66 242.99 226.05 242.45 242.08 260.89 235.11 262.26 228.35 256.77 222.66" style="fill:#ffbf9d"></polygon><path d="M193.5,454.62v22.45l46.18-.22c-.34-4.55-25.68-13.63-25.68-13.63l.5-8.6Z" style="fill:#455a64"></path><g style="opacity:0.6000000000000001"><path d="M201,461.19a2,2,0,0,0-1.27,2.24,1.8,1.8,0,0,0,2.13,1.32,2.06,2.06,0,0,0,1.33-2.38,1.85,1.85,0,0,0-2.36-1.12" style="fill:#fff"></path></g><path d="M193.5,477.07v-3.59l44.09.52s2.3,1.35,2.09,2.85Z" style="fill:#263238"></path><path d="M214,463.65c0,.24-1.13.36-2.22,1.12s-1.67,1.76-1.87,1.67.1-1.44,1.44-2.35S214,463.44,214,463.65Z" style="fill:#263238"></path><path d="M220.05,465.73c0,.22-.91.63-1.66,1.63s-.95,2-1.18,2-.38-1.32.57-2.54S220,465.51,220.05,465.73Z" style="fill:#263238"></path><path d="M222.77,471.45c-.2.05-.53-1.11,0-2.39s1.59-1.81,1.69-1.62-.54.89-1,1.95S223,471.42,222.77,471.45Z" style="fill:#263238"></path><path d="M213.55,457.27c-.09.21-1.13-.09-2.39,0s-2.25.53-2.37.34.82-1.05,2.31-1.15S213.66,457.09,213.55,457.27Z" style="fill:#263238"></path><path d="M213.8,464.66a3,3,0,0,0,.1-1.37,7.45,7.45,0,0,0-1.22-3.54,6.94,6.94,0,0,0-1.81-1.87,1.57,1.57,0,0,0-1.55-.26,1.68,1.68,0,0,0-.91,1.47,6,6,0,0,0,4.05,5.26,5.88,5.88,0,0,0,6.24-1.82,4,4,0,0,0,.83-1.39,1.42,1.42,0,0,0,0-.89,1.09,1.09,0,0,0-.63-.65,1.94,1.94,0,0,0-1.44.14,8.45,8.45,0,0,0-1.08.6,9.49,9.49,0,0,0-2.64,2.56,3.54,3.54,0,0,0-.63,1.2,13,13,0,0,1,3.51-3.35c.62-.35,1.43-.85,2.08-.62.29.11.4.44.27.84a3.71,3.71,0,0,1-.73,1.14,5.32,5.32,0,0,1-5.58,1.59,5.42,5.42,0,0,1-3.66-4.57,1.14,1.14,0,0,1,.54-1,1.09,1.09,0,0,1,1,.2A6.69,6.69,0,0,1,212.3,460a7.77,7.77,0,0,1,1.35,3.29C213.78,464.17,213.75,464.65,213.8,464.66Z" style="fill:#263238"></path><polygon points="172.04 455.76 172.04 463.01 171.51 476.04 154.2 476.45 153.58 463.01 154.09 454.82 172.04 455.76" style="fill:#455a64"></polygon><path d="M163,475.06c-.1,0,.15-4,.56-8.9s.83-8.92.94-8.92-.15,4-.56,8.9S163.06,475.05,163,475.06Z" style="fill:#263238"></path><polygon points="171.58 473.87 154.09 474.07 154.09 476.45 171.6 476.43 171.58 473.87" style="fill:#263238"></polygon><path d="M154.13,466.38a2.67,2.67,0,0,1,.45-.69,11.89,11.89,0,0,1,1.54-1.61,11.32,11.32,0,0,1,2.8-1.84,9.36,9.36,0,0,1,10.79,1.95A7.56,7.56,0,0,1,171,466a2,2,0,0,1,.28.77,17.27,17.27,0,0,0-1.81-2.37,9.33,9.33,0,0,0-6.49-2.61,10.75,10.75,0,0,0-6.59,2.52C154.91,465.51,154.21,466.44,154.13,466.38Z" style="fill:#263238"></path><path d="M211,286.45l-2-3.16-64.7,3s-1.24,20.1-.34,27.46c.28,2.36,1.62,11.51,1.62,11.51l1.59,70.89c.61,5.63,2.14,64.81,2.14,64.81H175l5.23-94.86c.55-10.56.15-26.56.68-38.24l8.81,35.78,6.56,22s-1.41,10.92-3,23.92c-2.17,18.22-2.1,50.56-2.1,50.56l26.33.42s3.65-33.6,6.51-53.22L226.47,384c0-3.92-1.71-13.5-2-15.08Z" style="fill:#263238"></path><path d="M186.61,330a6.07,6.07,0,0,1-1.18-.4,10.28,10.28,0,0,1-1.35-.57,19.21,19.21,0,0,1-1.73-.89,21,21,0,0,1-2-1.23c-.72-.46-1.43-1-2.18-1.61a30.08,30.08,0,0,1-7.79-9.57,26.18,26.18,0,0,1-1.12-2.47,20,20,0,0,1-.79-2.22,16.68,16.68,0,0,1-.5-1.88,11.94,11.94,0,0,1-.28-1.44,7.09,7.09,0,0,1-.13-1.24c.1,0,.33,1.75,1.23,4.46.23.67.49,1.41.83,2.17s.73,1.57,1.15,2.41a31.65,31.65,0,0,0,7.68,9.44c.73.59,1.42,1.16,2.12,1.62s1.35.9,2,1.27C185,329.33,186.65,329.94,186.61,330Z" style="fill:#455a64"></path><path d="M211.59,301.86a5.85,5.85,0,0,1-2.23.07,13.17,13.17,0,0,1-5.14-1.67,12.82,12.82,0,0,1-4-3.62,6.12,6.12,0,0,1-1-2c.08,0,.47.72,1.32,1.78a14.48,14.48,0,0,0,4,3.4,15,15,0,0,0,4.94,1.75C210.74,301.8,211.59,301.78,211.59,301.86Z" style="fill:#455a64"></path><path d="M166.16,135.85l-.5,39.8c-.08,6.77,1.18,16.73,11.88,16.37h0c9.27-1,11.73-9.78,11.8-16.1,0-3,.07-5.49.09-5.8,0,0,10.15-.83,11-10.85.42-4.84.46-14.88.39-24a18.73,18.73,0,0,0-17.37-18.53l-1-.07C172,116.55,166,125.37,166.16,135.85Z" style="fill:#ffbf9d"></path><path d="M189.43,170.12a24.29,24.29,0,0,1-12.77-4.81s2.65,7.56,12.72,7.38Z" style="fill:#ff9a6c"></path><path d="M183.69,139.41c-.2.2-1.36-.73-3-.77s-2.93.78-3.1.56.12-.47.66-.85a4.27,4.27,0,0,1,2.5-.71,4.1,4.1,0,0,1,2.41.88C183.62,138.94,183.79,139.32,183.69,139.41Z" style="fill:#263238"></path><path d="M183.64,142.88a1.37,1.37,0,0,1-1.41,1.28,1.3,1.3,0,0,1-1.3-1.33,1.35,1.35,0,0,1,1.4-1.27A1.3,1.3,0,0,1,183.64,142.88Z" style="fill:#263238"></path><path d="M187.89,151.09a9.82,9.82,0,0,1,2.54-.27c.4,0,.77-.06.86-.33a2,2,0,0,0-.18-1.18c-.3-1-.61-2-.94-3.08-1.31-4.39-2.22-8-2-8s1.38,3.46,2.68,7.84c.31,1.08.61,2.11.89,3.1a2.28,2.28,0,0,1,.1,1.56,1,1,0,0,1-.69.53,3.33,3.33,0,0,1-.68,0A10,10,0,0,1,187.89,151.09Z" style="fill:#263238"></path><path d="M183,133.1c-.17.37-1.51.09-3.12.18s-2.93.43-3.12.07c-.08-.17.17-.51.72-.84a5.32,5.32,0,0,1,4.75-.2C182.77,132.6,183.05,132.92,183,133.1Z" style="fill:#263238"></path><path d="M198.92,136.21c-.18.3-1.49,0-3.08-.08s-2.9.15-3.07-.16c-.07-.16.19-.43.74-.67a5.92,5.92,0,0,1,4.69.19C198.74,135.77,199,136.07,198.92,136.21Z" style="fill:#263238"></path><path d="M166.43,143.33c-.16-.08-6.74-2.54-7,4.33s6.68,5.74,6.7,5.54S166.43,143.33,166.43,143.33Z" style="fill:#ffbf9d"></path><path d="M164.11,150.51s-.12.08-.33.17a1.19,1.19,0,0,1-.89,0,3,3,0,0,1-1.26-2.71,3.84,3.84,0,0,1,.4-1.7,1.38,1.38,0,0,1,.94-.89.6.6,0,0,1,.69.36c.09.2,0,.33.07.34s.16-.1.11-.39a.72.72,0,0,0-.25-.44.9.9,0,0,0-.66-.2,1.67,1.67,0,0,0-1.29,1,4.15,4.15,0,0,0-.49,1.9,3.1,3.1,0,0,0,1.62,3,1.31,1.31,0,0,0,1.1-.14C164.09,150.68,164.14,150.53,164.11,150.51Z" style="fill:#ff9a6c"></path><path d="M186.27,155.85c.08-.18-1.27-.58-2.22-1.84a7.92,7.92,0,0,1-1-1.8c-.2-.5-.35-.81-.42-.79s-.06.36.06.91a5,5,0,0,0,.88,2,4.15,4.15,0,0,0,1.75,1.34C185.9,155.89,186.25,155.91,186.27,155.85Z" style="fill:#263238"></path><path d="M199,140c-.2.21-1.35-.72-3-.77s-2.93.78-3.11.56.12-.46.67-.85a4.26,4.26,0,0,1,2.49-.71,4,4,0,0,1,2.41.88C198.93,139.57,199.09,140,199,140Z" style="fill:#263238"></path><path d="M198.72,143.37a1.36,1.36,0,0,1-1.41,1.27,1.3,1.3,0,0,1-1.31-1.32,1.36,1.36,0,0,1,1.41-1.27A1.3,1.3,0,0,1,198.72,143.37Z" style="fill:#263238"></path><path d="M207.81,122a5.43,5.43,0,0,0-6.76-2.14,7.43,7.43,0,0,0-12.79-6.41,3,3,0,0,0-1.48-2,6,6,0,0,0-2.46-.74,11.8,11.8,0,0,0-10.78,4.7,12.84,12.84,0,0,0-10.88,4c-3.23,3.58-3.84,11.87-.3,19l.83,4.49a4.14,4.14,0,0,1,2.81.69c.93.84,1.34,2.41,2.88,1.81.79-.3,1.51-2,1.77-2.75a39.17,39.17,0,0,0,1.69-16.55,12.62,12.62,0,0,1,3.88-2.8l-.11.1c2.8-1,6-1.92,8.62-.61,2.06,1,3.27,3.16,4.81,4.86a15.69,15.69,0,0,0,11.22,5.18c.14,2.82-.09,6.81.05,9.63l2.38-4.52v0c.19-.33.35-.67.51-1l.05-.1v0h0a21.46,21.46,0,0,0,1.5-1.84,5.9,5.9,0,0,0,1-6.05A5.42,5.42,0,0,0,207.81,122Z" style="fill:#263238"></path><polygon points="204.57 135.23 204.56 135.22 204.56 135.22 204.57 135.23" style="fill:#263238"></polygon><path d="M203.7,122.1s0,.05.05.15a2,2,0,0,1,.06.45,3,3,0,0,1-.4,1.61,3.11,3.11,0,0,1-.76.89,2.82,2.82,0,0,1-1.26.53,3.09,3.09,0,0,1-2.86-1.08l.17-.14a1.88,1.88,0,0,1,.48,1.34,2.48,2.48,0,0,1-.76,1.73,2.86,2.86,0,0,1-1.63.7,4.37,4.37,0,0,1-2.82-.78,8.82,8.82,0,0,1-1.51-1.28,4.06,4.06,0,0,1-.49-.55,4.55,4.55,0,0,1,.55.48,10.83,10.83,0,0,0,1.53,1.21,4.28,4.28,0,0,0,2.72.71,2.61,2.61,0,0,0,1.49-.65,2.27,2.27,0,0,0,.7-1.57,1.7,1.7,0,0,0-.42-1.19l.17-.15a2.9,2.9,0,0,0,2.65,1,2.7,2.7,0,0,0,1.93-1.3,3.06,3.06,0,0,0,.44-1.53C203.74,122.32,203.68,122.11,203.7,122.1Z" style="fill:#455a64"></path><path d="M195.1,114.57l.15.07a2.15,2.15,0,0,1,.38.26,3.26,3.26,0,0,1,1,1.34,2.64,2.64,0,0,1-.24,2.48,2,2,0,0,1-1.25.86,2.1,2.1,0,0,1-1.6-.31,1.71,1.71,0,0,1-.38-.38l.2-.11a1.91,1.91,0,0,1-.06,1.54,2,2,0,0,1-1,1,2.8,2.8,0,0,1-2.34,0,3.7,3.7,0,0,1-1.26-1,1.73,1.73,0,0,1-.33-.47s.14.15.39.41a4.07,4.07,0,0,0,1.27.87,2.64,2.64,0,0,0,2.18,0,1.88,1.88,0,0,0,.89-.93,1.69,1.69,0,0,0,.05-1.36l-.37-.85.56.74a1.68,1.68,0,0,0,.33.32,1.83,1.83,0,0,0,1.43.28,1.79,1.79,0,0,0,1.12-.76,2.51,2.51,0,0,0,.26-2.3,3.52,3.52,0,0,0-.94-1.33C195.28,114.7,195.09,114.59,195.1,114.57Z" style="fill:#455a64"></path><path d="M137.53,199.79s-7.72,43.82-7.34,47.92,2.42,10.62,7.07,11.73a20.44,20.44,0,0,0,8.94,0l-5.58-53.82Z" style="fill:#455a64"></path><path d="M210.66,267.3l-1.42-19.92.43-26.79-5.45-36a2.94,2.94,0,0,0-1.85-2.3L193.94,179l-1.21-4.75s-7.45-5.49-19.72-5.65c-3.78-.05-9.13,1.43-12.11,3.75l-.78,4.82s-9.23,6.56-11.28,8.49c-8.53,8.08-10.32,11.38-11.31,14.11S143.45,266,143.45,266l-.92,11.43-1.41,4.21c-.66,2.86,0,7.73,3,7.86l67.1-.28C214.19,289.26,211.23,270.23,210.66,267.3Z" style="fill:#455a64"></path><path d="M250.66,222.72,225.42,225c-1.32-3.59-3.57-1.4-3.57-1.4s-7.56-16.86-10-25.14c-2.72-9.25-5.62-12.86-6.87-14.55-.93-1.25-3.83-1.91-3.83-1.91a13.56,13.56,0,0,0-12.78,3.88c-7,7.36-4.39,27.8-4.39,27.8l9.8,14.28c.66,1.92,5.39,10,11,16.72a12.78,12.78,0,0,0,12.55,4.25l35.71-7.72A32.84,32.84,0,0,0,250.66,222.72Z" style="fill:#455a64"></path><path d="M193.94,179a1.19,1.19,0,0,1-.34-.07l-1-.25c-.83-.21-2-.5-3.56-.79a97.81,97.81,0,0,0-12-1.47,82.12,82.12,0,0,0-12.05,0,36.21,36.21,0,0,0-3.62.48l-1,.19-.34.05a1.2,1.2,0,0,1,.33-.1l1-.25a31.71,31.71,0,0,1,3.62-.57,73.51,73.51,0,0,1,12.08-.12,88.56,88.56,0,0,1,12,1.56c1.51.31,2.72.64,3.55.88l1,.31A1.68,1.68,0,0,1,193.94,179Z" style="fill:#263238"></path><g style="opacity:0.30000000000000004"><path d="M160.33,177.13c10.15,1.8,20.43,0,31.16,1.29-10.36-2.14-21.16-3.16-31.16-1.29"></path></g><g style="opacity:0.30000000000000004"><path d="M142.53,259.53c-5.7-13.36-4.6-28-3.83-42.52Z"></path></g><path d="M138.19,209.27l0,.16c0,.12,0,.27.05.46,0,.42.09,1,.16,1.75.13,1.55.32,3.75.55,6.47.46,5.45,1.09,13,1.85,21.32s1.55,15.85,2.18,21.3c.32,2.72.59,4.92.78,6.44l.21,1.75c0,.19,0,.34.05.46s0,.15,0,.16,0-.06,0-.16,0-.26-.07-.45c-.07-.42-.16-1-.27-1.75-.23-1.51-.53-3.71-.87-6.43-.69-5.44-1.5-13-2.26-21.3s-1.36-15.87-1.77-21.33c-.19-2.72-.35-4.92-.46-6.47,0-.75-.09-1.34-.11-1.76,0-.19,0-.34,0-.46S138.18,209.27,138.19,209.27Z" style="fill:#263238"></path><path d="M181.41,202.18l-.42,0h-1.2c-1,0-2.54,0-4.4,0-3.71.09-8.84.36-14.46,1s-10.68,1.62-14.31,2.41c-1.82.39-3.28.73-4.29,1l-1.16.27a1.79,1.79,0,0,1-.42.07l.4-.13,1.15-.32c1-.28,2.46-.65,4.28-1.07a135.15,135.15,0,0,1,28.81-3.43c1.86,0,3.36,0,4.4,0l1.2,0A2.93,2.93,0,0,1,181.41,202.18Z" style="fill:#263238"></path><path d="M156.52,216.37c-.08,0,.07-6.08.33-13.56s.54-13.54.62-13.54-.07,6.07-.33,13.55S156.6,216.37,156.52,216.37Z" style="fill:#263238"></path><g style="opacity:0.30000000000000004"><path d="M141.8,207A76.8,76.8,0,0,0,154,205.37a19,19,0,0,0-.68,5.45,12.5,12.5,0,0,0,2.71-5,7.55,7.55,0,0,0,3.07,5,16.44,16.44,0,0,0,.27-5.55q9.09-1.1,18.06-3a122.29,122.29,0,0,0-35.85,4.46"></path></g><g style="opacity:0.30000000000000004"><path d="M190.44,220.63s6.74,33,19.21,32.52l.24-4.85C202.88,245.16,196.64,233.08,190.44,220.63Z"></path></g><path d="M247.32,242.89a5.92,5.92,0,0,1-.74.19l-2.15.46-7.9,1.61-11.73,2.32c-2.21.44-4.5,1-6.92,1.44a19.1,19.1,0,0,1-5.69.21,5.5,5.5,0,0,1-2-.52,1,1,0,0,1-.34-.3l.15.11a8.86,8.86,0,0,1-3.36-2,25.3,25.3,0,0,1-2.59-2.7A58.2,58.2,0,0,1,200,238c-2.42-3.76-4.36-7.29-5.94-10.27s-2.77-5.44-3.58-7.14c-.39-.82-.69-1.48-.92-2a5.75,5.75,0,0,1-.29-.7,3.48,3.48,0,0,1,.38.66c.24.48.58,1.12,1,1.93.87,1.67,2.11,4.1,3.72,7.06s3.58,6.46,6,10.19a61.45,61.45,0,0,0,4.12,5.63,25.35,25.35,0,0,0,2.55,2.64,8.36,8.36,0,0,0,3.16,1.88l.15.11a1.13,1.13,0,0,0,.17.12,5,5,0,0,0,1.76.47c.63.07,1.26.1,1.88.11a17.93,17.93,0,0,0,3.68-.31c2.4-.43,4.7-1,6.91-1.41l11.76-2.22,7.93-1.46,2.16-.37A4.25,4.25,0,0,1,247.32,242.89Z" style="fill:#263238"></path><path d="M250.66,222.72a1.66,1.66,0,0,1-.48.09l-1.4.17-5.24.54-18.09,1.74h-.17l-.08-.16a4.28,4.28,0,0,0-1.31-1.75,1.36,1.36,0,0,0-1.83.41l-.28.33-.16-.39c-.71-1.7-1.45-3.47-2.2-5.28-3.76-9.17-7-17.54-9.37-23.57-1.2-3-2.2-5.44-2.92-7.1l-.84-1.91a3.46,3.46,0,0,1-.28-.68,3.7,3.7,0,0,1,.37.63c.23.42.54,1,.94,1.87.77,1.64,1.83,4.05,3.07,7.05,2.5,6,5.75,14.35,9.51,23.51.75,1.81,1.49,3.58,2.19,5.28l-.44-.06a2.36,2.36,0,0,1,1.15-.76,1.66,1.66,0,0,1,1.36.24,4.66,4.66,0,0,1,1.49,2l-.25-.14,18.12-1.55,5.24-.4,1.41-.09Z" style="fill:#263238"></path><path d="M199.91,185.57a28.9,28.9,0,0,0-5.53.44,13.35,13.35,0,0,0-5.4,2.44,14.13,14.13,0,0,0-4.23,5.86,20.5,20.5,0,0,0-1.43,7.16,39.07,39.07,0,0,0,.33,6c.21,1.71.44,3.09.58,4.05a8.11,8.11,0,0,1,.17,1.49,8.17,8.17,0,0,1-.37-1.46c-.2-.94-.49-2.32-.74-4a35.15,35.15,0,0,1-.45-6.09,20.3,20.3,0,0,1,1.43-7.35,14.2,14.2,0,0,1,4.42-6,13.14,13.14,0,0,1,5.62-2.43,17.28,17.28,0,0,1,4.11-.26c.48,0,.86.06,1.11.1A1.56,1.56,0,0,1,199.91,185.57Z" style="fill:#263238"></path></g></svg>