<svg xmlns="http://www.w3.org/2000/svg" viewBox="0 0 500 500"><g id="freepik--background-complete--inject-73"><rect x="416.78" y="398.49" width="33.12" height="0.25" style="fill:#ebebeb"></rect><rect x="322.53" y="401.21" width="8.69" height="0.25" style="fill:#ebebeb"></rect><rect x="396.59" y="389.21" width="19.19" height="0.25" style="fill:#ebebeb"></rect><rect x="52.46" y="390.89" width="43.19" height="0.25" style="fill:#ebebeb"></rect><rect x="104.56" y="390.89" width="6.33" height="0.25" style="fill:#ebebeb"></rect><rect x="131.47" y="395.11" width="93.68" height="0.25" style="fill:#ebebeb"></rect><path d="M238.4,337.8H45.3a5.71,5.71,0,0,1-5.71-5.71V60.66A5.71,5.71,0,0,1,45.3,55H238.4a5.71,5.71,0,0,1,5.71,5.71V332.09A5.71,5.71,0,0,1,238.4,337.8ZM45.3,55.2a5.47,5.47,0,0,0-5.46,5.46V332.09a5.47,5.47,0,0,0,5.46,5.46H238.4a5.47,5.47,0,0,0,5.46-5.46V60.66a5.47,5.47,0,0,0-5.46-5.46Z" style="fill:#ebebeb"></path><path d="M454.7,337.8H261.6a5.71,5.71,0,0,1-5.71-5.71V60.66A5.71,5.71,0,0,1,261.6,55H454.7a5.71,5.71,0,0,1,5.71,5.71V332.09A5.71,5.71,0,0,1,454.7,337.8ZM261.6,55.2a5.47,5.47,0,0,0-5.46,5.46V332.09a5.47,5.47,0,0,0,5.46,5.46H454.7a5.47,5.47,0,0,0,5.46-5.46V60.66a5.47,5.47,0,0,0-5.46-5.46Z" style="fill:#ebebeb"></path><rect y="382.4" width="500" height="0.25" style="fill:#ebebeb"></rect><rect x="66.05" y="95.27" width="120.8" height="286.73" style="fill:#e6e6e6"></rect><rect x="71.18" y="100.47" width="110.53" height="281.54" style="fill:#f0f0f0"></rect><rect x="79.55" y="137.61" width="94.39" height="103.11" style="fill:#fafafa"></rect><rect x="79.55" y="271.9" width="94.39" height="103.11" style="fill:#e6e6e6"></rect><path d="M96.83,107.94h59.83a17.28,17.28,0,0,1,17.28,17.28v7.05a0,0,0,0,1,0,0H79.55a0,0,0,0,1,0,0v-7.05A17.28,17.28,0,0,1,96.83,107.94Z" style="fill:#fafafa"></path><rect x="79.55" y="245.36" width="8.06" height="21" style="fill:#e6e6e6"></rect><rect x="87.61" y="245.36" width="1.58" height="21" transform="translate(176.79 511.72) rotate(180)" style="fill:#e0e0e0"></rect><path d="M84.94,253.61a3.4,3.4,0,1,1-3.39-3.4A3.4,3.4,0,0,1,84.94,253.61Z" style="fill:#e0e0e0"></path><rect x="82.55" y="259.48" width="1.75" height="4.25" style="fill:#e0e0e0"></rect><circle cx="78.55" cy="253.61" r="4.75" style="fill:#f5f5f5"></circle><polygon points="112.75 107.94 107.36 107.94 102.18 132.28 107.58 132.28 112.75 107.94" style="fill:#f5f5f5"></polygon><path d="M172.78,119a17.31,17.31,0,0,0-4.08-6.2l-4.13,19.43H170Z" style="fill:#f5f5f5"></path><path d="M161.59,108.66a17.49,17.49,0,0,0-4.93-.72H136.74l-5.17,24.33h25Z" style="fill:#f5f5f5"></path><polygon points="106.45 137.61 101.05 137.61 79.55 238.77 79.55 240.72 84.53 240.72 106.45 137.61" style="fill:#f5f5f5"></polygon><polygon points="155.43 137.61 130.43 137.61 108.52 240.72 133.52 240.72 155.43 137.61" style="fill:#f5f5f5"></polygon><polygon points="168.83 137.61 163.43 137.61 141.52 240.72 146.92 240.72 168.83 137.61" style="fill:#f5f5f5"></polygon><rect x="341" y="54.25" width="1.35" height="40.02" style="fill:#e6e6e6"></rect><polygon points="298.92 116.5 341.68 90.66 384.44 116.5 298.92 116.5" style="fill:#f0f0f0"></polygon><polygon points="344.63 116.5 341.68 90.66 360.9 116.5 344.63 116.5" style="fill:#f5f5f5"></polygon><rect x="224.94" y="81" width="30.56" height="8.2" rx="1.32" style="fill:#f5f5f5"></rect><rect x="224.94" y="101.35" width="30.56" height="8.2" rx="1.32" style="fill:#f5f5f5"></rect><rect x="215.61" y="91.16" width="30.56" height="8.2" rx="1.32" style="fill:#f5f5f5"></rect><rect x="247.6" y="91.16" width="30.56" height="8.2" rx="1.32" style="fill:#f0f0f0"></rect><rect x="402.88" y="100.38" width="31.55" height="8.47" rx="1.32" transform="translate(837.31 209.22) rotate(180)" style="fill:#f5f5f5"></rect><rect x="412.51" y="89.88" width="31.55" height="8.47" rx="1.32" transform="translate(856.58 188.24) rotate(180)" style="fill:#f5f5f5"></rect><rect x="379.49" y="89.88" width="31.55" height="8.47" rx="1.32" transform="translate(790.53 188.24) rotate(180)" style="fill:#f0f0f0"></rect></g><g id="freepik--Shadow--inject-73"><ellipse id="freepik--path--inject-73" cx="250" cy="412.39" rx="193.89" ry="11.32" style="fill:#f5f5f5"></ellipse></g><g id="freepik--Shelf--inject-73"><path d="M248.78,145.4V408.77H422V145.4Z" style="fill:#407BFF"></path><path d="M248.78,145.4V408.77H422V145.4Z" style="fill:#fff;opacity:0.2"></path><path d="M213.89,145.4V408.77h34.89V145.4Z" style="fill:#407BFF"></path><path d="M213.89,145.4V408.77h34.89V145.4Z" style="fill:#fff;opacity:0.5"></path><path d="M309.61,145.4V408.77h34.88V145.4Z" style="fill:#407BFF"></path><path d="M309.61,145.4V408.77h34.88V145.4Z" style="fill:#fff;opacity:0.5"></path><path d="M403.79,143.18V411h36.42V143.18Z" style="fill:#407BFF"></path><path d="M403.79,143.18V411h36.42V143.18Z" style="fill:#fff;opacity:0.4"></path><path d="M311.13,143.18H212.35V411H406.87V143.18Zm-95.7,4.44h92.62V231H215.43Zm0,87.8h92.62v83.34H215.43Zm0,171.13V323.21h92.62v83.34Zm188.36,0H311.17V323.21h92.62Zm0-87.79H311.17V235.42h92.62ZM311.17,231V147.62h92.62V231Z" style="fill:#407BFF"></path><path d="M212.35,143.18V411H406.87V143.18Zm3.08,4.44h92.62V231H215.43Zm0,87.8h92.62v83.34H215.43Zm0,171.13V323.21h92.62v83.34Zm188.36,0H311.17V323.21h92.62Zm0-87.79H311.17V235.42h92.62ZM311.17,231V147.62h92.62V231Z" style="fill:#fff;opacity:0.7000000000000001"></path><rect x="343.23" y="194.36" width="36.79" height="36.79" style="fill:#263238"></rect><rect x="343.23" y="194.36" width="36.79" height="36.79" style="fill:#fff;opacity:0.7000000000000001"></rect><rect x="380.02" y="194.36" width="16.4" height="36.79" transform="translate(776.44 425.51) rotate(180)" style="fill:#263238"></rect><rect x="380.02" y="194.36" width="16.4" height="36.79" transform="translate(776.44 425.51) rotate(180)" style="fill:#fff;opacity:0.6000000000000001"></rect><rect x="363.95" y="219.23" width="12.72" height="8.41" style="fill:#fff;opacity:0.7000000000000001"></rect><rect x="366.54" y="221.05" width="0.91" height="4.79" style="fill:#263238"></rect><rect x="368.16" y="221.05" width="0.46" height="4.79" style="fill:#263238"></rect><rect x="369.09" y="221.05" width="1.26" height="4.79" style="fill:#263238"></rect><rect x="370.95" y="221.05" width="0.46" height="4.79" style="fill:#263238"></rect><rect x="372.12" y="221.05" width="0.46" height="4.79" style="fill:#263238"></rect><rect x="373.16" y="221.05" width="0.91" height="4.79" style="fill:#263238"></rect><rect x="381.89" y="188.04" width="16.4" height="8.18" style="fill:#263238"></rect><rect x="381.89" y="188.04" width="16.4" height="8.18" style="fill:#fff;opacity:0.4"></rect><rect x="341.36" y="188.04" width="40.53" height="8.18" style="fill:#263238"></rect><rect x="341.36" y="188.04" width="40.53" height="8.18" style="fill:#fff;opacity:0.5"></rect><rect x="387.49" y="188.04" width="5.19" height="11.92" style="fill:#407BFF"></rect><rect x="387.49" y="219.23" width="5.19" height="11.92" style="fill:#407BFF"></rect><rect x="387.49" y="188.04" width="5.19" height="11.92" style="fill:#fff;opacity:0.3"></rect><rect x="387.49" y="219.23" width="5.19" height="11.92" style="fill:#fff;opacity:0.3"></rect><rect x="222.68" y="271.39" width="47.28" height="47.28" style="fill:#263238"></rect><rect x="222.68" y="271.39" width="47.28" height="47.28" style="fill:#fff;opacity:0.7000000000000001"></rect><rect x="269.96" y="271.39" width="21.07" height="47.28" transform="translate(560.99 590.06) rotate(180)" style="fill:#263238"></rect><rect x="269.96" y="271.39" width="21.07" height="47.28" transform="translate(560.99 590.06) rotate(180)" style="fill:#fff;opacity:0.6000000000000001"></rect><rect x="249.3" y="303.35" width="16.35" height="10.81" style="fill:#fff;opacity:0.7000000000000001"></rect><rect x="252.64" y="305.68" width="1.17" height="6.15" style="fill:#263238"></rect><rect x="254.72" y="305.68" width="0.59" height="6.15" style="fill:#263238"></rect><rect x="255.91" y="305.68" width="1.62" height="6.15" style="fill:#263238"></rect><rect x="258.31" y="305.68" width="0.59" height="6.15" style="fill:#263238"></rect><rect x="259.81" y="305.68" width="0.59" height="6.15" style="fill:#263238"></rect><rect x="261.15" y="305.68" width="1.17" height="6.15" style="fill:#263238"></rect><rect x="272.36" y="263.27" width="21.07" height="10.52" style="fill:#263238"></rect><rect x="272.36" y="263.27" width="21.07" height="10.52" style="fill:#fff;opacity:0.4"></rect><rect x="220.28" y="263.27" width="52.08" height="10.52" style="fill:#263238"></rect><rect x="220.28" y="263.27" width="52.08" height="10.52" style="fill:#fff;opacity:0.5"></rect><rect x="279.56" y="263.27" width="6.67" height="15.32" style="fill:#407BFF"></rect><rect x="279.56" y="303.35" width="6.67" height="15.32" style="fill:#407BFF"></rect><rect x="279.56" y="263.27" width="6.67" height="15.32" style="fill:#fff;opacity:0.3"></rect><rect x="279.56" y="303.35" width="6.67" height="15.32" style="fill:#fff;opacity:0.3"></rect><rect x="225.6" y="359.1" width="47.28" height="47.28" style="fill:#263238"></rect><rect x="225.6" y="359.1" width="47.28" height="47.28" style="fill:#fff;opacity:0.7000000000000001"></rect><rect x="272.88" y="359.1" width="21.07" height="47.28" transform="translate(566.83 765.49) rotate(180)" style="fill:#263238"></rect><rect x="272.88" y="359.1" width="21.07" height="47.28" transform="translate(566.83 765.49) rotate(180)" style="fill:#fff;opacity:0.6000000000000001"></rect><rect x="252.22" y="391.07" width="16.35" height="10.81" style="fill:#fff;opacity:0.7000000000000001"></rect><rect x="255.55" y="393.4" width="1.17" height="6.15" style="fill:#263238"></rect><rect x="257.64" y="393.4" width="0.59" height="6.15" style="fill:#263238"></rect><rect x="258.83" y="393.4" width="1.62" height="6.15" style="fill:#263238"></rect><rect x="261.23" y="393.4" width="0.59" height="6.15" style="fill:#263238"></rect><rect x="262.73" y="393.4" width="0.59" height="6.15" style="fill:#263238"></rect><rect x="264.06" y="393.4" width="1.17" height="6.15" style="fill:#263238"></rect><rect x="275.28" y="350.98" width="21.07" height="10.52" style="fill:#263238"></rect><rect x="275.28" y="350.98" width="21.07" height="10.52" style="fill:#fff;opacity:0.5"></rect><rect x="223.2" y="350.98" width="52.08" height="10.52" style="fill:#263238"></rect><rect x="223.2" y="350.98" width="52.08" height="10.52" style="fill:#fff;opacity:0.6000000000000001"></rect><rect x="282.48" y="350.98" width="6.67" height="15.32" style="fill:#407BFF"></rect><rect x="282.48" y="391.07" width="6.67" height="15.32" style="fill:#407BFF"></rect><rect x="282.48" y="350.98" width="6.67" height="15.32" style="fill:#fff"></rect><rect x="282.48" y="391.07" width="6.67" height="15.32" style="fill:#fff"></rect><rect x="325.11" y="359.1" width="47.28" height="47.28" style="fill:#263238"></rect><rect x="325.11" y="359.1" width="47.28" height="47.28" style="fill:#fff;opacity:0.7000000000000001"></rect><rect x="372.39" y="359.1" width="21.07" height="47.28" transform="translate(765.86 765.49) rotate(180)" style="fill:#263238"></rect><rect x="372.39" y="359.1" width="21.07" height="47.28" transform="translate(765.86 765.49) rotate(180)" style="fill:#fff;opacity:0.6000000000000001"></rect><rect x="351.74" y="391.07" width="16.35" height="10.81" style="fill:#fff;opacity:0.7000000000000001"></rect><rect x="355.07" y="393.4" width="1.17" height="6.15" style="fill:#263238"></rect><rect x="357.15" y="393.4" width="0.59" height="6.15" style="fill:#263238"></rect><rect x="358.34" y="393.4" width="1.62" height="6.15" style="fill:#263238"></rect><rect x="360.74" y="393.4" width="0.59" height="6.15" style="fill:#263238"></rect><rect x="362.24" y="393.4" width="0.59" height="6.15" style="fill:#263238"></rect><rect x="363.58" y="393.4" width="1.17" height="6.15" style="fill:#263238"></rect><rect x="374.79" y="350.98" width="21.07" height="10.52" style="fill:#263238"></rect><rect x="374.79" y="350.98" width="21.07" height="10.52" style="fill:#fff;opacity:0.4"></rect><rect x="322.71" y="350.98" width="52.08" height="10.52" style="fill:#263238"></rect><rect x="322.71" y="350.98" width="52.08" height="10.52" style="fill:#fff;opacity:0.5"></rect><rect x="381.99" y="350.98" width="6.67" height="15.32" style="fill:#407BFF"></rect><rect x="381.99" y="391.07" width="6.67" height="15.32" style="fill:#407BFF"></rect><rect x="381.99" y="350.98" width="6.67" height="15.32" style="fill:#fff;opacity:0.3"></rect><rect x="381.99" y="391.07" width="6.67" height="15.32" style="fill:#fff;opacity:0.3"></rect><rect x="325.11" y="271.39" width="47.28" height="47.28" style="fill:#263238"></rect><rect x="325.11" y="271.39" width="47.28" height="47.28" style="fill:#fff;opacity:0.7000000000000001"></rect><rect x="372.39" y="271.39" width="21.07" height="47.28" transform="translate(765.86 590.06) rotate(180)" style="fill:#263238"></rect><rect x="372.39" y="271.39" width="21.07" height="47.28" transform="translate(765.86 590.06) rotate(180)" style="fill:#fff;opacity:0.6000000000000001"></rect><rect x="351.74" y="303.35" width="16.35" height="10.81" style="fill:#fff;opacity:0.7000000000000001"></rect><rect x="355.07" y="305.68" width="1.17" height="6.15" style="fill:#263238"></rect><rect x="357.15" y="305.68" width="0.59" height="6.15" style="fill:#263238"></rect><rect x="358.34" y="305.68" width="1.62" height="6.15" style="fill:#263238"></rect><rect x="360.74" y="305.68" width="0.59" height="6.15" style="fill:#263238"></rect><rect x="362.24" y="305.68" width="0.59" height="6.15" style="fill:#263238"></rect><rect x="363.58" y="305.68" width="1.17" height="6.15" style="fill:#263238"></rect><rect x="374.79" y="263.27" width="21.07" height="10.52" style="fill:#263238"></rect><rect x="374.79" y="263.27" width="21.07" height="10.52" style="fill:#fff;opacity:0.4"></rect><rect x="322.71" y="263.27" width="52.08" height="10.52" style="fill:#263238"></rect><rect x="322.71" y="263.27" width="52.08" height="10.52" style="fill:#fff;opacity:0.5"></rect><rect x="381.99" y="263.27" width="6.67" height="15.32" style="fill:#407BFF"></rect><rect x="381.99" y="303.35" width="6.67" height="15.32" style="fill:#407BFF"></rect><rect x="381.99" y="263.27" width="6.67" height="15.32" style="fill:#fff;opacity:0.3"></rect><rect x="381.99" y="303.35" width="6.67" height="15.32" style="fill:#fff;opacity:0.3"></rect><rect x="257.36" y="200.77" width="30.18" height="30.18" style="fill:#263238"></rect><rect x="257.36" y="200.77" width="30.18" height="30.18" style="fill:#fff;opacity:0.7000000000000001"></rect><rect x="287.54" y="200.77" width="13.45" height="30.18" transform="translate(588.53 431.72) rotate(180)" style="fill:#263238"></rect><rect x="287.54" y="200.77" width="13.45" height="30.18" transform="translate(588.53 431.72) rotate(180)" style="fill:#fff;opacity:0.6000000000000001"></rect><rect x="274.36" y="221.18" width="10.44" height="6.9" style="fill:#fff;opacity:0.7000000000000001"></rect><rect x="276.48" y="222.66" width="0.75" height="3.93" style="fill:#263238"></rect><rect x="277.81" y="222.66" width="0.37" height="3.93" style="fill:#263238"></rect><rect x="278.57" y="222.66" width="1.04" height="3.93" style="fill:#263238"></rect><rect x="280.1" y="222.66" width="0.37" height="3.93" style="fill:#263238"></rect><rect x="281.06" y="222.66" width="0.37" height="3.93" style="fill:#263238"></rect><rect x="281.91" y="222.66" width="0.75" height="3.93" style="fill:#263238"></rect><rect x="289.07" y="195.59" width="13.45" height="6.71" style="fill:#263238"></rect><rect x="289.07" y="195.59" width="13.45" height="6.71" style="fill:#fff;opacity:0.4"></rect><rect x="255.83" y="195.59" width="33.25" height="6.71" style="fill:#263238"></rect><rect x="255.83" y="195.59" width="33.25" height="6.71" style="fill:#fff;opacity:0.5"></rect><rect x="293.67" y="195.59" width="4.26" height="9.78" style="fill:#407BFF"></rect><rect x="293.67" y="221.18" width="4.26" height="9.78" style="fill:#407BFF"></rect><rect x="293.67" y="195.59" width="4.26" height="9.78" style="fill:#fff;opacity:0.3"></rect><rect x="293.67" y="221.18" width="4.26" height="9.78" style="fill:#fff;opacity:0.3"></rect><rect x="225.54" y="179.51" width="30.18" height="51.45" style="fill:#263238"></rect><rect x="225.54" y="179.51" width="30.18" height="51.45" style="fill:#fff;opacity:0.7000000000000001"></rect><rect x="255.72" y="179.51" width="13.45" height="51.45" transform="translate(524.9 410.46) rotate(180)" style="fill:#263238"></rect><rect x="255.72" y="179.51" width="13.45" height="51.45" transform="translate(524.9 410.46) rotate(180)" style="fill:#fff;opacity:0.6000000000000001"></rect><rect x="257.23" y="221.18" width="10.44" height="6.9" style="fill:#fff;opacity:0.7000000000000001"></rect><rect x="259.36" y="222.66" width="0.75" height="3.93" style="fill:#263238"></rect><rect x="260.69" y="222.66" width="0.37" height="3.93" style="fill:#263238"></rect><rect x="261.45" y="222.66" width="1.04" height="3.93" style="fill:#263238"></rect><rect x="262.98" y="222.66" width="0.37" height="3.93" style="fill:#263238"></rect><rect x="263.94" y="222.66" width="0.37" height="3.93" style="fill:#263238"></rect><rect x="264.79" y="222.66" width="0.75" height="3.93" style="fill:#263238"></rect><rect x="257.26" y="174.32" width="13.45" height="6.71" style="fill:#263238"></rect><rect x="257.26" y="174.32" width="13.45" height="6.71" style="fill:#fff;opacity:0.4"></rect><rect x="224.01" y="174.32" width="33.25" height="6.71" style="fill:#263238"></rect><rect x="224.01" y="174.32" width="33.25" height="6.71" style="fill:#fff;opacity:0.5"></rect><rect x="240.41" y="174.32" width="4.26" height="9.78" style="fill:#407BFF"></rect><rect x="240.41" y="221.18" width="4.26" height="9.78" style="fill:#407BFF"></rect><rect x="240.41" y="174.32" width="4.26" height="9.78" style="fill:#fff;opacity:0.3"></rect><rect x="240.41" y="221.18" width="4.26" height="9.78" style="fill:#fff;opacity:0.3"></rect></g><g id="freepik--Scale--inject-73"><path d="M127.63,396h-56V316.68a10.16,10.16,0,0,1,10.15-10.14h35.67a10.15,10.15,0,0,1,10.14,10.14ZM75,392.59h49.24V316.68a6.79,6.79,0,0,0-6.78-6.79H81.82A6.8,6.8,0,0,0,75,316.68Z" style="fill:#263238"></path><path d="M127.63,396h-56V316.68a10.16,10.16,0,0,1,10.15-10.14h35.67a10.15,10.15,0,0,1,10.14,10.14ZM75,392.59h49.24V316.68a6.79,6.79,0,0,0-6.78-6.79H81.82A6.8,6.8,0,0,0,75,316.68Z" style="fill:#fff;opacity:0.5"></path><rect x="95.71" y="248.03" width="7.89" height="153.34" style="fill:#407BFF"></rect><rect x="95.71" y="248.03" width="7.89" height="153.34" style="fill:#fff;opacity:0.5"></rect><polygon points="68.73 411 64.85 411 64.01 405.44 69.57 405.44 68.73 411" style="fill:#263238"></polygon><polygon points="134.46 411 130.57 411 129.73 405.44 135.29 405.44 134.46 411" style="fill:#263238"></polygon><rect x="62.18" y="398.11" width="74.94" height="8.58" style="fill:#263238"></rect><rect x="62.18" y="398.11" width="74.94" height="8.58" style="fill:#fff;opacity:0.5"></rect><rect x="59.49" y="391.01" width="80.33" height="8.37" style="fill:#407BFF"></rect><path d="M119.49,235a28.06,28.06,0,0,0-39.67,0v5L92,252.28a10.77,10.77,0,0,1,15.24,0l12.22-12.21Z" style="fill:#407BFF"></path><path d="M119.49,235a28.06,28.06,0,0,0-39.67,0v5L92,252.28a10.77,10.77,0,0,1,15.24,0l12.22-12.21Z" style="opacity:0.30000000000000004"></path><path d="M107.27,247.25a10.77,10.77,0,0,0-15.24,0L79.82,235a28.06,28.06,0,0,1,39.67,0Z" style="fill:#407BFF"></path><path d="M82.84,235.09l9.31,9.31a12.92,12.92,0,0,1,15,0l9.31-9.31A26,26,0,0,0,82.84,235.09Z" style="fill:#fff;opacity:0.7000000000000001"></path><path d="M96.68,242.28l-3.2-9.12a.73.73,0,0,0-1.39.46l2.84,9.29A12.18,12.18,0,0,1,96.68,242.28Z" style="fill:#263238"></path><rect x="67.76" y="354.06" width="36.79" height="36.79" style="fill:#263238"></rect><rect x="67.76" y="354.06" width="36.79" height="36.79" style="fill:#fff;opacity:0.7000000000000001"></rect><rect x="104.56" y="354.06" width="16.4" height="36.79" transform="translate(225.51 744.92) rotate(180)" style="fill:#263238"></rect><rect x="104.56" y="354.06" width="16.4" height="36.79" transform="translate(225.51 744.92) rotate(180)" style="fill:#fff;opacity:0.6000000000000001"></rect><rect x="88.48" y="378.94" width="12.72" height="8.41" style="fill:#fff;opacity:0.7000000000000001"></rect><rect x="91.07" y="380.75" width="0.91" height="4.79" style="fill:#263238"></rect><rect x="92.7" y="380.75" width="0.46" height="4.79" style="fill:#263238"></rect><rect x="93.62" y="380.75" width="1.26" height="4.79" style="fill:#263238"></rect><rect x="95.49" y="380.75" width="0.46" height="4.79" style="fill:#263238"></rect><rect x="96.66" y="380.75" width="0.46" height="4.79" style="fill:#263238"></rect><rect x="97.7" y="380.75" width="0.91" height="4.79" style="fill:#263238"></rect><rect x="106.42" y="347.75" width="16.4" height="8.18" style="fill:#263238"></rect><rect x="106.42" y="347.75" width="16.4" height="8.18" style="fill:#fff;opacity:0.4"></rect><rect x="65.89" y="347.75" width="40.53" height="8.18" style="fill:#263238"></rect><rect x="65.89" y="347.75" width="40.53" height="8.18" style="fill:#fff;opacity:0.5"></rect><rect x="112.03" y="347.75" width="5.19" height="11.92" style="fill:#407BFF"></rect><rect x="112.03" y="378.94" width="5.19" height="11.92" style="fill:#407BFF"></rect><rect x="112.03" y="347.75" width="5.19" height="11.92" style="fill:#fff;opacity:0.3"></rect><rect x="112.03" y="378.94" width="5.19" height="11.92" style="fill:#fff;opacity:0.3"></rect></g><g id="freepik--character-2--inject-73"><path d="M293.81,215.91l-.13,2.19c-.05.76-.11,1.53-.17,2.3-.15,1.54-.3,3.09-.48,4.63q-.54,4.65-1.35,9.27l-.76,4.22c-.07.29-1.94,0-3.23-.48a41.57,41.57,0,0,1-4-1.87l-2.78,3.26a21.3,21.3,0,0,0,1.85,1.93,20.69,20.69,0,0,0,2.07,1.74,17.1,17.1,0,0,0,2.44,1.51,10.84,10.84,0,0,0,3.2,1.06,7.36,7.36,0,0,0,2.16,0,6.78,6.78,0,0,0,2.45-.83,7.08,7.08,0,0,0,2-1.74,8,8,0,0,0,1.11-1.93c.13-.31.24-.62.33-.91l.11-.37.08-.3.34-1.21c.23-.8.44-1.61.64-2.42.8-3.24,1.46-6.51,1.95-9.83.24-1.66.45-3.32.59-5,.07-.84.14-1.68.19-2.53s.07-1.67.08-2.65Z" style="fill:#ffb573"></path><path d="M298.43,206.93c-7.22,5.52-6.93,15.92-6.93,15.92l12.9,3.08s4-10.45,2.35-14.28C305.08,207.65,302.48,203.82,298.43,206.93Z" style="fill:#263238"></path><path d="M298.43,206.93c-7.22,5.52-6.93,15.92-6.93,15.92l12.9,3.08s4-10.45,2.35-14.28C305.08,207.65,302.48,203.82,298.43,206.93Z" style="fill:#fff;opacity:0.9"></path><path d="M304.89,224.57l-13.33-3.21c-.07.93-.05,1.49-.05,1.49l12.89,3.08S304.6,225.41,304.89,224.57Z" style="fill:#407BFF"></path><polygon points="331.83 403.19 324.42 403.9 320.85 386.63 328.27 385.92 331.83 403.19" style="fill:#ffb573"></polygon><polygon points="386.94 377.66 381.49 382.78 369.73 369.85 375.18 364.74 386.94 377.66" style="fill:#ffb573"></polygon><path d="M379,380.33l4.09-7.38a.61.61,0,0,1,.74-.28l6.3,2.4a1.21,1.21,0,0,1,.59,1.7c-1.47,2.55-2.31,3.71-4.11,7-1.11,2-3.27,6.57-4.8,9.33s-4.33,1.39-3.94.1c1.75-5.76,1.42-9,.92-11.5A1.94,1.94,0,0,1,379,380.33Z" style="fill:#263238"></path><path d="M323.81,401.65h8.91a.74.74,0,0,1,.7.55l1.94,7a1.1,1.1,0,0,1-1.09,1.41c-3.14,0-4.63,0-8.54,0h-12c-3.25,0-3.93-3.29-2.59-3.59,6-1.34,9.52-3.18,11.39-4.94A1.84,1.84,0,0,1,323.81,401.65Z" style="fill:#263238"></path><polygon points="320.85 386.64 322.69 395.54 330.25 395.54 328.27 385.93 320.85 386.64" style="opacity:0.2"></polygon><polygon points="375.19 364.74 369.74 369.86 375.8 376.52 381.25 371.4 375.19 364.74" style="opacity:0.2"></polygon><path d="M308.28,250.57s-10.28,45.48-3.42,77.54c4.6,21.47,14.21,63.71,14.21,63.71l13-.34s-5.58-44.38-8.18-62.28c-4.44-30.62,6.68-80.55,6.68-80.55Z" style="fill:#263238"></path><path d="M320.13,259.75,326.61,270a311,311,0,0,0-3.7,36.61C313.79,290.27,318.11,268.39,320.13,259.75Z" style="opacity:0.4"></path><polygon points="318.57 393.63 334.58 393.22 333.65 388.3 317.32 389.07 318.57 393.63" style="fill:#263238"></polygon><path d="M314.92,250.09s6,48.23,19.11,74.55c10.55,21.27,38.73,51.54,38.73,51.54l7.2-7.42s-19-32.9-26.87-47c-19.25-34.63-3.52-61.07-14.43-73.79Z" style="fill:#263238"></path><polygon points="372.03 377.18 381.33 368.12 378.24 363.92 368.38 373.76 372.03 377.18" style="fill:#263238"></polygon><path d="M377.54,384.29a.93.93,0,0,0,.29-.05c.89-.3,1.48-1.95,1.75-2.9a.18.18,0,0,0-.05-.16.17.17,0,0,0-.17,0c-.27.14-2.65,1.41-2.72,2.35a.57.57,0,0,0,.25.53A1.09,1.09,0,0,0,377.54,384.29Zm1.65-2.69c-.41,1.32-.95,2.19-1.45,2.36a.69.69,0,0,1-.67-.15.29.29,0,0,1-.14-.27C377,383,378.37,382.06,379.19,381.6Z" style="fill:#407BFF"></path><path d="M377.17,382a5.31,5.31,0,0,0,2.34-.55.13.13,0,0,0,.07-.13.14.14,0,0,0-.07-.12c-.08-.05-2-1.08-3-.72a.88.88,0,0,0-.56.52.59.59,0,0,0,.14.73A1.63,1.63,0,0,0,377.17,382Zm1.94-.67c-.81.34-2.37.55-2.81.18-.08-.06-.15-.17-.05-.4a.59.59,0,0,1,.37-.35A4.11,4.11,0,0,1,379.11,381.3Z" style="fill:#407BFF"></path><path d="M319.86,403.1a12.18,12.18,0,0,0,2.43-.31.15.15,0,0,0,.11-.13.14.14,0,0,0-.08-.15c-.37-.17-3.6-1.67-4.41-1.12a.47.47,0,0,0-.21.46,1.07,1.07,0,0,0,.44.84A3,3,0,0,0,319.86,403.1Zm1.92-.51c-1,.18-2.73.41-3.47-.14a.79.79,0,0,1-.32-.62.18.18,0,0,1,.08-.19C318.53,401.33,320.44,402,321.78,402.59Z" style="fill:#407BFF"></path><path d="M322.26,402.79l.09,0a.17.17,0,0,0,0-.15c0-.14-.76-3.32-2.52-3.12-.44.05-.56.27-.58.44-.11.82,1.93,2.45,2.9,2.85Zm-2.22-3c1.12,0,1.77,1.85,2,2.59-1-.55-2.51-1.88-2.44-2.4,0,0,0-.15.33-.19Z" style="fill:#407BFF"></path><path d="M284.12,236.68l-4.75-4.74-2.55,7.42s4,2.16,7.83.12Z" style="fill:#ffb573"></path><polygon points="272.81 231.21 271.94 237.07 276.82 239.36 279.37 231.94 272.81 231.21" style="fill:#ffb573"></polygon><path d="M300.6,205.86s-3.26,1.43,7.68,44.71l30.38-2.63c-1.58-12.32-2.25-19.94,1.46-45.83a90.24,90.24,0,0,0-13-.58,96,96,0,0,0-13.8,1.19A127.5,127.5,0,0,0,300.6,205.86Z" style="fill:#263238"></path><path d="M300.6,205.86s-3.26,1.43,7.68,44.71l30.38-2.63c-1.58-12.32-2.25-19.94,1.46-45.83a90.24,90.24,0,0,0-13-.58,96,96,0,0,0-13.8,1.19A127.5,127.5,0,0,0,300.6,205.86Z" style="fill:#fff;opacity:0.9"></path><path d="M327.08,201.31s1.72,0,3.76,0c1.22,1.89-3.4,8.13-9.08,11.13-1.58-4.93-5.54-3.23-5.54-3.23Z" style="fill:#263238"></path><path d="M327.08,201.31s1.72,0,3.76,0c1.22,1.89-3.4,8.13-9.08,11.13-1.58-4.93-5.54-3.23-5.54-3.23Z" style="fill:#fff;opacity:0.9"></path><path d="M313.28,202.61s-.77.11-2.6.53c-1.23,1.89-2.4,5.05,1.21,9.16,1.4-5.07,4.33-3.06,4.33-3.06Z" style="fill:#263238"></path><path d="M313.28,202.61s-.77.11-2.6.53c-1.23,1.89-2.4,5.05,1.21,9.16,1.4-5.07,4.33-3.06,4.33-3.06Z" style="fill:#fff;opacity:0.9"></path><path d="M310.68,203.14c-1.23,1.89-2.4,5.05,1.21,9.16,1.4-5.07,4.33-3.06,4.33-3.06l-.5-1.13a3.15,3.15,0,0,0-4,2.84,7.47,7.47,0,0,1-.43-7.94Z" style="fill:#407BFF"></path><path d="M330.84,201.34H330a7.61,7.61,0,0,1-1.16,3.58c-1.86,3.27-6.54,6.09-6.54,6.09a4.42,4.42,0,0,0-4.55-2.91l-1.56,1.14s4-1.7,5.54,3.23C327.44,209.47,332.06,203.23,330.84,201.34Z" style="fill:#407BFF"></path><path d="M339.44,201.76a12,12,0,0,1-2-3.56,23.1,23.1,0,0,0,3.65,3.85,27.51,27.51,0,0,0,3.37.29,20.22,20.22,0,0,1-8.4-13.32c-1.26-8.82-7.68-7.17-7.68-7.17l-1.52,2.6s1.1,8,4.46,12.91a8.56,8.56,0,0,0,3,2.6,14.18,14.18,0,0,1-2.06-6.2,23.15,23.15,0,0,0,4.46,7.25A22.63,22.63,0,0,0,339.44,201.76Z" style="fill:#263238"></path><path d="M328.39,181.85l-1.52,2.6s.15,1.11.52,2.76a26,26,0,0,0,2.79-5.46A5.93,5.93,0,0,0,328.39,181.85Z" style="fill:#407BFF"></path><path d="M324.36,186.11c-.48,4.51-.65,12.72,2.72,15.42a51.71,51.71,0,0,1-10.86,7.71c-5.28-3.65-2.94-6.52-2.94-6.52,4.85-1.61,4.4-5.27,3.24-8.65Z" style="fill:#ffb573"></path><path d="M321.17,189.36l-4.65,4.71a14.32,14.32,0,0,1,.64,2.41c1.87-.44,4.57-2.38,4.6-4.37A7.85,7.85,0,0,0,321.17,189.36Z" style="opacity:0.2"></path><path d="M317.19,170.86s-5.06,7-5.89,10.18c-3.45,2-4.15-7.89-2.32-14C314.65,170.57,317.19,170.86,317.19,170.86Z" style="fill:#263238"></path><path d="M317.19,170.86s-5.06,7-5.89,10.18c-3.45,2-4.15-7.89-2.32-14C314.65,170.57,317.19,170.86,317.19,170.86Z" style="opacity:0.5"></path><path d="M328.34,179.06c-1.89,7.21-2.53,10.3-6.95,13.32-6.66,4.55-15.1.66-15.41-7-.28-6.87,2.85-17.51,10.56-19A10.17,10.17,0,0,1,328.34,179.06Z" style="fill:#ffb573"></path><path d="M332.26,176.18s-3.63,5.87-4.11,8.42c-2.63,1.79-3.74-6-2.63-11C326.73,169.24,332.26,176.18,332.26,176.18Z" style="fill:#263238"></path><path d="M311.34,165.81c2.13-2.95,9.88-4.17,16.6.25,6.06,4,5.67,13.21.85,12.72s-9.57-6.14-9.57-6.14Z" style="fill:#263238"></path><path d="M328.93,185.57a5.45,5.45,0,0,1-3.2,2.65c-1.83.55-2.78-1.08-2.3-2.82.42-1.57,1.89-3.75,3.74-3.54A2.45,2.45,0,0,1,328.93,185.57Z" style="fill:#ffb573"></path><path d="M316.13,178.81c-.12.59-.53,1-.92.94s-.6-.62-.49-1.22.53-1,.92-.94S316.25,178.21,316.13,178.81Z" style="fill:#263238"></path><path d="M309.41,177.49c-.11.59-.52,1-.91.94s-.61-.62-.49-1.22.52-1,.91-.94S309.53,176.89,309.41,177.49Z" style="fill:#263238"></path><path d="M309.09,176.34l-1.35-.69S308.25,176.91,309.09,176.34Z" style="fill:#263238"></path><path d="M311.32,179a16.29,16.29,0,0,1-2.86,3.38,2.62,2.62,0,0,0,2,.81Z" style="fill:#ed893e"></path><path d="M312.45,186a4.92,4.92,0,0,0,3.38-1.29.14.14,0,0,0,0-.21.15.15,0,0,0-.21,0,4.86,4.86,0,0,1-4.23,1.09.15.15,0,1,0-.05.29A5.49,5.49,0,0,0,312.45,186Z" style="fill:#263238"></path><path d="M320.16,176.5a.29.29,0,0,0,.26-.44,3.5,3.5,0,0,0-2.68-1.74.32.32,0,0,0-.31.29.3.3,0,0,0,.29.3,2.93,2.93,0,0,1,2.19,1.45A.3.3,0,0,0,320.16,176.5Z" style="fill:#263238"></path><path d="M307.55,174.12a.32.32,0,0,0,.14,0,2.93,2.93,0,0,1,2.62-.18.29.29,0,0,0,.4-.12.3.3,0,0,0-.12-.4,3.5,3.5,0,0,0-3.19.18.29.29,0,0,0-.11.4A.28.28,0,0,0,307.55,174.12Z" style="fill:#263238"></path><path d="M315.8,177.66l-1.34-.69S315,178.23,315.8,177.66Z" style="fill:#263238"></path><path d="M323.12,163.44S307.75,157.85,305,171a9.53,9.53,0,0,1,1.43-.2,8.34,8.34,0,0,1,2.52-3.6,21.3,21.3,0,0,0-1.53,3.56,20.41,20.41,0,0,1,9.49,2.35,7.78,7.78,0,0,1,1.69-2.11s-.41,1.28-.76,2.61a26.24,26.24,0,0,1,3.08,2S326.33,172.6,323.12,163.44Z" style="fill:#263238"></path><path d="M312.25,163.7s15.23,2,19.44,14.27c0,0,8.35-7.82,0-15.33C320.51,152.67,312.25,163.7,312.25,163.7Z" style="fill:#263238"></path><path d="M312.25,163.7s15.23,2,19.44,14.27c0,0,8.35-7.82,0-15.33C320.51,152.67,312.25,163.7,312.25,163.7Z" style="fill:#fff;opacity:0.9"></path><path d="M312.25,163.7s8.5,1.14,14.56,6.81h0s-12.22-15.15-19.53-11.92C302.41,160.74,312.25,163.7,312.25,163.7Z" style="fill:#263238"></path><path d="M312.25,163.7s8.5,1.14,14.56,6.81h0s-12.22-15.15-19.53-11.92C302.41,160.74,312.25,163.7,312.25,163.7Z" style="fill:#fff;opacity:0.6000000000000001"></path><path d="M328.62,162.76c.83,2,.13,4.53-2,7.55l.7.67c2.44-3.36,3.2-6.25,2.22-8.59a6.52,6.52,0,0,0-2.46-2.83,11.41,11.41,0,0,0-5.4-1.07C323.26,158.8,327.4,159.86,328.62,162.76Z" style="fill:#407BFF"></path><rect x="261.98" y="216.99" width="18.92" height="18.92" style="fill:#263238"></rect><rect x="261.98" y="216.99" width="18.92" height="18.92" style="fill:#fff;opacity:0.9"></rect><rect x="280.9" y="216.99" width="8.43" height="18.92" transform="translate(570.23 452.9) rotate(180)" style="fill:#263238"></rect><rect x="280.9" y="216.99" width="8.43" height="18.92" transform="translate(570.23 452.9) rotate(180)" style="fill:#fff;opacity:0.8"></rect><rect x="272.64" y="229.78" width="6.54" height="4.32" style="fill:#fff;opacity:0.7000000000000001"></rect><rect x="273.97" y="230.71" width="0.47" height="2.46" style="fill:#263238"></rect><rect x="274.8" y="230.71" width="0.23" height="2.46" style="fill:#263238"></rect><rect x="275.28" y="230.71" width="0.65" height="2.46" style="fill:#263238"></rect><rect x="276.24" y="230.71" width="0.23" height="2.46" style="fill:#263238"></rect><rect x="276.84" y="230.71" width="0.23" height="2.46" style="fill:#263238"></rect><rect x="277.37" y="230.71" width="0.47" height="2.46" style="fill:#263238"></rect><rect x="281.86" y="213.74" width="8.43" height="4.21" style="fill:#263238"></rect><rect x="281.86" y="213.74" width="8.43" height="4.21" style="fill:#fff;opacity:0.4"></rect><rect x="261.02" y="213.74" width="20.84" height="4.21" style="fill:#263238"></rect><rect x="261.02" y="213.74" width="20.84" height="4.21" style="fill:#fff;opacity:0.5"></rect><rect x="284.74" y="213.74" width="2.67" height="6.13" style="fill:#407BFF"></rect><rect x="284.74" y="229.78" width="2.67" height="6.13" style="fill:#407BFF"></rect><rect x="284.74" y="213.74" width="2.67" height="6.13" style="fill:#fff;opacity:0.3"></rect><rect x="284.74" y="229.78" width="2.67" height="6.13" style="fill:#fff;opacity:0.3"></rect><polygon points="314.59 231.25 316.72 240.68 315.77 241.63 321.81 241.63 317.55 230.58 314.59 231.25" style="fill:#263238"></polygon><path d="M317.55,230.58l-3,.66.36,1.63a23.22,23.22,0,0,0,3.34-.39Z" style="opacity:0.5"></path><path d="M313.67,225.88a23.47,23.47,0,0,0-4.75.46v5.12a23.47,23.47,0,0,0,4.75.46c5,0,9-1.36,9-3S318.65,225.88,313.67,225.88Z" style="fill:#263238"></path><path d="M313.67,225.88a23.47,23.47,0,0,0-4.75.46v5.12a23.47,23.47,0,0,0,4.75.46c5,0,9-1.36,9-3S318.65,225.88,313.67,225.88Z" style="fill:#263238"></path><path d="M309.72,226.19c-.27.05-.54.09-.8.15v5.12l.8.14Z" style="fill:#407BFF"></path><path d="M342.2,208.21l.8.81.69.75c.44.5.87,1,1.28,1.53.83,1,1.61,2.08,2.34,3.16a52.2,52.2,0,0,1,3.84,6.85,41.75,41.75,0,0,1,2.66,7.42,39.32,39.32,0,0,1,.82,3.88,9.14,9.14,0,0,1-.69,6,8.15,8.15,0,0,1-2.16,2.56,9.83,9.83,0,0,1-2.44,1.39,15.8,15.8,0,0,1-4.46,1,36.86,36.86,0,0,1-7.9-.19A76.42,76.42,0,0,1,322.44,240l1.05-4.15a113.72,113.72,0,0,0,13.92,1.2,33.68,33.68,0,0,0,6.49-.46,10.41,10.41,0,0,0,2.5-.78c.83-.5.59-1.37-.36-4.84a39,39,0,0,0-2.53-6,42.78,42.78,0,0,0-3.39-5.62c-.61-.91-1.26-1.79-1.94-2.64-.34-.42-.68-.84-1-1.23l-.51-.6-.45-.49Z" style="fill:#ffb573"></path><path d="M325.28,236.89l-5.93-3.14-.27,7.85s4.19.26,6.65-1.66Z" style="fill:#ffb573"></path><polygon points="314.32 234.75 315.21 240.61 319.08 241.6 319.35 233.75 314.32 234.75" style="fill:#ffb573"></polygon><path d="M340.12,202.11c3.73.66,8.95,11.34,8.95,11.34l-9.39,8.49s-7.47-8.14-7.07-13C333,204.82,335.38,201.27,340.12,202.11Z" style="fill:#263238"></path><path d="M340.12,202.11c3.73.66,8.95,11.34,8.95,11.34l-9.39,8.49s-7.47-8.14-7.07-13C333,204.82,335.38,201.27,340.12,202.11Z" style="fill:#fff;opacity:0.9"></path><path d="M348.37,212.09l-9.61,8.79c.55.66.92,1.06.92,1.06l9.39-8.49S348.81,212.92,348.37,212.09Z" style="fill:#407BFF"></path></g><g id="freepik--Desk--inject-73"><rect x="190.88" y="268.27" width="172.71" height="142.51" transform="translate(554.47 679.05) rotate(180)" style="fill:#407BFF"></rect><rect x="363.59" y="268.27" width="43.48" height="142.51" transform="translate(770.66 679.05) rotate(180)" style="fill:#407BFF"></rect><rect x="363.59" y="268.27" width="43.48" height="142.51" transform="translate(770.66 679.05) rotate(180)" style="fill:#fff;opacity:0.2"></rect><rect x="190.88" y="268.27" width="172.71" height="142.51" transform="translate(554.47 679.05) rotate(180)"></rect><rect x="190.88" y="268.27" width="172.71" height="142.51" transform="translate(554.47 679.05) rotate(180)" style="fill:#407BFF"></rect><rect x="190.88" y="268.27" width="172.71" height="142.51" transform="translate(554.47 679.05) rotate(180)" style="fill:#fff;opacity:0.4"></rect><rect x="360.39" y="260.31" width="50.83" height="7.96" transform="translate(771.61 528.58) rotate(180)" style="fill:#263238"></rect><rect x="186.73" y="260.31" width="173.66" height="7.96" transform="translate(547.12 528.58) rotate(180)" style="fill:#263238"></rect><rect x="186.73" y="260.31" width="173.66" height="7.96" transform="translate(547.12 528.58) rotate(180)" style="fill:#fff;opacity:0.30000000000000004"></rect><rect x="363.59" y="268.27" width="43.48" height="6.12" style="fill:#263238;opacity:0.2"></rect><rect x="190.88" y="268.27" width="172.71" height="6.12" style="fill:#263238;opacity:0.2"></rect><rect x="190.88" y="297.11" width="172.71" height="35.84" style="fill:#fff;opacity:0.7000000000000001"></rect><rect x="363.59" y="297.11" width="43.48" height="35.84" transform="translate(770.66 630.07) rotate(180)" style="fill:#fff;opacity:0.4"></rect><path d="M211.31,310.16a3.33,3.33,0,0,1,1.5,1.26,3.45,3.45,0,0,1,.53,1.92,3.5,3.5,0,0,1-.53,1.92,3.33,3.33,0,0,1-1.5,1.26A5.67,5.67,0,0,1,209,317h-2v2.75h-2.31v-10H209A5.51,5.51,0,0,1,211.31,310.16Zm-.85,4.46a1.8,1.8,0,0,0,0-2.57,2.43,2.43,0,0,0-1.59-.45H207v3.47h1.88A2.43,2.43,0,0,0,210.46,314.62Z" style="fill:#263238"></path><path d="M217.16,319.21a5,5,0,0,1-2-1.85,5.37,5.37,0,0,1,0-5.3,4.9,4.9,0,0,1,2-1.84,6.19,6.19,0,0,1,5.6,0,5.15,5.15,0,0,1,2,7.14,5.1,5.1,0,0,1-2,1.85,6.19,6.19,0,0,1-5.6,0Zm4.4-1.71a3,3,0,0,0,1.12-1.13,3.38,3.38,0,0,0,.41-1.66,3.31,3.31,0,0,0-.41-1.65,2.92,2.92,0,0,0-1.12-1.14,3.33,3.33,0,0,0-3.2,0,2.92,2.92,0,0,0-1.12,1.14,3.3,3.3,0,0,0-.4,1.65,3.37,3.37,0,0,0,.4,1.66,3,3,0,0,0,1.12,1.13,3.33,3.33,0,0,0,3.2,0Z" style="fill:#263238"></path><path d="M228.16,319.56a5.57,5.57,0,0,1-1.78-.84l.79-1.74a5.27,5.27,0,0,0,1.52.76,5.74,5.74,0,0,0,1.77.28,2.91,2.91,0,0,0,1.46-.29.9.9,0,0,0,.47-.78.73.73,0,0,0-.28-.59,2.07,2.07,0,0,0-.71-.38c-.29-.09-.69-.2-1.18-.31a16.7,16.7,0,0,1-1.87-.54,3.21,3.21,0,0,1-1.25-.88,2.33,2.33,0,0,1-.52-1.59,2.82,2.82,0,0,1,.47-1.58,3.25,3.25,0,0,1,1.42-1.12,5.73,5.73,0,0,1,2.32-.41,7.78,7.78,0,0,1,1.87.22,5.65,5.65,0,0,1,1.6.66l-.72,1.75a5.57,5.57,0,0,0-2.76-.78,2.7,2.7,0,0,0-1.44.31,1,1,0,0,0-.46.83.83.83,0,0,0,.53.77,9,9,0,0,0,1.64.49,16.7,16.7,0,0,1,1.87.54,3.16,3.16,0,0,1,1.25.86,2.31,2.31,0,0,1,.52,1.58,2.71,2.71,0,0,1-.48,1.56,3.19,3.19,0,0,1-1.44,1.12,5.73,5.73,0,0,1-2.32.42A8.33,8.33,0,0,1,228.16,319.56Z" style="fill:#263238"></path><path d="M238.2,311.6H235v-1.88h8.7v1.88h-3.19v8.1H238.2Z" style="fill:#263238"></path><path d="M251,319.21a5,5,0,0,1-2-1.85,5.37,5.37,0,0,1,0-5.3,4.9,4.9,0,0,1,2-1.84,6.19,6.19,0,0,1,5.6,0,4.94,4.94,0,0,1,1.95,1.84,5.11,5.11,0,0,1-1.95,7.15,6.19,6.19,0,0,1-5.6,0Zm4.4-1.71a3,3,0,0,0,1.12-1.13,3.38,3.38,0,0,0,.41-1.66,3.31,3.31,0,0,0-.41-1.65,2.92,2.92,0,0,0-1.12-1.14,3.33,3.33,0,0,0-3.2,0,2.92,2.92,0,0,0-1.12,1.14,3.3,3.3,0,0,0-.4,1.65,3.37,3.37,0,0,0,.4,1.66,3,3,0,0,0,1.12,1.13,3.33,3.33,0,0,0,3.2,0Z" style="fill:#263238"></path><path d="M263.34,311.57v2.64H268v1.86h-4.62v3.63H261v-10h7.55v1.85Z" style="fill:#263238"></path><path d="M272.46,311.57v2.64h4.62v1.86h-4.62v3.63h-2.31v-10h7.54v1.85Z" style="fill:#263238"></path><path d="M279.26,309.72h2.31v10h-2.31Z" style="fill:#263238"></path><path d="M286,319.21a4.91,4.91,0,0,1-1.94-1.84,5.4,5.4,0,0,1,0-5.32,5,5,0,0,1,1.94-1.84,6.24,6.24,0,0,1,5.12-.21,4.74,4.74,0,0,1,1.77,1.32l-1.49,1.36a3.21,3.21,0,0,0-2.51-1.17,3.31,3.31,0,0,0-1.65.41,2.84,2.84,0,0,0-1.14,1.14,3.3,3.3,0,0,0-.4,1.65,3.37,3.37,0,0,0,.4,1.66,2.88,2.88,0,0,0,1.14,1.13,3.31,3.31,0,0,0,1.65.41,3.17,3.17,0,0,0,2.51-1.19l1.49,1.37a4.66,4.66,0,0,1-1.77,1.33,6,6,0,0,1-2.36.46A5.67,5.67,0,0,1,286,319.21Z" style="fill:#263238"></path><path d="M302.14,317.85v1.85H294.4v-10H302v1.85H296.7v2.17h4.64v1.8H296.7v2.31Z" style="fill:#263238"></path><path d="M344.85,306.35h-26a2.22,2.22,0,0,0-2.23,2.22v.09h-3.25a1.21,1.21,0,0,0,0,2.42h3.25v2.42h-6.77a1.21,1.21,0,1,0,0,2.42h6.77v2.42h-5a1.22,1.22,0,1,0,0,2.43h5v.08a2.22,2.22,0,0,0,2.23,2.22h26a2.21,2.21,0,0,0,2.22-2.22V308.57A2.21,2.21,0,0,0,344.85,306.35Zm-1.09,13.44a.74.74,0,0,1,.3,1,.75.75,0,0,1-1,.3L333,315.55l-1.14.62-1.14-.62-10.09,5.54a.74.74,0,0,1-.71-1.3l9.27-5.08-9.27-5.08a.74.74,0,0,1,.71-1.3l11.23,6.16,11.22-6.16a.75.75,0,0,1,1,.3h0a.74.74,0,0,1-.3,1l-9.26,5.08Z" style="fill:#407BFF"></path></g><g id="freepik--character-1--inject-73"><path d="M196.6,405.56c.86,0,1.7-.12,2-.51a.58.58,0,0,0,0-.69.74.74,0,0,0-.5-.37c-1.12-.31-3.47,1-3.57,1.09a.15.15,0,0,0-.08.16.17.17,0,0,0,.13.13A11.37,11.37,0,0,0,196.6,405.56Zm1.07-1.3a1.39,1.39,0,0,1,.3,0,.52.52,0,0,1,.32.23c.11.19.07.29,0,.35-.32.43-2,.44-3.26.27A7.14,7.14,0,0,1,197.67,404.26Z" style="fill:#407BFF"></path><path d="M194.57,405.38l.07,0c.81-.36,2.41-1.82,2.29-2.57,0-.18-.15-.4-.59-.45a1.18,1.18,0,0,0-.88.27,4.56,4.56,0,0,0-1.05,2.59.18.18,0,0,0,.07.15Zm1.64-2.73h.1c.28,0,.3.14.31.18.07.45-1,1.59-1.85,2.09a3.76,3.76,0,0,1,.89-2.07A.84.84,0,0,1,196.21,402.65Z" style="fill:#407BFF"></path><polygon points="187.19 405.22 193.9 405.22 194.57 389.66 187.85 389.66 187.19 405.22" style="fill:#ce7a63"></polygon><path d="M193.86,404.44h-7.34a.59.59,0,0,0-.57.46l-1.33,6a1,1,0,0,0,1,1.19c2.65,0,6.47-.2,9.8-.2,3.88,0,7.24.21,11.8.21,2.76,0,3.53-2.78,2.37-3-5.25-1.15-9.54-1.27-14.08-4.07A3.17,3.17,0,0,0,193.86,404.44Z" style="fill:#263238"></path><polygon points="187.46 398.8 194.18 398.8 194.57 389.66 187.85 389.66 187.46 398.8" style="opacity:0.2"></polygon><path d="M147.86,404.43a2.12,2.12,0,0,0,1.67-.09.64.64,0,0,0,.15-.74.7.7,0,0,0-.41-.46c-.9-.44-3,.41-3.08.45a.16.16,0,0,0-.09.14.15.15,0,0,0,.09.15A8.07,8.07,0,0,0,147.86,404.43Zm1.09-1.07.19.06a.46.46,0,0,1,.24.27c.08.29,0,.38-.06.41-.36.31-1.7,0-2.64-.35A5.14,5.14,0,0,1,149,403.36Z" style="fill:#407BFF"></path><path d="M146.22,403.89h.08c.76-.22,2.38-1.38,2.4-2.14a.5.5,0,0,0-.4-.51.85.85,0,0,0-.71.05c-.9.46-1.46,2.32-1.49,2.4a.18.18,0,0,0,0,.16Zm1.9-2.37.07,0c.2.06.2.16.2.2,0,.45-1.09,1.36-1.87,1.72a3.74,3.74,0,0,1,1.22-1.88A.52.52,0,0,1,148.12,401.52Z" style="fill:#407BFF"></path><polygon points="138.73 402.11 145.3 403.53 151.89 389.04 145.32 387.62 138.73 402.11" style="fill:#ce7a63"></polygon><path d="M145.93,402.87l-7.38-1.6a.58.58,0,0,0-.65.33l-2.56,5.55a1,1,0,0,0,.71,1.38c2.58.51,3.86.63,7.11,1.33,2,.44,6.5,1.53,9.25,2.13s3.71-2.05,2.63-2.54c-4.81-2.2-6.83-4.14-8.13-5.95A1.65,1.65,0,0,0,145.93,402.87Z" style="fill:#263238"></path><polygon points="141.41 396.21 148 397.58 151.89 389.04 145.32 387.62 141.41 396.21" style="opacity:0.2"></polygon><path d="M196.94,151.91c.12.58.53,1,.91.91s.6-.61.48-1.2-.53-1-.91-.91S196.83,151.32,196.94,151.91Z" style="fill:#263238"></path><path d="M197.42,152.91a21.35,21.35,0,0,0,3.8,4.43,3.4,3.4,0,0,1-2.68,1.09Z" style="fill:#ba4d3c"></path><path d="M194.15,149.1a.33.33,0,0,1-.24-.1.35.35,0,0,1,0-.49,3.49,3.49,0,0,1,3-1.16.34.34,0,0,1,.28.4.35.35,0,0,1-.4.29h0a2.78,2.78,0,0,0-2.35.94A.33.33,0,0,1,194.15,149.1Z" style="fill:#263238"></path><path d="M180.3,160.12c1.06,5.41,2.12,15.32-1.67,18.93,0,0,1.48,5.49,11.53,5.49,11.05,0,5.28-5.49,5.28-5.49-6-1.44-5.87-5.91-4.82-10.12Z" style="fill:#ce7a63"></path><path d="M177.12,178.22c-.73-1.36-1.54-2.92.13-3.41,1.84-.54,13.66-1.54,17.13-.53-1.07,1.9.74,4.23.74,4.23Z" style="fill:#407BFF"></path><path d="M177.12,178.22l18,.29a5.53,5.53,0,0,1-1.07-2.82,135.64,135.64,0,0,0-15,0c-.94,0-1.89.12-2.83.21A5.52,5.52,0,0,0,177.12,178.22Z" style="fill:#263238;opacity:0.2"></path><path d="M177.2,154.63c1.9,7.09,2.65,11.33,7,14.28,6.58,4.43,14.77-.66,15-8.17.23-6.76-2.91-17.21-10.52-18.64A10,10,0,0,0,177.2,154.63Z" style="fill:#ce7a63"></path><path d="M180.46,166.18c3,1.73,14-4,11.74-12.77,0,0,4.18-5,3.71-10.58s-4.28-7.67-8.34-6.48c-3.57,1.05-3.47,3-3.47,3s-16.89,2-13.29,8.86C163.94,155.71,176.7,164,180.46,166.18Z" style="fill:#263238;opacity:0.21"></path><path d="M171.29,148.78s-2-3.48-4.95-1.53C167.72,147.27,170,147.51,171.29,148.78Z" style="fill:#263238;opacity:0.21"></path><path d="M195.37,146.49s3.69-8.32-2.05-11A14.23,14.23,0,0,1,195.37,146.49Z" style="fill:#263238;opacity:0.21"></path><path d="M192.84,234.35s-7.62,51.34-11.81,70.57c-4.58,21.06-29.15,90.74-29.15,90.74l-12-2.61s17.19-56.78,21-86.22c3-22.62,8.78-72.48,8.78-72.48Z" style="fill:#263238"></path><path d="M154.76,391.64c.05,0-2.24,4.35-2.24,4.35L139,393.06l1.14-4.07Z" style="fill:#263238"></path><path d="M188,252.64c-8.81,1.73-7.88,34.6-6.82,51.51,2.55-11.95,6.27-34.95,8.81-51.27A3.09,3.09,0,0,0,188,252.64Z" style="opacity:0.30000000000000004"></path><path d="M204.74,234.35s.92,50.23.19,70.71c-.76,21.31-8.2,91.07-8.2,91.07H185.35s-.42-68.52-.92-89.44c-.56-22.81-3.31-72.34-3.31-72.34Z" style="fill:#263238"></path><path d="M198.92,391.6c.05,0-.64,4.72-.64,4.72H184.44l-.38-4.21Z" style="fill:#263238"></path><path d="M154.76,391.64c.05,0-2.24,4.35-2.24,4.35L139,393.06l1.14-4.07Z" style="fill:#fff;opacity:0.4"></path><path d="M198.92,391.6c.05,0-.64,4.72-.64,4.72H184.44l-.38-4.21Z" style="fill:#fff;opacity:0.4"></path><path d="M173.31,189.3l-2.64,4.59-2.58,4.69c-1.7,3.13-3.33,6.28-4.81,9.45-.74,1.59-1.45,3.17-2.09,4.76l-.12.29,0,0-.08.11a2.14,2.14,0,0,0-.13.22,1.65,1.65,0,0,0,.08,1,9.94,9.94,0,0,0,2.15,3.31,42.13,42.13,0,0,0,3.53,3.4l-2.22,4.74a22.65,22.65,0,0,1-3-1,23.15,23.15,0,0,1-2.81-1.42,15.9,15.9,0,0,1-5.21-4.81,11,11,0,0,1-1.64-4.23,10.11,10.11,0,0,1,0-2.52,9.43,9.43,0,0,1,.21-1.24l.16-.61.11-.36c.59-1.88,1.19-3.73,1.91-5.52a112.86,112.86,0,0,1,4.66-10.45c.85-1.69,1.73-3.36,2.67-5s1.85-3.26,2.93-4.94Z" style="fill:#ce7a63"></path><path d="M164.26,220.71l4.8-1.25.28,7.76s-3.76.56-6.06-1.74Z" style="fill:#ce7a63"></path><polygon points="175.87 218.15 174.79 224.96 169.34 227.22 169.06 219.46 175.87 218.15" style="fill:#ce7a63"></polygon><path d="M167.08,178.83c-6.3,1.44-11.49,17.52-11.49,17.52L168.23,206a27.59,27.59,0,0,0,6.71-12.41C177.1,185.14,173.51,177.35,167.08,178.83Z" style="fill:#407BFF"></path><path d="M172.47,190.65c-3.42,3.38-4.53,9.55-4.8,14.9l.56.43a27.55,27.55,0,0,0,6.71-12.41q.19-.76.33-1.5Z" style="opacity:0.2"></path><path d="M204.71,179.18s7.15,8.07.4,58.06H169.18c-.25-5.52,3.22-32.42-2.1-58.41a93.07,93.07,0,0,1,12-1.52,131.92,131.92,0,0,1,15.28,0A67.62,67.62,0,0,1,204.71,179.18Z" style="fill:#407BFF"></path><path d="M207.85,194.45l-.14-.12-8.16,2c-.47,5.52,5.21,12.13,8.13,15.14A154.67,154.67,0,0,0,207.85,194.45Z" style="opacity:0.2"></path><path d="M208.19,185.21c1,1.6,2.2,3.4,3.37,5.07s2.39,3.36,3.65,5a68.18,68.18,0,0,0,8,8.92c.7.65,1.42,1.25,2.15,1.81l.54.41a1.84,1.84,0,0,0-.36-.13c-.27,0-.41,0-.36,0a2.85,2.85,0,0,0,1.45-.32,19.34,19.34,0,0,0,2.29-1.18,82.83,82.83,0,0,0,9.68-7.43l4.07,3.29a47.59,47.59,0,0,1-3.92,5.64,39,39,0,0,1-4.86,5.15,21.56,21.56,0,0,1-3.16,2.33,12.23,12.23,0,0,1-4.67,1.74,8.35,8.35,0,0,1-3.57-.3,8.11,8.11,0,0,1-1.81-.84l-.8-.5c-1-.68-2-1.4-3-2.15a66.1,66.1,0,0,1-9.89-9.9c-1.43-1.78-2.82-3.57-4.11-5.44s-2.53-3.68-3.75-5.79Z" style="fill:#ce7a63"></path><path d="M194.83,189.34c-2.15,9,14.14,17.82,14.14,17.82l10.59-12.4a87.72,87.72,0,0,0-10.82-13C201.34,174.6,196.46,182.48,194.83,189.34Z" style="fill:#407BFF"></path><path d="M237.57,199.3l2.5-8,6.58,3.28s-1,5.85-5.75,6.87Z" style="fill:#ce7a63"></path><polygon points="242.71 189.05 248.64 190.68 246.65 194.55 240.07 191.27 242.71 189.05" style="fill:#ce7a63"></polygon><path d="M192.2,153.41s2.41,8.73-7.43,14.37a3.56,3.56,0,0,0-3.6,0l-4.32-4.92S179,154.76,192.2,153.41Z" style="fill:#263238"></path><path d="M192.2,153.41s2.41,8.73-7.43,14.37a3.56,3.56,0,0,0-3.6,0l-4.32-4.92S179,154.76,192.2,153.41Z" style="fill:#fff;opacity:0.30000000000000004"></path><path d="M192.2,153.41s8.48-16.11.11-20.55-2.38,4.08-2.38,4.08-14.73-8.76-7.55,1.08c0,0-17.52-.47-13.57,9.3,0,0-5.89,5,.47,11.11,0,0-6.71,3.11,4,3.71C173.31,162.14,168.07,174.33,192.2,153.41Z" style="fill:#263238"></path><path d="M189.26,154.93a8.32,8.32,0,0,0,3,4.41c1.93,1.43,3.37,0,3.23-2.16-.12-2-1.27-5.06-3.4-5.64S188.71,152.8,189.26,154.93Z" style="fill:#ce7a63"></path></g></svg>